<svg xmlns="http://www.w3.org/2000/svg" width="273.762" height="146.976" viewBox="0 0 273.762 146.976">
  <g id="vetrecord_logo" data-name="vetrecord logo" transform="translate(-258.2 -618.1)">
    <g id="Group_1" data-name="Group 1" transform="translate(258.2 720.919)">
      <path id="Path_1" data-name="Path 1" d="M305.361,779.8l-19.67,43.672h-7.76L258.2,779.8h10.106l13.655,31.641L295.616,779.8Z" transform="translate(-258.2 -779.8)" fill="#4f4db6"/>
      <path id="Path_2" data-name="Path 2" d="M362.574,818.306H342.723c.3,2.467,1.083,4.211,2.406,5.294a8.432,8.432,0,0,0,5.534,1.624,14.228,14.228,0,0,0,4.692-.782,16.053,16.053,0,0,0,4.271-2.226l2.466,6.256a17.563,17.563,0,0,1-5.414,2.707,21.412,21.412,0,0,1-6.436.962c-5.113,0-9.143-1.444-12.091-4.271s-4.452-6.677-4.452-11.55a17.533,17.533,0,0,1,1.925-8.241,13.714,13.714,0,0,1,5.354-5.594,15.2,15.2,0,0,1,7.76-1.985q6.406,0,10.106,4.151c2.526,2.767,3.73,6.557,3.73,11.249Zm-17.866-9.564a8.235,8.235,0,0,0-1.925,4.933h11.971a8.019,8.019,0,0,0-1.624-4.933,5.06,5.06,0,0,0-4.091-1.684A5.3,5.3,0,0,0,344.708,808.741Z" transform="translate(-288.284 -788.048)" fill="#4f4db6"/>
      <path id="Path_3" data-name="Path 3" d="M409.059,819.784l-.481,6.8a24.286,24.286,0,0,1-3.609.241c-4.632,0-8-1.023-10.106-3.008-2.105-2.045-3.188-5.113-3.188-9.2v-11.67H385.9v-6.978h5.775V787h9.384v8.9h7.64v6.978h-7.64v11.61c0,3.609,1.684,5.474,5.053,5.474A24.9,24.9,0,0,0,409.059,819.784Z" transform="translate(-309.083 -782.669)" fill="#4f4db6"/>
      <path id="Path_4" data-name="Path 4" d="M471.957,823.472H461.43l-7.579-13.9a6.01,6.01,0,0,0-2.226-2.346,6.74,6.74,0,0,0-3.308-.722h-4.752v16.964H434V779.8h20.092c5.113,0,9.023,1.143,11.61,3.369,2.647,2.226,3.91,5.534,3.91,9.745a12.468,12.468,0,0,1-2.767,8.3,13.475,13.475,0,0,1-7.76,4.391q3.429.9,5.775,4.872Zm-13.294-25.746c1.263-.962,1.865-2.466,1.865-4.572s-.6-3.609-1.865-4.572-3.248-1.444-6.015-1.444h-9.2V799.17h9.2C455.415,799.17,457.46,798.689,458.663,797.726Z" transform="translate(-328.249 -779.8)" fill="#4f4db6"/>
      <path id="Path_5" data-name="Path 5" d="M532.874,818.306H513.023c.3,2.467,1.083,4.211,2.406,5.294a8.431,8.431,0,0,0,5.534,1.624,14.228,14.228,0,0,0,4.692-.782,16.053,16.053,0,0,0,4.271-2.226l2.466,6.256a17.561,17.561,0,0,1-5.414,2.707,21.41,21.41,0,0,1-6.436.962c-5.113,0-9.143-1.444-12.091-4.271S504,821.193,504,816.321a17.533,17.533,0,0,1,1.925-8.241,13.715,13.715,0,0,1,5.354-5.594,15.2,15.2,0,0,1,7.76-1.985q6.406,0,10.106,4.151c2.526,2.767,3.73,6.557,3.73,11.249Zm-17.926-9.564a8.234,8.234,0,0,0-1.925,4.933h11.971a8.019,8.019,0,0,0-1.624-4.933,5.059,5.059,0,0,0-4.09-1.684A5.378,5.378,0,0,0,514.948,808.741Z" transform="translate(-356.141 -788.048)" fill="#4f4db6"/>
      <path id="Path_6" data-name="Path 6" d="M564.571,827.99c-2.827-2.827-4.271-6.617-4.271-11.489a16.794,16.794,0,0,1,2.045-8.422,14.364,14.364,0,0,1,5.775-5.594,17.978,17.978,0,0,1,8.6-1.985,20.887,20.887,0,0,1,6.437,1.023,13.681,13.681,0,0,1,4.993,2.767l-2.466,6.376a14.9,14.9,0,0,0-3.91-2.226,11.814,11.814,0,0,0-4.211-.782,7.256,7.256,0,0,0-5.655,2.166c-1.323,1.444-1.985,3.609-1.985,6.436s.662,4.993,1.985,6.5a7.379,7.379,0,0,0,5.655,2.226,11.816,11.816,0,0,0,4.211-.782,14,14,0,0,0,3.91-2.226l2.466,6.436a14.8,14.8,0,0,1-5.233,2.707,22.415,22.415,0,0,1-6.677.963C571.308,832.261,567.4,830.818,564.571,827.99Z" transform="translate(-378.574 -788.048)" fill="#4f4db6"/>
      <path id="Path_7" data-name="Path 7" d="M620.24,830.276a13.557,13.557,0,0,1-5.654-5.534,18.858,18.858,0,0,1,0-16.843,13.42,13.42,0,0,1,5.654-5.474,18.359,18.359,0,0,1,8.482-1.925,18.006,18.006,0,0,1,8.482,1.925,13.42,13.42,0,0,1,5.655,5.474,18.857,18.857,0,0,1,0,16.843,13.557,13.557,0,0,1-5.655,5.534,17.636,17.636,0,0,1-8.482,1.925A16.678,16.678,0,0,1,620.24,830.276Zm15.279-13.9c0-2.948-.6-5.113-1.745-6.557a6.214,6.214,0,0,0-5.053-2.166c-4.572,0-6.8,2.887-6.8,8.722s2.286,8.722,6.8,8.722C633.293,825.1,635.519,822.216,635.519,816.381Z" transform="translate(-399.414 -788.048)" fill="#4f4db6"/>
      <path id="Path_8" data-name="Path 8" d="M698.836,808.26l-5.294.542c-2.587.24-4.451.962-5.534,2.226a7.013,7.013,0,0,0-1.624,4.872V831.78H677V801.342h9.023v5.113c1.5-3.489,4.692-5.414,9.5-5.775l2.707-.181Z" transform="translate(-425.074 -788.048)" fill="#4f4db6"/>
    </g>
    <path id="Subtraction_2" data-name="Subtraction 2" d="M50.984,91.8H28.273a26.274,26.274,0,0,1-11.016-2.407,28.132,28.132,0,0,1-8.985-6.564,30.742,30.742,0,0,1-6.054-9.733,33.023,33.023,0,0,1,.009-23.821A30.679,30.679,0,0,1,8.3,39.559a28.178,28.178,0,0,1,8.987-6.543,26.284,26.284,0,0,1,10.991-2.4,26.893,26.893,0,0,1,3.85.3v-.3C32.123,13.735,44.806,0,60.395,0a26.133,26.133,0,0,1,9.6,1.822,27.655,27.655,0,0,1,8.191,5.036,30.063,30.063,0,0,1,6.183,7.607A31.751,31.751,0,0,1,87.947,24a22.489,22.489,0,0,1,6.428-3.752,21.131,21.131,0,0,1,7.467-1.361,21.974,21.974,0,0,1,16.047,7.061,25.8,25.8,0,0,1,6.933,17.121,21.173,21.173,0,0,1,7.038-1.2,21.917,21.917,0,0,1,15.588,6.611,24.744,24.744,0,0,1,5.378,8.156,27.309,27.309,0,0,1,.147,19.908,25.109,25.109,0,0,1-4.924,7.936,22.924,22.924,0,0,1-7.3,5.353A21.276,21.276,0,0,1,131.8,91.8H104.185c-.272-1.05-.51-2.042-.709-2.948h2.335a7.889,7.889,0,0,0,7.881-7.88V65.989a7.887,7.887,0,0,0-5.88-7.623l.526-.257c5.267-2.361,5.6-6.225,5.774-8.3a6.506,6.506,0,0,0-1.5-5.053,5.463,5.463,0,0,0-4.151-1.745c-2.767,0-2.767,0-3.91-1.383-.085-.084-.17-.182-.259-.286l0,0h0c-.1-.121-.212-.245-.339-.373a13.828,13.828,0,0,0-10.226-4.992H93.36a15.267,15.267,0,0,0-2.888.3,13.231,13.231,0,0,0-5.234,2.476V37.6a7.889,7.889,0,0,0-7.88-7.881H62.32A7.889,7.889,0,0,0,54.44,37.6V58.109H33.867a7.889,7.889,0,0,0-7.88,7.881V80.967a7.889,7.889,0,0,0,7.88,7.88H50.6a25.654,25.654,0,0,0,.389,2.948Z" transform="translate(351.86 618.1)" fill="#f5950e"/>
    <path id="Subtraction_3" data-name="Subtraction 3" d="M47.161,79.1H32.122a3.646,3.646,0,0,1-3.67-3.669V68.846a9.124,9.124,0,0,0,3.008.512c.164,0,.328-.007.486-.014h.01c.151-.006.293-.013.43-.013a2.419,2.419,0,0,1,.4.027,13.863,13.863,0,0,0,3.308-.963,11.823,11.823,0,0,0,4.993,1.083H50.83v5.955A3.646,3.646,0,0,1,47.161,79.1ZM75.614,50.71h-3.2a44.979,44.979,0,0,1-.3-8.078l0-.163a91.324,91.324,0,0,0-.45-14.076h3.938a3.646,3.646,0,0,1,3.67,3.67V47.04a3.646,3.646,0,0,1-3.67,3.67Zm-55.332,0H3.669A3.646,3.646,0,0,1,0,47.04V32.062a3.646,3.646,0,0,1,3.669-3.67H24.784a3.63,3.63,0,0,0,3.669-3.669V3.67a3.487,3.487,0,0,1,.994-2.55A3.745,3.745,0,0,1,32.122,0H47.16a3.646,3.646,0,0,1,3.67,3.669V9.7a13.908,13.908,0,0,0-1.323,6.185,7.707,7.707,0,0,0,.06,1.2l-.421,2.286C47.579,27.507,44.994,29.3,40.3,32.543c-.367.272-.745.547-1.145.838l-.008.006c-1.34.974-2.858,2.078-4.441,3.427a21.77,21.77,0,0,0-3.489,3.97,5.035,5.035,0,0,0-4.091-2.225h-.241a5.184,5.184,0,0,0-4.451,3.248,28.327,28.327,0,0,0-2.155,8.9Z" transform="translate(382.178 652.147)" fill="#4f4db6"/>
    <g id="Group_4" data-name="Group 4" transform="translate(405.218 656.96)">
      <path id="Path_13" data-name="Path 13" d="M542.784,678.7a11.258,11.258,0,0,0-2.526.241,9.9,9.9,0,0,0-4.872,2.647,10.272,10.272,0,0,0-3.369,8.121,6.059,6.059,0,0,0,3.549,5.534,4.724,4.724,0,0,0,3.73-.12,2.03,2.03,0,0,0,1.143-1.083,2.208,2.208,0,0,0,.12-1.684l-1.985-7.4c-.3-1.143.722-1.324.962-.6l2.466,7.58a3.608,3.608,0,0,1-.24,2.767,4.357,4.357,0,0,1-1.865,1.744,5.935,5.935,0,0,1-5.053.12,7.242,7.242,0,0,1-3.369-2.948c-2.406,12.512-7.82,12.572-15.4,19.189a17.679,17.679,0,0,0-4.752,19.791c1.083,2.466-1.083,3.489-2.406.9a16.022,16.022,0,0,1-.481-14.5c.842-1.744-.3-3.85-1.985-3.79a2.276,2.276,0,0,0-1.865,1.444c-3.429,8.121-1.985,16.783,1.083,20.693a6.412,6.412,0,0,0,6.076,2.527,13.985,13.985,0,0,0,3.91-1.384,8.722,8.722,0,0,0,4.812,1.444h11.85c-.18-2.226-1.744-4.452-3.669-4.512a.949.949,0,0,1-.662-1.323l3.429-7.82a5.557,5.557,0,0,0,.12-4.271,6.854,6.854,0,0,0-2.647-3.188c-1.143-.782-.481-2.286.722-1.564a8.115,8.115,0,0,1,3.308,4.03,7.434,7.434,0,0,1-.181,5.775L529.61,734.1a5.969,5.969,0,0,1,1.624.842,11.026,11.026,0,0,0,5.955-3.789l1.684,8.722H548.98c-.181-2.226-1.745-4.331-3.669-4.331a.769.769,0,0,1-.722-.662,48.738,48.738,0,0,1-1.263-10.647c0-.842.9-.9,1.023-.241.481,3.549.662,6.737,1.685,10.166,2.827.06,4.331,2.887,4.512,5.775h5.173c0-3.188-2.105-5.775-4.752-5.955-4.391-15.941-1.143-15.4-2.827-32.062a4.17,4.17,0,0,1,2.647-4.391l5.474-2.647c3.609-1.564,3.85-3.79,4.03-5.775.181-2.346-.962-3.489-2.647-3.489-4.692,0-4.812-.842-6.8-3.068a11.082,11.082,0,0,0-8.061-3.85Z" transform="translate(-502.602 -678.7)" fill="#f5950e"/>
    </g>
  </g>
</svg>
