<?xml version="1.0" encoding="utf-8"?>
<!-- Generator: Adobe Illustrator 26.4.1, SVG Export Plug-In . SVG Version: 6.00 Build 0)  -->
<svg version="1.1" xmlns="http://www.w3.org/2000/svg" xmlns:xlink="http://www.w3.org/1999/xlink" x="0px" y="0px"
	 viewBox="0 0 750 500" style="enable-background:new 0 0 750 500;" xml:space="preserve">
<style type="text/css">
	.st0{fill:#F0F2F2;}
	.st1{clip-path:url(#SVGID_00000025415363826805616400000007851499095993391806_);}
	.st2{fill:#F8F9F9;}
	.st3{clip-path:url(#SVGID_00000025415363826805616400000007851499095993391806_);fill:#F8F9F9;}
	.st4{fill:#FFFFFF;}
	.st5{clip-path:url(#SVGID_00000025415363826805616400000007851499095993391806_);fill:#FFFFFF;}
	.st6{opacity:0.6279;clip-path:url(#SVGID_00000025415363826805616400000007851499095993391806_);}
	.st7{fill:none;stroke:#C8CDCD;stroke-width:0.843;stroke-miterlimit:10;}
	.st8{fill:none;stroke:#C8CDCD;stroke-width:0.8079;stroke-miterlimit:10;}
	.st9{fill:none;stroke:#C8CDCD;stroke-width:0.7728;stroke-miterlimit:10;}
	.st10{fill:none;stroke:#C8CDCD;stroke-width:0.7376;stroke-miterlimit:10;}
	.st11{fill:none;stroke:#C8CDCD;stroke-width:0.7025;stroke-miterlimit:10;}
	.st12{fill:none;stroke:#C8CDCD;stroke-width:0.6674;stroke-miterlimit:10;}
	.st13{fill:none;stroke:#C8CDCD;stroke-width:0.6323;stroke-miterlimit:10;}
	.st14{fill:none;stroke:#C8CDCD;stroke-width:0.5971;stroke-miterlimit:10;}
	.st15{fill:none;stroke:#C8CDCD;stroke-width:0.562;stroke-miterlimit:10;}
	.st16{fill:none;stroke:#C8CDCD;stroke-width:0.5269;stroke-miterlimit:10;}
	.st17{fill:none;stroke:#C8CDCD;stroke-width:0.4918;stroke-miterlimit:10;}
	.st18{fill:none;stroke:#C8CDCD;stroke-width:0.4566;stroke-miterlimit:10;}
	.st19{fill:none;stroke:#C8CDCD;stroke-width:0.4215;stroke-miterlimit:10;}
	.st20{fill:none;stroke:#C8CDCD;stroke-width:0.3864;stroke-miterlimit:10;}
	.st21{fill:none;stroke:#C8CDCD;stroke-width:0.3513;stroke-miterlimit:10;}
	.st22{fill:none;stroke:#C8CDCD;stroke-width:0.3161;stroke-miterlimit:10;}
	.st23{fill:none;stroke:#C8CDCD;stroke-width:0.281;stroke-miterlimit:10;}
	.st24{fill:none;stroke:#C8CDCD;stroke-width:0.2459;stroke-miterlimit:10;}
	.st25{fill:none;stroke:#C8CDCD;stroke-width:0.2108;stroke-miterlimit:10;}
	.st26{fill:none;stroke:#C8CDCD;stroke-width:0.1756;stroke-miterlimit:10;}
	.st27{fill:none;stroke:#C8CDCD;stroke-width:0.1405;stroke-miterlimit:10;}
	.st28{fill:none;stroke:#C8CDCD;stroke-width:0.1054;stroke-miterlimit:10;}
	.st29{fill:none;stroke:#C8CDCD;stroke-width:7.025200e-02;stroke-miterlimit:10;}
	.st30{fill:none;stroke:#C8CDCD;stroke-width:3.512600e-02;stroke-miterlimit:10;}
	.st31{fill:none;}
	.st32{fill:#FED49C;}
	.st33{fill:none;stroke:#FED49C;stroke-miterlimit:10;}
</style>
<g id="BACKGROUND">
	<rect class="st0" width="750" height="500"/>
</g>
<g id="OBJECTS">
	<g>
		<g>
			<defs>
				<rect id="SVGID_1_" width="750" height="500"/>
			</defs>
			<clipPath id="SVGID_00000140711673447627826420000016819816693435637402_">
				<use xlink:href="#SVGID_1_"  style="overflow:visible;"/>
			</clipPath>
			<g style="clip-path:url(#SVGID_00000140711673447627826420000016819816693435637402_);">
				<path class="st2" d="M783,513.4H135.3l0.3-1.8c1.8-10.1,7.9-19.2,17.7-26.3c8.3-6,19.2-10.6,30.7-12.8c7.9-1.5,16.1-2.3,24-3.1
					c13.2-1.3,26.8-2.6,39.2-7.4c11.5-4.5,21.9-11.9,31.9-19.2c10.2-7.4,20.8-15,32.8-19.6c20.8-8,43.5-6.2,65.5-4.4
					c19.3,1.5,39.2,3.1,57.7-1.9c38.7-10.5,63.2-45.6,87-83.7c23.1-37.1,49-74.2,88.7-85c6.2-1.7,12.6-2.7,18.8-3.6
					c9.7-1.5,19.6-3,28.5-7.2c17.9-8.4,29.3-26.3,38-42.7c1.4-2.7,2.8-5.4,4.2-8.1c7.7-14.9,15.7-30.2,28.1-41.7
					c14.4-13.3,38.3-21,56-9.8l0.7,0.4l0,0.8L783,513.4z M139,510.4H780l2-373.4c-16.4-9.7-38.3-2.5-51.7,9.9
					c-12.1,11.2-19.9,26.3-27.5,40.9c-1.4,2.7-2.8,5.4-4.2,8.1c-9,16.8-20.7,35.2-39.4,44.1c-9.2,4.3-19.5,5.9-29.3,7.5
					c-6.1,0.9-12.5,1.9-18.5,3.6c-38.7,10.5-63.2,45.6-86.9,83.7c-23.1,37.1-49,74.2-88.7,85c-19,5.2-39.2,3.6-58.7,2
					c-21.7-1.7-44-3.5-64.2,4.3c-11.6,4.5-22,12-32.1,19.2c-10.2,7.3-20.7,14.9-32.6,19.5c-12.8,5-26.6,6.3-40,7.6
					c-7.8,0.8-15.9,1.5-23.7,3C155.7,481.1,142.1,497.4,139,510.4z"/>
			</g>
			<path style="clip-path:url(#SVGID_00000140711673447627826420000016819816693435637402_);fill:#F8F9F9;" d="M135.9,507.3
				c2.6-17.5,24.2-24.8,41.6-22.7s34.4,9.6,51.6,6.7c21.7-3.7,37.8-23,58.8-29.6c38.7-12.2,82.4,21.2,119.6,4.8
				c23.5-10.4,36.1-37.7,59-49.2c27.3-13.7,63.5-2.3,88.1-20.6c25.8-19.3,24.8-61.5,49.6-82.2c23.1-19.3,59.5-12.3,83.8-30.1
				c12.5-9.2,19.9-23.7,26.2-37.9c6.2-14.3,11.9-29.2,22.2-40.9c10.3-11.7,26.5-19.4,41.2-14.7v311.9L135.9,507.3z"/>
			<g style="clip-path:url(#SVGID_00000140711673447627826420000016819816693435637402_);">
				<path class="st4" d="M363.5,561.9l-3-0.2c1.9-23.3,23-54.2,41.5-69.3c16.7-13.6,48.4-14.4,76.3-15.1c21.8-0.5,42.3-1,49.5-7.8
					c5.2-5,10.2-12.3,15.5-20c8.7-12.6,17.7-25.7,28.8-30.6c6.9-3,17.7-2.5,28.2-2c8.8,0.4,17.9,0.9,23.6-1
					c14.1-4.5,20.1-17,26.5-30.2c3.8-7.8,7.7-16,13.5-22.9c8.1-9.8,23.4-13.4,41.1-17.6c17.5-4.1,37.4-8.8,56-20.4l1.6,2.5
					c-19.1,11.8-39.2,16.6-56.9,20.8c-17.2,4.1-32,7.6-39.5,16.6c-5.5,6.7-9.4,14.6-13.1,22.3c-6.7,13.9-13,27-28.3,31.8
					c-6.3,2-15.2,1.6-24.7,1.1c-10.1-0.5-20.6-1-26.8,1.8c-10.4,4.6-19.1,17.3-27.6,29.6c-5.4,7.9-10.5,15.3-15.9,20.4
					c-8,7.6-28.1,8.1-51.5,8.7c-27.5,0.6-58.6,1.4-74.5,14.4C385.9,509.4,365.3,539.3,363.5,561.9z"/>
			</g>
			<path style="clip-path:url(#SVGID_00000140711673447627826420000016819816693435637402_);fill:#FFFFFF;" d="M390.5,538.2
				c20.3-25.7,38.4-53.7,70.1-61.8c20.3-5.2,53.2,2.7,70.6-8.8c22.1-14.6,34.1-37.2,64-35.6c10.7,0.6,21.1,4.1,31.8,4
				c14.9-0.1,22.7-9.2,29.3-21.3c5.3-9.8,9.7-20.3,17.1-28.6c16.5-18.2,33.9-5.9,54.1-9.7c11.3-2.1,22-13.6,28.5-22.5
				c9.1-12.6,15.5-27.2,26.5-38.1c11-10.9,29.1-17.2,42.1-8.8v220.6L390.5,538.2z"/>
			<g style="opacity:0.6279;clip-path:url(#SVGID_00000140711673447627826420000016819816693435637402_);">
				<path class="st7" d="M-41.7,401.7c64.2,55.5,103.5,91.2,141.4,2.8c37.9-88.4,54.2-217.1,116.8-211.3
					c62.6,5.8,166.8,169,219.5,136.3S447.2,101.2,499,73.1c51.8-28.1,136.4,126.5,182.3,104c45.9-22.5,34.1-238.3,121.3-276.6"/>
				<path class="st8" d="M-44.3,405c63.2,54.3,102.2,87.6,139.5,1.6c21.7-49.5,36.4-111.8,56.4-154.8c15-32.4,33.4-54,60.1-51.6
					c62,5.7,164.5,162.9,217.1,131.4c52.3-31.5,14.5-221.8,66.2-251.3c51-29.1,133.8,117.4,179.4,95.1
					c48-23.3,43.3-234.9,128.9-275.9"/>
				<path class="st9" d="M-46.9,408.4c62.2,53.1,100.6,83.9,137.7,0.3c21.6-48.7,36.7-109.9,56.6-151.7
					c14.9-31.5,33.2-52.2,59.7-49.8c61.3,5.5,162.2,157,214.8,126.6c52-30.1,17.6-215.4,69.4-246.3c50.3-30,131.2,108.2,176.6,86.1
					c50.1-24.2,52.4-231.5,136.5-275.2"/>
				<path class="st10" d="M-49.6,411.7c61.2,52,99.2,80.3,135.9-0.9c21.7-47.8,37.1-108,56.8-148.6c14.7-30.5,33-50.4,59.3-48.1
					c60.6,5.4,159.9,151,212.4,121.8c51.7-28.8,20.8-208.9,72.5-241.2c49.5-30.9,128.5,99,173.8,77.2
					c52.1-25.1,61.6-228,144.1-274.4"/>
				<path class="st11" d="M-52.2,415.1c60.2,50.8,97.7,76.6,134.1-2.2c21.7-47,37.4-106,57-145.5c14.6-29.5,32.8-48.6,58.8-46.4
					c60,5.3,157.6,145,210.1,116.9c51.4-27.5,24-202.5,75.7-236.2c48.8-31.8,125.9,89.8,171,68.2c54.2-26,70.8-224.6,151.7-273.7"/>
				<path class="st12" d="M-54.9,418.4c59.2,49.7,96.3,73,132.3-3.4c21.7-46.2,37.8-104.1,57.2-142.4c14.5-28.5,32.6-46.9,58.4-44.6
					c59.3,5.1,155.3,139,207.8,112.1c51-26.2,27.2-196,78.8-231.1c48.1-32.7,123.3,80.6,168.2,59.2c56.3-26.8,79.9-221.2,159.3-273"
					/>
				<path class="st13" d="M-57.5,421.8c58.2,48.5,94.9,69.4,130.5-4.6c21.8-45.3,38.1-102.1,57.4-139.3c14.3-27.6,32.4-45.1,58-42.9
					c58.7,5,153,133,205.4,107.2c50.7-24.9,30.3-189.5,82-226.1c47.4-33.6,120.7,71.5,165.3,50.3c58.4-27.7,89.1-217.7,166.9-272.3"
					/>
				<path class="st14" d="M-60.1,425.1c57.2,47.4,93.5,65.8,128.7-5.9c21.8-44.5,38.4-100.2,57.5-136.2
					c14.2-26.6,32.2-43.3,57.6-41.2c58,4.9,150.7,126.9,203.1,102.4c50.3-23.6,33.5-183,85.1-221c46.7-34.4,118.1,62.3,162.5,41.3
					c60.5-28.6,98.3-214.3,174.5-271.6"/>
				<path class="st15" d="M-62.8,428.5c56.1,46.2,92.1,62.2,126.9-7.1c21.9-43.7,38.7-98.3,57.7-133.1c14-25.6,32.1-41.5,57.2-39.4
					c57.4,4.8,148.4,120.9,200.7,97.6c49.9-22.3,36.7-176.4,88.3-216c46-35.2,115.5,53.2,159.7,32.4C690.3,133.5,735.2-48,809.8-108
					"/>
				<path class="st16" d="M-65.4,431.8c55.1,45,90.7,58.6,125.1-8.4c22-42.8,39.1-96.3,57.9-129.9c13.8-24.7,31.9-39.7,56.7-37.7
					c56.7,4.6,146.1,114.9,198.4,92.7c49.6-21,39.9-169.9,91.4-210.9c45.3-36.1,112.9,44,156.9,23.4
					C685.7,130.8,737.6-46.3,810.8-109"/>
				<path class="st17" d="M-68.1,435.2c54.1,43.9,89.4,55,123.3-9.6c22-42,39.4-94.4,58.1-126.8c13.7-23.7,31.7-37.9,56.3-35.9
					c56,4.5,143.8,108.8,196,87.9c49.2-19.7,43.1-163.3,94.6-205.9c44.6-36.9,110.3,34.8,154,14.4c66.8-31.1,125.8-204,197.3-269.4"
					/>
				<path class="st18" d="M-70.7,438.5c53.1,42.7,88,51.4,121.5-10.8c22.1-41.1,39.7-92.5,58.3-123.7c13.5-22.7,31.5-36.1,55.9-34.2
					c55.4,4.4,141.5,102.8,193.7,83.1c48.8-18.5,46.4-156.7,97.7-200.8c43.9-37.7,107.7,25.7,151.2,5.5
					c68.9-32,135-200.5,204.9-268.7"/>
				<path class="st19" d="M-73.3,441.9c52.1,41.6,86.7,47.8,119.7-12.1c22.2-40.3,40-90.6,58.5-120.6c13.4-21.8,31.3-34.3,55.5-32.5
					C215,281,299.4,373.5,351.6,355c48.5-17.2,49.6-150.1,100.9-195.8c43.2-38.4,105.1,16.6,148.4-3.5
					c71-32.8,144.1-197.1,212.5-268"/>
				<path class="st20" d="M-76,445.3c51.1,40.4,85.4,44.2,117.8-13.3c22.3-39.5,40.3-88.6,58.7-117.5c13.2-20.8,31.1-32.5,55.1-30.7
					c54.1,4.1,136.8,90.7,189,73.4c48.1-15.9,52.9-143.5,104-190.7c42.6-39.2,102.5,7.4,145.6-12.4
					c73.1-33.6,153.3-193.7,220.1-267.3"/>
				<path class="st21" d="M-78.6,448.6c50.1,39.3,84,40.6,116-14.6c22.4-38.6,40.6-86.7,58.8-114.4c13-19.8,30.9-30.7,54.6-29
					c53.4,4,134.5,84.6,186.7,68.5c47.7-14.7,56.1-136.9,107.2-185.6c41.9-40,99.9-1.7,142.8-21.4C662.7,117.7,750-38,815.3-114.4"
					/>
				<path class="st22" d="M-81.2,452c49.1,38.1,82.7,37,114.2-15.8c22.5-37.7,40.9-84.8,59-111.3c12.9-18.9,30.7-28.9,54.2-27.2
					c52.8,3.9,132.2,78.5,184.3,63.7c47.3-13.5,59.4-130.3,110.3-180.6c41.3-40.7,97.3-10.9,139.9-30.4
					c77.3-35.3,171.7-186.8,235.4-265.9"/>
				<path class="st23" d="M-83.9,455.3c48.1,36.9,81.5,33.5,112.4-17c22.6-36.9,41.3-82.8,59.2-108.2c12.7-17.9,30.5-27.1,53.8-25.5
					c52.1,3.7,129.8,72.5,182,58.9C370.5,351.3,386.2,239.8,437,188c40.6-41.5,94.7-20,137.1-39.3c79.4-36.1,180.8-183.4,243-265.2"
					/>
				<path class="st24" d="M-86.5,458.7c47.1,35.8,80.2,29.9,110.6-18.3c22.7-36,41.6-80.9,59.4-105c12.5-16.9,30.3-25.4,53.4-23.8
					c51.4,3.6,127.5,66.4,179.6,54c46.5-11,66-117,116.7-170.5c40-42.2,92.1-29.1,134.3-48.3C649,109.9,757.4-33.1,818-117.6"/>
				<path class="st25" d="M-89.2,462c46,34.6,78.9,26.4,108.8-19.5c22.9-35.1,41.9-79,59.6-101.9c12.4-16,30.2-23.6,53-22
					c50.8,3.5,125.2,60.3,177.3,49.2c46.2-9.8,69.3-110.4,119.8-165.4c39.4-42.9,89.5-38.3,131.5-57.2
					c83.6-37.8,199.2-176.5,258.2-263.7"/>
				<path class="st26" d="M-91.8,465.4c45,33.5,77.7,22.8,107-20.8c23-34.3,42.1-77.1,59.8-98.8c12.2-15,30-21.8,52.5-20.3
					c50.1,3.3,122.8,54.1,174.9,44.4c45.8-8.6,72.6-103.7,123-160.4c38.8-43.7,86.9-47.4,128.6-66.2
					c85.8-38.6,208.3-173.1,265.8-263"/>
				<path class="st27" d="M-94.4,468.7c44,32.3,76.5,19.3,105.2-22c23.2-33.4,42.4-75.2,60-95.7c12-14.1,29.8-20,52.1-18.5
					c49.5,3.2,120.5,48,172.6,39.5c45.4-7.4,75.9-97.1,126.1-155.3c38.2-44.4,84.3-56.5,125.8-75.2c88-39.2,217.5-169.6,273.4-262.3
					"/>
				<path class="st28" d="M-97.1,472.1c43,31.2,75.2,15.8,103.4-23.2c23.4-32.4,42.7-73.3,60.1-92.6c11.8-13.1,29.6-18.2,51.7-16.8
					c48.8,3.1,118.2,41.9,170.3,34.7c45-6.2,79.3-90.4,129.3-150.3c37.6-45.1,81.7-65.6,123-84.1c90.1-40,226.7-166.2,281-261.6"/>
				<path class="st29" d="M-99.7,475.4c42,30,74,12.3,101.6-24.5c23.6-31.5,43-71.4,60.3-89.5c11.6-12.2,29.4-16.4,51.3-15.1
					c48.2,3,115.8,35.7,167.9,29.9c44.6-5,82.7-83.7,132.4-145.2c37.1-45.8,79.1-74.8,120.2-93.1c92.2-40.9,235.9-162.8,288.6-260.9
					"/>
				<path class="st30" d="M-102.3,478.8c41,28.8,72.9,8.8,99.8-25.7c23.8-30.6,43.3-69.5,60.5-86.4c11.4-11.2,29.2-14.6,50.9-13.3
					c47.5,2.8,113.5,29.6,165.6,25c44.2-3.9,86-77,135.6-140.2c36.5-46.6,76.5-83.9,117.4-102c94.3-41.7,245-159.3,296.2-260.1"/>
				<path class="st31" d="M-105,482.1c76.6,53,122.8-77.4,158.6-110.2c35.9-32.8,137.8,13.3,213.7,8.6
					c75.9-4.7,156.9-203.6,253.2-246.1S774.8-21.5,824.4-125"/>
			</g>
			<path style="clip-path:url(#SVGID_00000140711673447627826420000016819816693435637402_);fill:#F8F9F9;" d="M-67.7,180.5
				c20.3,6.6,42.5-1.2,61.1-11.5c18.6-10.4,41.6-35.1,62.2-40.6c38.5-10.2,75.6,19.6,113,6c30.8-11.2,44-47.1,75.8-54.7
				c24.2-5.8,59.7,7.7,81.5-4.4c12.2-6.8,23.4-26.7,34.9-34.8c11.8-8.3,20.4-11.2,34.4-14.3c14.1-3.1,31.5,0.8,43.1-7.7
				C450.1,9.9,458.1-5.2,454-19H-46.6L-67.7,180.5z"/>
			<path style="clip-path:url(#SVGID_00000140711673447627826420000016819816693435637402_);fill:#FFFFFF;" d="M-16.4,102.3
				c11.3,16.4,35.6,16.6,54.7,10.8c19.1-5.7,37.8-15.7,57.6-13.7c18,1.8,35.7,13.5,52.8,7.9c24-7.8,28-42.6,50-54.9
				c16.3-9.1,36.7-2.8,55.3-5.2c29-3.8,52.6-32.3,50.8-61.5H-5L-16.4,102.3z"/>
			<path style="clip-path:url(#SVGID_00000140711673447627826420000016819816693435637402_);fill:#FFFFFF;" d="M57,265.2
				c-0.8-0.1-1.4-0.5-1.4-1.3c0-0.8,0.5-1.3,1.3-1.3c0.8,0,1.2,0.5,1.3,1.2C58.3,264.6,57.8,265,57,265.2z M-18.3,330.1
				c-0.7,0-1.2,0.4-1.3,1.1c-0.1,0.8,0.4,1.3,1.2,1.4c0.8,0.1,1.2-0.4,1.4-1.2C-17.1,330.7-17.5,330.1-18.3,330.1z M-10.9,330.1
				c-0.7,0.1-1.2,0.5-1.1,1.2c0,0.8,0.5,1.3,1.3,1.2c0.8,0,1.2-0.5,1.2-1.3C-9.7,330.6-10.2,330.1-10.9,330.1z M-78.3,277.5
				c-0.8,0-1.3,0.4-1.3,1.2c0,0.7,0.4,1.2,1.1,1.2c0.8,0,1.2-0.4,1.3-1.2C-77.2,278-77.6,277.5-78.3,277.5z M-4.4,331.4
				c0,0.7,0.5,1.2,1.2,1.2c0.8,0,1.3-0.4,1.3-1.2c0-0.8-0.5-1.2-1.2-1.3C-3.9,330.2-4.4,330.6-4.4,331.4z M3.1,331.5
				c0.1,0.7,0.6,1.1,1.3,1.1c0.8-0.1,1.2-0.6,1.1-1.3c-0.1-0.7-0.6-1.1-1.3-1.1C3.5,330.3,3,330.7,3.1,331.5z M-70.9,292.6
				c-0.8,0-1.3,0.5-1.2,1.3c0,0.7,0.5,1.2,1.2,1.2c0.8,0,1.2-0.5,1.3-1.2C-69.8,293.1-70.2,292.6-70.9,292.6z M-70.9,224.8
				c-0.8,0-1.3,0.5-1.2,1.3c0,0.8,0.6,1.2,1.3,1.2c0.7-0.1,1.1-0.6,1.1-1.2C-69.8,225.3-70.2,224.8-70.9,224.8z M58.2,233.4
				c-0.1-0.7-0.5-1.1-1.3-1.1c-0.8,0-1.2,0.5-1.2,1.3c0.1,0.7,0.5,1.1,1.2,1.1C57.8,234.6,58.2,234.2,58.2,233.4z M42,212.4
				c0.8,0,1.3-0.5,1.2-1.2c0-0.8-0.5-1.2-1.3-1.2c-0.7,0-1.1,0.5-1.1,1.2C40.9,211.9,41.3,212.4,42,212.4z M-34.4,196.1
				c0,0.7,0.5,1.2,1.2,1.2c0.8,0,1.3-0.5,1.3-1.3c0-0.8-0.5-1.2-1.3-1.3C-34,194.9-34.5,195.3-34.4,196.1z M-77.2,271.4
				c0.1-0.8-0.4-1.3-1.2-1.3c-0.7,0-1.2,0.4-1.3,1.1c-0.1,0.8,0.4,1.2,1.2,1.4C-77.7,272.4-77.2,272.1-77.2,271.4z M-78.4,254.9
				c-0.7,0-1.2,0.4-1.2,1.1c-0.1,0.8,0.4,1.3,1.2,1.3c0.8,0.1,1.2-0.5,1.3-1.2C-77.2,255.4-77.6,254.9-78.4,254.9z M34.4,202.2
				c-0.8,0-1.3,0.4-1.3,1.2c0,0.7,0.5,1.2,1.1,1.2c0.8,0,1.2-0.5,1.3-1.2C35.5,202.8,35.1,202.3,34.4,202.2z M-77.1,263.6
				c0-0.7-0.4-1.2-1.1-1.3c-0.8-0.1-1.3,0.4-1.4,1.2c-0.1,0.8,0.4,1.2,1.2,1.4C-77.7,264.7-77.2,264.3-77.1,263.6z M49.6,217.4
				c-0.8,0-1.3,0.4-1.3,1.2c0,0.7,0.4,1.2,1.1,1.2c0.8,0,1.2-0.4,1.3-1.2C50.7,217.9,50.3,217.4,49.6,217.4z M-25.8,187.4
				c-0.7,0-1,0.5-1,1.1c0,0.7,0.4,1.2,1.2,1.1c0.7,0,1.1-0.5,1.1-1.2C-24.7,187.8-25.1,187.4-25.8,187.4z M55.8,226.1
				c0,0.7,0.5,1.1,1.2,1.1c0.7,0,1-0.5,1-1.1c0-0.7-0.4-1.1-1.2-1.2C56.2,225,55.8,225.4,55.8,226.1z M64.4,270.1
				c-0.7,0-1.2,0.5-1.2,1.2s0.5,1.2,1.2,1.2c0.7,0,1.1-0.5,1.2-1.2C65.5,270.5,65.1,270.1,64.4,270.1z M41.8,315.3
				c-0.7,0-1.1,0.4-1.1,1.1c0,0.7,0.4,1.2,1.1,1.2c0.7,0,1.1-0.4,1.2-1.1C42.9,315.7,42.5,315.3,41.8,315.3z M64.4,262.7
				c-0.7,0-1.2,0.5-1.2,1.2s0.5,1.2,1.2,1.2c0.7,0,1.1-0.5,1.2-1.2C65.5,263.1,65.1,262.6,64.4,262.7z M-79.5,233.6
				c0,0.7,0.5,1.1,1.2,1.1c0.7,0,1-0.5,1-1.1c0-0.7-0.5-1.1-1.2-1.1C-79.2,232.4-79.6,232.9-79.5,233.6z M-78.4,240.1
				c-0.7,0-1.2,0.5-1.1,1.2c0,0.7,0.5,1.2,1.2,1.1c0.7,0,1.1-0.5,1.1-1.2C-77.3,240.5-77.7,240-78.4,240.1z M-48.4,322.7
				c-0.7,0-1.2,0.5-1.1,1.2c0,0.7,0.5,1.2,1.2,1.1c0.7,0,1.1-0.5,1.1-1.2C-47.2,323.2-47.7,322.7-48.4,322.7z M34.4,325
				c0.7,0,1-0.5,1-1.1c0-0.7-0.4-1.2-1.2-1.1c-0.7,0-1.1,0.5-1.1,1.2C33.3,324.7,33.7,325.1,34.4,325z M19.4,330.2
				c-0.7,0-1.1,0.5-1.1,1.2c0,0.7,0.5,1,1.1,1c0.7,0,1.1-0.5,1.1-1.2C20.5,330.6,20.1,330.2,19.4,330.2z M12.9,331.3
				c0-0.7-0.5-1.1-1.2-1.1c-0.7,0-1.1,0.5-1.1,1.2c0,0.7,0.5,1.1,1.2,1.1C12.5,332.4,13,332,12.9,331.3z M-32,331.4
				c0-0.7-0.4-1.2-1.2-1.2c-0.7,0-1.2,0.4-1.2,1.2c0,0.7,0.4,1.1,1.2,1.2C-32.5,332.5-32,332.1-32,331.4z M55.8,293.9
				c0,0.7,0.4,1.2,1.2,1.2c0.7,0,1.2-0.4,1.2-1.2c0-0.7-0.4-1.1-1.2-1.2C56.3,292.8,55.8,293.1,55.8,293.9z M-56.9,203.5
				c0,0.7,0.4,1.1,1,1.1c0.7,0,1.2-0.3,1.2-1.1c0-0.7-0.4-1.1-1.1-1.2C-56.5,202.4-56.9,202.7-56.9,203.5z M-70.9,300.2
				c-0.7,0-1.1,0.4-1.1,1c-0.1,0.7,0.3,1.2,1.1,1.2c0.7,0,1.1-0.4,1.2-1.1C-69.8,300.6-70.2,300.2-70.9,300.2z M-64.4,210.9
				c0,0.7,0.4,1.1,1,1.1c0.7,0,1.2-0.3,1.2-1.1c0-0.7-0.4-1.1-1.1-1.2C-63.9,209.8-64.4,210.2-64.4,210.9z M-78.4,285
				c-0.7,0-1.1,0.4-1.1,1.1c0,0.7,0.4,1.2,1.1,1.2c0.7,0,1.1-0.4,1.2-1.1C-77.3,285.4-77.7,285-78.4,285z M25.8,196.1
				c0,0.7,0.5,1.1,1.2,1.1c0.7,0,1-0.5,1-1.1c0-0.7-0.4-1.1-1.2-1.2C26.2,194.9,25.8,195.3,25.8,196.1z M-42.1,196.1
				c0,0.7,0.5,1.2,1.2,1.1c0.7,0,1.2-0.5,1.1-1.2c0-0.7-0.5-1.1-1.2-1.1C-41.7,194.9-42.1,195.3-42.1,196.1z M-62.3,308.7
				c0-0.7-0.5-1.1-1.2-1.1c-0.7,0-1.1,0.5-1.1,1.2c0,0.7,0.5,1.1,1.2,1.1C-62.7,309.8-62.3,309.4-62.3,308.7z M65.5,278.6
				c0-0.7-0.5-1-1.1-1c-0.7,0-1.2,0.4-1.1,1.2c0,0.7,0.5,1.1,1.2,1.1C65.2,279.8,65.6,279.3,65.5,278.6z M49.4,307.6
				c-0.7,0-1,0.5-1,1.1c0,0.7,0.4,1.2,1.2,1.1c0.7,0,1.1-0.5,1.1-1.2C50.6,308,50.2,307.6,49.4,307.6z M-17.1,188.5
				c0-0.7-0.5-1.2-1.2-1.1c-0.7,0-1.2,0.5-1.1,1.2c0,0.7,0.5,1.1,1.2,1.1C-17.5,189.7-17.1,189.3-17.1,188.5z M-49.4,331.3
				c0,0.7,0.4,1.1,1.1,1.1c0.6,0,1-0.4,1-1c0-0.7-0.4-1-1.1-1.1C-48.9,330.4-49.4,330.7-49.4,331.3z M-55.7,332.3
				c0.5,0,0.9-0.4,0.9-1c0-0.6-0.4-1-1-0.9c-0.5,0-0.8,0.4-0.9,1C-56.6,332-56.3,332.4-55.7,332.3z M26,338.8c0,0.6,0.4,1,1,1
				c0.6,0,1-0.4,0.9-1c0-0.5-0.4-0.8-1-0.9C26.4,337.9,26,338.2,26,338.8z M20.5,338.9c0-0.7-0.4-1.1-1.1-1.1c-0.6,0-1,0.4-1,1
				c0,0.6,0.4,0.9,1,1C20,339.8,20.5,339.5,20.5,338.9z M10.7,338.7c-0.1,0.7,0.3,1.1,1,1.2c0.6,0.1,1-0.3,1.1-0.9
				c0.1-0.7-0.3-1.1-1-1.2C11.2,337.8,10.8,338.1,10.7,338.7z M-19.2,346.4c0,0.6,0.3,1,0.9,1c0.5,0,0.9-0.3,1-0.9
				c0-0.6-0.3-1-0.9-1.1C-18.8,345.6-19.2,345.9-19.2,346.4z M4.3,337.7c-0.7,0-1.1,0.4-1,1.1c0,0.7,0.4,1.1,1.1,1
				c0.7,0,1-0.4,1.1-1.1C5.3,338.1,5,337.7,4.3,337.7z M-2,338.8c0-0.7-0.4-1.1-1.1-1.1c-0.7,0-1.1,0.4-1.1,1.2c0,0.7,0.5,1,1.2,1
				C-2.4,339.8-2,339.5-2,338.8z M-10.9,339.9c0.7,0,1.1-0.4,1.1-1c0-0.7-0.4-1.2-1.1-1.1c-0.7,0-1,0.4-1.1,1.1
				C-11.9,339.5-11.5,339.9-10.9,339.9z M-19.4,338.9c0,0.7,0.5,1,1.1,1c0.7,0,1-0.5,1-1.1c0-0.7-0.5-1-1.2-1
				C-19,337.9-19.4,338.2-19.4,338.9z M-25.8,337.7c-0.7,0-1,0.5-1,1.1c0,0.7,0.5,1,1.1,1c0.7,0,1-0.5,1-1.1
				C-24.8,338.1-25.1,337.7-25.8,337.7z M-33.2,339.8c0.6,0,1-0.4,1-1c0-0.7-0.4-1.1-1-1.1c-0.6,0-0.9,0.4-1,1
				C-34.1,339.4-33.8,339.8-33.2,339.8z M-39.9,338.8c0-0.5-0.4-0.9-0.9-0.9c-0.6,0-1,0.4-1,1c0,0.6,0.4,0.9,1,1
				C-40.3,339.7-39.9,339.4-39.9,338.8z M-10.8,345.6c-0.6,0-1,0.3-1,1c0,0.5,0.4,0.9,0.9,0.9c0.6,0,0.9-0.4,1-0.9
				C-9.9,346-10.2,345.6-10.8,345.6z M-3.2,345.6c-0.5,0-0.9,0.4-0.9,1c0,0.6,0.4,1,1,0.9c0.5,0,0.8-0.4,0.9-1
				C-2.3,345.9-2.6,345.5-3.2,345.6z M4.4,347.5c0.5,0,0.9-0.4,0.9-1c0-0.6-0.4-1-1-0.9c-0.5,0-0.8,0.4-0.9,1
				C3.4,347.1,3.8,347.5,4.4,347.5z M-93.4,262.6c-0.6-0.1-1,0.3-1.1,0.9c0,0.5,0.3,0.9,0.9,1c0.6,0.1,1-0.3,1.1-0.9
				C-92.6,263-92.9,262.7-93.4,262.6z M-85.9,262.5c-0.7,0-1.1,0.4-1,1.1c0,0.7,0.4,1.1,1.1,1c0.7,0,1-0.4,1.1-1.2
				C-84.9,262.9-85.2,262.5-85.9,262.5z M-84.8,248.7c0-0.7-0.4-1.1-1-1.1c-0.7,0-1.1,0.4-1.1,1c0,0.7,0.4,1,1,1.1
				C-85.2,249.7-84.8,249.4-84.8,248.7z M73.1,248.6c0-0.6-0.4-1-1-1c-0.7,0-1.1,0.4-1,1.1c0,0.6,0.5,0.9,1.1,1
				C72.7,249.6,73.2,249.3,73.1,248.6z M72.2,262.8c-0.7-0.1-1.1,0.3-1.2,1c0,0.6,0.3,1,0.9,1.1c0.7,0.1,1.1-0.3,1.2-1
				C73.1,263.3,72.8,262.8,72.2,262.8z M71.1,241.2c0,0.6,0.4,0.9,0.9,1c0.6,0,1-0.3,1.1-0.9c0-0.6-0.4-0.9-1-1.1
				C71.5,240.3,71.1,240.6,71.1,241.2z M-85.8,240.2c-0.7,0-1.1,0.4-1.1,1.1c0,0.6,0.4,1,1,1c0.7,0,1-0.4,1.1-1.2
				C-84.9,240.6-85.2,240.2-85.8,240.2z M71.1,256.1c0,0.7,0.4,1.1,1.1,1.1c0.6,0,1-0.4,1-1c0-0.7-0.4-1-1.1-1.1
				C71.5,255.1,71.1,255.5,71.1,256.1z M-85.9,255c-0.7,0-1.1,0.4-1,1.1c0,0.7,0.4,1.1,1.1,1c0.7,0,1-0.4,1.1-1.2
				C-84.9,255.5-85.2,255-85.9,255z M-93.5,255.2c-0.6,0-1,0.3-1,1c0,0.5,0.4,0.9,0.9,0.9c0.6,0,0.9-0.4,1-0.9
				C-92.6,255.6-92.9,255.2-93.5,255.2z M34.4,330.3c-0.6,0-1,0.4-1,1c0,0.7,0.4,1.1,1.1,1.1c0.6,0,0.9-0.4,1-1
				C35.3,330.8,35,330.3,34.4,330.3z M25.9,331.3c0,0.7,0.4,1.1,1,1.1c0.7,0,1.1-0.4,1.1-1c0-0.7-0.4-1-1-1.1
				C26.3,330.3,25.9,330.6,25.9,331.3z M-39.8,331.3c0-0.7-0.4-1.1-1.1-1.1c-0.7,0-1.1,0.4-1.1,1.2c0,0.7,0.5,1,1.2,1
				C-40.2,332.4-39.8,332-39.8,331.3z M-55.7,195c-0.6-0.1-1,0.3-1.1,0.9c-0.1,0.7,0.3,1.1,1,1.1c0.6,0,0.9-0.4,1.1-1
				C-54.8,195.5-55.1,195.1-55.7,195z M-49.4,195.9c0,0.7,0.3,1.1,1,1.2c0.7,0.1,1.2-0.3,1.2-1.1c0-0.7-0.4-1-1-1.1
				C-49,194.9-49.4,195.3-49.4,195.9z M34.4,195c-0.7,0-1.1,0.4-1.1,1.1c0,0.7,0.4,1.1,1.1,1.1c0.7,0,1-0.4,1.1-1.1
				C35.4,195.4,35,194.9,34.4,195z M42,195c-0.5,0-0.9,0.4-0.9,0.9c0,0.6,0.4,1,1,1c0.6,0,0.9-0.4,1-1C43,195.4,42.6,195,42,195z
				 M55.9,308.6c-0.1,0.7,0.3,1.1,1,1.2c0.6,0,1-0.3,1.1-0.9c0.1-0.7-0.3-1.1-1-1.2C56.4,307.7,56,308,55.9,308.6z M-86.9,286.1
				c0,0.6,0.4,1,1,1c0.7,0,1.1-0.4,1.1-1.1c0-0.6-0.4-0.9-1.1-1C-86.4,285.2-86.8,285.5-86.9,286.1z M-69.9,308.8
				c0-0.7-0.4-1.1-1.1-1.1c-0.7,0-1.1,0.4-1.1,1.1c0,0.7,0.4,1,1.1,1.1C-70.3,309.8-69.9,309.4-69.9,308.8z M-64.6,316.2
				c0,0.7,0.4,1.1,1.1,1.1c0.7,0,1.1-0.4,1.1-1.1c0-0.7-0.4-1-1.1-1.1C-64.2,315.2-64.6,315.5-64.6,316.2z M-78.5,307.8
				c-0.5,0.1-0.9,0.5-0.8,1c0.1,0.6,0.5,1,1.1,0.9c0.5-0.1,0.8-0.5,0.9-1C-77.5,308.1-77.9,307.7-78.5,307.8z M65.5,286.2
				c0-0.7-0.4-1.1-1-1.1c-0.7,0-1.1,0.4-1.1,1.1c0,0.7,0.4,1,1.1,1.1C65.1,287.2,65.5,286.8,65.5,286.2z M72.2,287.1
				c0.6-0.1,1-0.5,0.9-1.1c-0.1-0.5-0.5-0.9-1-0.9c-0.6,0-0.9,0.4-1,1C71.2,286.8,71.6,287.2,72.2,287.1z M57,210.2
				c-0.6,0-1,0.3-1.1,0.9c-0.1,0.7,0.3,1.1,1,1.1c0.6,0,0.9-0.4,1-1C57.9,210.6,57.6,210.2,57,210.2z M-84.8,278.8
				c0-0.7-0.4-1.1-1-1.1c-0.6,0-1,0.4-1,1c0,0.7,0.4,1,1,1.1C-85.2,279.7-84.8,279.4-84.8,278.8z M48.4,211.1c0,0.7,0.3,1.1,1,1.2
				c0.7,0.1,1.2-0.3,1.2-1.1c0-0.7-0.4-1-1-1.1C48.9,210.1,48.5,210.4,48.4,211.1z M71.1,271.2c0,0.6,0.3,1,0.9,1.1
				c0.7,0.1,1.1-0.3,1.1-1c0-0.6-0.4-0.9-1-1C71.6,270.3,71.1,270.6,71.1,271.2z M-85.9,270.2c-0.7,0-1.1,0.4-1,1.1
				c0,0.7,0.4,1.1,1.1,1c0.7,0,1-0.4,1.1-1.1C-84.8,270.6-85.2,270.2-85.9,270.2z M-93.6,270.3c-0.5,0.1-0.9,0.4-0.8,1
				c0,0.6,0.4,1,1.1,0.9c0.5-0.1,0.8-0.4,0.9-1C-92.7,270.6-93,270.3-93.6,270.3z M50.6,316.5c0-0.7-0.4-1.1-1-1.1c-0.6,0-1,0.4-1,1
				c0,0.7,0.4,1,1,1.1C50.1,317.5,50.5,317.1,50.6,316.5z M56,316.4c0,0.6,0.3,1,0.9,1c0.5,0,0.9-0.3,1-0.9c0-0.6-0.3-1-0.9-1.1
				C56.4,315.6,56.1,315.9,56,316.4z M19.6,179.9c-0.6-0.1-1,0.3-1.1,0.9c0,0.5,0.3,0.9,0.9,1c0.6,0.1,1-0.3,1.1-0.9
				C20.4,180.3,20.1,180,19.6,179.9z M34.3,187.6c-0.5,0-0.9,0.4-0.9,1c0,0.6,0.4,1,1,0.9c0.5,0,0.8-0.4,0.9-1
				C35.2,188,34.9,187.6,34.3,187.6z M26.9,187.5c-0.6,0-1,0.4-1,1c0,0.7,0.4,1.1,1.1,1.1c0.6,0,0.9-0.4,1-1
				C27.9,187.9,27.5,187.5,26.9,187.5z M18.4,188.6c0,0.7,0.4,1.1,1.1,1.1c0.7,0,1.1-0.4,1.1-1.1c0-0.7-0.4-1-1.1-1.1
				C18.8,187.6,18.4,187.9,18.4,188.6z M-33.2,187.5c-0.7,0-1.1,0.4-1.1,1c0,0.7,0.4,1.2,1.1,1.1c0.7,0,1-0.4,1.1-1.1
				C-32.1,187.9-32.5,187.5-33.2,187.5z M-39.8,188.6c0-0.7-0.4-1.1-1.1-1.1c-0.6,0-1,0.4-1,1c0,0.7,0.4,1,1.1,1.1
				C-40.3,189.5-39.9,189.2-39.8,188.6z M-49.3,188.6c0,0.6,0.4,0.9,0.9,1c0.6,0.1,1-0.3,1.1-0.9c0-0.6-0.4-1-1-1.1
				C-48.9,187.6-49.3,188-49.3,188.6z M64.5,217.7c-0.6,0-1,0.3-1,0.9c0,0.5,0.3,0.9,0.9,1c0.6,0,1-0.3,1.1-1
				C65.3,218.1,65,217.7,64.5,217.7z M55.9,218.6c0,0.7,0.4,1.1,1,1.1c0.7,0,1.1-0.4,1.1-1c0-0.7-0.4-1-1.1-1.1
				C56.4,217.6,55.9,217.9,55.9,218.6z M-72,218.6c0,0.7,0.4,1.1,1,1.1c0.7,0,1.2-0.4,1.1-1.1c0-0.7-0.4-1-1.1-1.1
				C-71.6,217.6-72,217.9-72,218.6z M-78.4,217.6c-0.6,0-1,0.4-1,1c0,0.7,0.4,1.1,1,1.1c0.6,0,0.9-0.4,1-1
				C-77.4,218-77.7,217.6-78.4,217.6z M-85.9,225.1c-0.5,0.1-0.9,0.4-0.8,1c0,0.6,0.4,1,1.1,0.9c0.5-0.1,0.8-0.4,0.9-1
				C-85,225.4-85.3,225-85.9,225.1z M-79.4,226c0,0.7,0.3,1.1,1,1.1c0.7,0,1.1-0.3,1.1-1c0-0.7-0.4-1-1-1.1
				C-79,225-79.4,225.3-79.4,226z M63.4,226.1c0,0.6,0.4,1,1,1c0.7,0,1.1-0.4,1.1-1.1c0-0.6-0.4-0.9-1-1
				C63.8,225.1,63.4,225.4,63.4,226.1z M-70.9,315.2c-0.6,0-0.9,0.4-1,0.9c-0.1,0.6,0.3,1,0.9,1.1c0.6,0,1-0.4,1.1-1
				C-70,315.7-70.3,315.2-70.9,315.2z M64.4,300.3c-0.6,0-0.9,0.4-1,0.9c-0.1,0.6,0.3,1,0.9,1.1c0.6,0,1-0.4,1.1-1
				C65.3,300.8,65,300.3,64.4,300.3z M55.9,301.2c0,0.7,0.3,1.1,1,1.2c0.7,0.1,1.2-0.3,1.2-1.1c0-0.7-0.4-1-1.1-1.1
				C56.4,300.3,55.9,300.6,55.9,301.2z M-77.3,301.3c0-0.7-0.4-1.1-1.1-1c-0.6,0-1,0.4-1,1c0,0.7,0.4,1,1.1,1.1
				C-77.7,302.3-77.3,301.9-77.3,301.3z M-62.3,196c0-0.6-0.4-1-1-1c-0.6,0-1,0.5-0.9,1.1c0.1,0.5,0.5,0.8,1,0.8
				C-62.6,196.9-62.3,196.6-62.3,196z M-55.8,322.9c-0.7,0-1,0.5-1,1.1c0,0.7,0.5,1,1.1,1c0.7,0,1-0.5,1-1.1
				C-54.8,323.2-55.2,322.8-55.8,322.9z M-63.5,322.9c-0.5,0-0.9,0.4-0.9,0.9c0,0.6,0.4,1,1,1c0.6,0,0.9-0.4,1-1
				C-62.6,323.3-62.9,322.9-63.5,322.9z M42.8,323.9c0-0.7-0.4-1.1-1.1-1.1c-0.6,0-1,0.4-1,1c0,0.7,0.4,1,1.1,1.1
				C42.4,324.9,42.8,324.6,42.8,323.9z M50.5,203.5c0-0.6-0.4-1-0.9-1.1c-0.7,0-1.1,0.4-1.1,1c0,0.6,0.4,0.9,1,1
				C50.1,204.4,50.5,204.1,50.5,203.5z M49.6,323c-0.6,0-1,0.4-1,1c0,0.5,0.4,0.9,0.9,0.9c0.6,0,0.9-0.4,1-1
				C50.4,323.4,50.1,323,49.6,323z M43.2,203.5c0-0.7-0.3-1.1-1-1.1c-0.7,0-1.2,0.3-1.2,1.1c0,0.7,0.4,1,1.1,1.1
				C42.7,204.5,43.1,204.2,43.2,203.5z M-64.3,203.4c0,0.7,0.4,1.1,1.1,1.1c0.6,0,1-0.4,1-1c0-0.7-0.4-1-1.1-1.1
				C-63.8,202.5-64.3,202.8-64.3,203.4z M-84.8,293.8c0-0.6-0.4-0.9-0.9-1c-0.6,0-1,0.4-1.1,1c0,0.6,0.4,0.9,1,1
				C-85.2,294.8-84.8,294.5-84.8,293.8z M-70,203.5c0.1-0.6-0.3-1-0.9-1c-0.5,0-0.9,0.3-1,0.9c-0.1,0.6,0.3,1,0.9,1.1
				C-70.4,204.4-70,204.1-70,203.5z M-78.3,292.8c-0.7,0-1.1,0.3-1.1,1c0,0.7,0.3,1.2,1.1,1.2c0.7,0,1-0.4,1.1-1.1
				C-77.3,293.2-77.7,292.8-78.3,292.8z M64.5,292.8c-0.7,0-1.1,0.4-1.1,1c0,0.6,0.4,1,1,1.1c0.7,0,1-0.4,1.1-1
				C65.4,293.3,65.1,292.9,64.5,292.8z M12.8,180.9c0-0.6-0.3-0.9-0.9-1c-0.6-0.1-1,0.3-1.1,0.9c-0.1,0.6,0.3,1,1,1.1
				C12.3,181.8,12.7,181.5,12.8,180.9z M3.3,180.8c0,0.6,0.4,1,1,1c0.7,0,1.1-0.4,1.1-1.1c0-0.6-0.4-0.9-1-1
				C3.7,179.9,3.3,180.2,3.3,180.8z M-3.1,179.8c-0.6,0-1,0.4-1.1,0.9c0,0.7,0.4,1.1,1,1.1c0.6,0,0.9-0.4,1-1
				C-2.2,180.3-2.5,179.9-3.1,179.8z M-11.6,180.8c0,0.7,0.3,1.1,1,1.1c0.6,0,1-0.4,1.1-1c0.1-0.7-0.4-1-1.1-1.2
				C-11.1,179.9-11.6,180.1-11.6,180.8z M-72,210.9c0,0.7,0.4,1.1,1.1,1.1c0.6,0,1-0.4,1-1c0-0.7-0.4-1-1.2-1.1
				C-71.5,210-72,210.2-72,210.9z M-19.3,180.8c0,0.7,0.4,1.1,1,1.1c0.6,0,1-0.4,1-1c0-0.6-0.4-0.9-1-1.1
				C-18.9,179.9-19.3,180.2-19.3,180.8z M-24.7,180.8c0-0.6-0.4-0.9-0.9-1c-0.6,0-1,0.4-1.1,1c0,0.6,0.4,0.9,1,1
				C-25.1,181.8-24.7,181.4-24.7,180.8z M-33.3,179.9c-0.5,0.1-0.9,0.4-0.9,1c0,0.6,0.4,1,1.1,0.9c0.5-0.1,0.8-0.4,0.9-1
				C-32.3,180.2-32.7,179.8-33.3,179.9z M-85.8,232.5c-0.6,0-1,0.3-1.1,0.9c-0.1,0.7,0.3,1.1,1,1.1c0.6,0,0.9-0.4,1.1-1
				C-84.9,233-85.2,232.5-85.8,232.5z M63.3,233.5c0,0.7,0.3,1.1,1,1.1c0.7,0,1.1-0.3,1.1-1c0-0.7-0.4-1-1-1.1
				C63.8,232.5,63.4,232.8,63.3,233.5z M71.2,233.6c0.1,0.5,0.5,0.9,1,0.8c0.6-0.1,1-0.5,0.9-1.1c-0.1-0.5-0.5-0.8-1-0.9
				C71.5,232.7,71.1,233,71.2,233.6z M72.2,277.7c-0.6-0.1-1,0.3-1.1,0.9c-0.1,0.7,0.3,1.1,1,1.1c0.6,0,0.9-0.4,1.1-1
				C73.1,278.2,72.8,277.8,72.2,277.7z M-92.7,248.7c0-0.6-0.3-0.9-0.8-0.9c-0.5,0-0.8,0.3-0.9,0.8c0,0.6,0.3,0.9,0.8,1
				C-93,249.5-92.7,249.3-92.7,248.7z M-49.1,346.5c0,0.5,0.3,0.7,0.7,0.8c0.5,0,0.7-0.3,0.8-0.7c0-0.5-0.3-0.7-0.7-0.8
				C-48.7,345.8-49.1,346-49.1,346.5z M-101,249.4c0.5,0,0.7-0.3,0.8-0.7c0-0.5-0.3-0.7-0.7-0.8c-0.5,0-0.7,0.3-0.8,0.8
				C-101.7,249.1-101.5,249.4-101,249.4z M-93.4,225.3c-0.5-0.1-0.8,0.2-0.9,0.7c0,0.5,0.3,0.8,0.7,0.8c0.5,0.1,0.8-0.2,0.9-0.7
				C-92.8,225.6-93,225.3-93.4,225.3z M72.2,225.2c-0.5,0-0.9,0.2-0.9,0.7c-0.1,0.6,0.2,0.9,0.8,1c0.5,0,0.8-0.3,0.9-0.8
				C73,225.6,72.7,225.3,72.2,225.2z M41.9,338c-0.5,0-0.8,0.3-0.8,0.8c0,0.4,0.3,0.7,0.7,0.8c0.5,0,0.8-0.3,0.8-0.8
				C42.5,338.4,42.3,338,41.9,338z M33.5,338.8c0,0.5,0.2,0.8,0.8,0.9c0.6,0,0.9-0.3,0.9-0.9c0-0.5-0.3-0.8-0.8-0.8
				C33.9,338,33.6,338.2,33.5,338.8z M-48.3,337.9c-0.6,0-0.9,0.3-0.9,0.9c0,0.5,0.3,0.8,0.8,0.8c0.6,0,0.9-0.3,0.9-0.9
				C-47.5,338.2-47.8,337.9-48.3,337.9z M-55,338.8c0-0.5-0.3-0.7-0.7-0.8c-0.5,0-0.8,0.2-0.9,0.8c0,0.5,0.3,0.8,0.8,0.8
				C-55.3,339.6-55,339.3-55,338.8z M-40.9,172.7c-0.5,0-0.7,0.3-0.8,0.7c0,0.4,0.3,0.7,0.7,0.8c0.5,0,0.7-0.3,0.8-0.7
				C-40.2,173-40.4,172.7-40.9,172.7z M-18.3,172.6c-0.5,0-0.8,0.2-0.9,0.8c0,0.6,0.3,0.9,0.9,0.9c0.5,0,0.8-0.3,0.8-0.8
				C-17.5,172.9-17.7,172.6-18.3,172.6z M-33.1,172.6c-0.5,0-0.8,0.2-0.9,0.8c0,0.5,0.3,0.7,0.7,0.8c0.5,0.1,0.8-0.3,0.9-0.7
				C-32.4,173-32.7,172.7-33.1,172.6z M-93.5,293.1c-0.5,0-0.8,0.3-0.8,0.8c0,0.5,0.4,0.8,0.9,0.7c0.4-0.1,0.7-0.4,0.7-0.8
				C-92.8,293.4-93.1,293.1-93.5,293.1z M73,293.9c0-0.6-0.3-0.9-0.8-0.9c-0.5,0-0.8,0.3-0.9,0.8c0,0.6,0.3,0.9,0.9,1
				C72.6,294.7,73,294.5,73,293.9z M80.3,293.8c0-0.4-0.3-0.7-0.8-0.7c-0.4,0-0.7,0.3-0.7,0.8c0,0.4,0.3,0.7,0.8,0.7
				C80,294.5,80.3,294.3,80.3,293.8z M64.4,202.7c-0.4,0-0.7,0.3-0.7,0.8c0,0.4,0.3,0.7,0.8,0.7c0.4,0,0.7-0.3,0.7-0.8
				C65,203,64.8,202.7,64.4,202.7z M57,202.6c-0.6,0-0.9,0.3-0.9,0.8c0,0.5,0.3,0.8,0.8,0.9c0.6,0,0.9-0.3,1-0.9
				C57.8,203,57.6,202.6,57,202.6z M-78.3,202.7c-0.5,0-0.8,0.3-0.8,0.8c0,0.4,0.3,0.7,0.7,0.8c0.5,0,0.8-0.3,0.9-0.8
				C-77.7,203-77.9,202.7-78.3,202.7z M-25.7,172.6c-0.5,0-0.8,0.2-0.8,0.7c-0.1,0.5,0.2,0.9,0.7,0.9c0.5,0,0.8-0.2,0.9-0.8
				C-25,172.9-25.2,172.6-25.7,172.6z M4.3,353.2c-0.4,0-0.7,0.3-0.7,0.8c0,0.4,0.3,0.7,0.8,0.7c0.4,0,0.7-0.3,0.7-0.8
				C5,353.5,4.7,353.2,4.3,353.2z M-3,353.2c-0.5-0.1-0.8,0.2-0.9,0.7c0,0.5,0.2,0.8,0.7,0.8c0.5,0.1,0.8-0.2,0.9-0.7
				C-2.4,353.6-2.6,353.3-3,353.2z M-11.6,354.1c0.1,0.4,0.3,0.7,0.8,0.7c0.5,0,0.8-0.4,0.7-0.9c0-0.4-0.4-0.7-0.9-0.7
				C-11.3,353.3-11.7,353.5-11.6,354.1z M79.5,279.5c0.5,0,0.8-0.2,0.8-0.7c0.1-0.5-0.2-0.9-0.7-0.9c-0.5-0.1-0.8,0.2-0.9,0.7
				C78.8,279.2,79,279.5,79.5,279.5z M-92.7,278.8c0.1-0.6-0.2-0.9-0.8-1c-0.6,0-0.9,0.3-0.9,0.9c0,0.5,0.3,0.8,0.8,0.9
				C-93.1,279.6-92.7,279.3-92.7,278.8z M72.9,218.7c0.1-0.5-0.2-0.8-0.7-0.9c-0.5,0-0.8,0.2-0.8,0.7c-0.1,0.5,0.2,0.8,0.7,0.9
				C72.5,219.4,72.8,219.2,72.9,218.7z M-86.7,218.6c0,0.5,0.2,0.8,0.8,0.9c0.6,0,0.9-0.3,0.9-0.9c0-0.5-0.3-0.8-0.8-0.8
				C-86.3,217.8-86.6,218.1-86.7,218.6z M-17.5,354c0-0.5-0.3-0.7-0.7-0.8c-0.4,0-0.7,0.3-0.8,0.7c0,0.5,0.3,0.7,0.7,0.8
				C-17.9,354.7-17.6,354.4-17.5,354z M-25,353.9c0-0.4-0.3-0.7-0.8-0.7c-0.4,0-0.7,0.3-0.7,0.8c0,0.4,0.3,0.7,0.8,0.7
				C-25.3,354.6-25,354.4-25,353.9z M80.4,248.8c0-0.5-0.2-0.9-0.7-0.9c-0.6-0.1-0.9,0.2-1,0.8c0,0.5,0.3,0.8,0.8,0.9
				C80,249.5,80.3,249.3,80.4,248.8z M-85.1,210.9c0-0.5-0.3-0.7-0.7-0.8c-0.4,0-0.7,0.3-0.8,0.7c0,0.5,0.3,0.7,0.8,0.8
				C-85.4,211.6-85.1,211.4-85.1,210.9z M-41.7,346.4c0,0.5,0.2,0.8,0.8,0.9c0.5,0,0.7-0.3,0.8-0.7c0.1-0.5-0.3-0.8-0.7-0.9
				C-41.3,345.8-41.6,346-41.7,346.4z M-79.2,210.8c-0.1,0.6,0.2,0.9,0.8,1c0.6,0,0.9-0.3,0.9-0.9c0-0.5-0.3-0.8-0.9-0.9
				C-78.8,210-79.2,210.3-79.2,210.8z M64.4,212c0.5,0,0.8-0.3,0.8-0.8c0-0.6-0.3-0.9-0.9-0.9c-0.5,0-0.8,0.3-0.8,0.8
				C63.6,211.7,63.9,212,64.4,212z M-32.3,346.6c0-0.5-0.2-0.8-0.8-0.9c-0.6,0-0.9,0.3-0.9,0.9c0,0.5,0.3,0.8,0.8,0.8
				C-32.7,347.3-32.4,347.1-32.3,346.6z M80.3,286.2c0-0.5-0.3-0.8-0.8-0.8c-0.4,0-0.7,0.3-0.7,0.8c0,0.5,0.3,0.8,0.8,0.8
				C80,286.9,80.3,286.6,80.3,286.2z M-92.7,286.2c0-0.5-0.3-0.8-0.8-0.8c-0.6,0-0.9,0.3-0.9,0.9c0,0.5,0.4,0.8,0.9,0.8
				C-93,286.9-92.7,286.7-92.7,286.2z M-26.6,346.5c0,0.6,0.3,0.9,0.9,0.9c0.5,0,0.8-0.3,0.8-0.8c0-0.6-0.3-0.9-0.9-0.9
				C-26.3,345.7-26.6,345.9-26.6,346.5z M11.9,345.7c-0.6-0.1-0.9,0.2-1,0.8c0,0.6,0.3,0.9,0.9,0.9c0.5,0,0.8-0.3,0.9-0.9
				C12.6,346.1,12.4,345.7,11.9,345.7z M19.4,345.7c-0.5,0-0.7,0.3-0.8,0.7c0,0.5,0.2,0.8,0.8,0.9c0.5,0,0.8-0.3,0.8-0.9
				C20.2,346,20,345.7,19.4,345.7z M27.7,346.6c0-0.5-0.3-0.8-0.8-0.8c-0.4,0-0.7,0.3-0.8,0.7c0,0.5,0.3,0.8,0.8,0.8
				C27.4,347.2,27.7,347,27.7,346.6z M79.6,255.3c-0.5,0-0.9,0.2-0.9,0.7c0,0.6,0.2,0.9,0.8,0.9c0.5,0,0.8-0.3,0.9-0.9
				C80.4,255.7,80.2,255.3,79.6,255.3z M-101,255.4c-0.5,0-0.7,0.3-0.8,0.7c0,0.5,0.3,0.7,0.7,0.8c0.5,0,0.7-0.3,0.8-0.7
				C-100.3,255.7-100.5,255.4-101,255.4z M-92.7,233.5c0-0.5-0.3-0.7-0.7-0.8c-0.5,0-0.8,0.2-0.9,0.8c0,0.5,0.3,0.8,0.8,0.9
				C-93,234.3-92.7,234-92.7,233.5z M80.3,233.6c0.1-0.5-0.2-0.8-0.7-0.9c-0.5,0-0.8,0.2-0.8,0.7c-0.1,0.5,0.2,0.8,0.7,0.9
				C80,234.3,80.3,234,80.3,233.6z M-101,262.8c-0.4,0-0.7,0.3-0.7,0.8c0,0.4,0.3,0.7,0.8,0.7c0.4,0,0.7-0.3,0.7-0.8
				C-100.3,263.1-100.6,262.8-101,262.8z M79.6,263c-0.5,0-0.8,0.2-0.9,0.7c0,0.6,0.2,0.9,0.8,0.9c0.5,0,0.8-0.3,0.8-0.8
				C80.4,263.3,80.1,263,79.6,263z M80.4,241.2c0-0.5-0.3-0.7-0.7-0.8c-0.5,0-0.8,0.2-0.9,0.8c0,0.5,0.3,0.8,0.9,0.9
				C80.1,242,80.4,241.7,80.4,241.2z M-93.5,240.4c-0.5,0-0.8,0.3-0.8,0.8c0,0.6,0.3,0.9,0.9,0.9c0.5,0,0.8-0.3,0.8-0.8
				C-92.7,240.7-93,240.4-93.5,240.4z M-55.7,180.1c-0.5,0-0.7,0.3-0.8,0.7c0,0.4,0.3,0.7,0.7,0.8c0.5,0,0.7-0.3,0.8-0.7
				C-55.1,180.4-55.3,180.1-55.7,180.1z M-48.3,180.1c-0.5,0-0.8,0.3-0.8,0.7c0,0.5,0.2,0.9,0.7,0.9c0.5,0,0.8-0.3,0.9-0.8
				C-47.6,180.4-47.8,180.1-48.3,180.1z M-40,180.9c0-0.6-0.3-0.9-0.8-0.9c-0.5,0-0.8,0.3-0.9,0.8c0,0.6,0.3,0.9,0.8,1
				C-40.4,181.7-40.1,181.5-40,180.9z M26.9,181.7c0.5,0,0.8-0.3,0.8-0.8c0-0.6-0.3-0.9-0.9-0.9c-0.5,0-0.8,0.3-0.8,0.8
				C26.1,181.4,26.4,181.7,26.9,181.7z M34.5,180.1c-0.5-0.1-0.8,0.2-0.9,0.7c0,0.5,0.2,0.8,0.7,0.8c0.5,0.1,0.8-0.2,0.9-0.7
				C35.1,180.4,34.9,180.1,34.5,180.1z M63.6,316.4c-0.1,0.5,0.2,0.8,0.7,0.9c0.5,0,0.8-0.2,0.8-0.7c0.1-0.5-0.2-0.8-0.7-0.9
				C64,315.7,63.7,315.9,63.6,316.4z M-79.2,316.2c0,0.5,0.2,0.8,0.8,0.9c0.6,0,0.9-0.3,0.9-0.9c0-0.5-0.3-0.8-0.8-0.8
				C-78.9,315.4-79.2,315.6-79.2,316.2z M-63.2,187.8c-0.5,0-0.8,0.3-0.8,0.8c0,0.5,0.4,0.8,0.9,0.7c0.4-0.1,0.7-0.4,0.7-0.9
				C-62.5,188.1-62.8,187.8-63.2,187.8z M72.9,308.8c0-0.5-0.3-0.7-0.7-0.8c-0.4,0-0.7,0.3-0.8,0.7c0,0.5,0.3,0.7,0.7,0.8
				C72.5,309.5,72.8,309.2,72.9,308.8z M64.5,307.9c-0.6-0.1-0.9,0.2-1,0.8c0,0.6,0.3,0.9,0.9,0.9c0.5,0,0.8-0.3,0.9-0.9
				C65.3,308.3,65,307.9,64.5,307.9z M49.6,187.8c-0.5,0-0.7,0.3-0.8,0.7c0,0.5,0.3,0.7,0.7,0.8c0.5,0,0.7-0.3,0.8-0.8
				C50.2,188.2,50,187.8,49.6,187.8z M42.1,187.7c-0.5,0-0.8,0.3-0.8,0.8c0,0.6,0.3,0.9,0.9,0.9c0.5,0,0.8-0.4,0.8-0.9
				C42.9,188,42.6,187.7,42.1,187.7z M-55.7,187.7c-0.6,0-0.9,0.3-0.9,0.9c0,0.5,0.3,0.8,0.8,0.8c0.6,0,0.9-0.3,0.9-0.9
				C-54.9,188-55.2,187.7-55.7,187.7z M-85.9,308c-0.5,0-0.7,0.3-0.7,0.8c0,0.5,0.3,0.8,0.8,0.8c0.5,0,0.8-0.3,0.8-0.9
				C-85.1,308.2-85.4,307.9-85.9,308z M-71.8,323.8c0,0.5,0.2,0.9,0.7,0.9c0.6,0.1,0.9-0.2,1-0.8c0-0.5-0.3-0.8-0.8-0.9
				C-71.4,323.1-71.7,323.3-71.8,323.8z M57,323.1c-0.5,0-0.8,0.2-0.8,0.7c-0.1,0.5,0.2,0.9,0.7,0.9c0.5,0.1,0.8-0.2,0.9-0.7
				C57.8,323.5,57.5,323.1,57,323.1z M-71,330.6c-0.4,0-0.7,0.3-0.7,0.8c0,0.4,0.3,0.7,0.8,0.7c0.4,0,0.7-0.3,0.7-0.8
				C-70.3,330.9-70.5,330.6-71,330.6z M-64.3,331.3c0,0.5,0.2,0.8,0.8,0.9c0.6,0,0.9-0.3,0.9-0.9c0-0.5-0.3-0.8-0.8-0.8
				C-64,330.5-64.3,330.8-64.3,331.3z M42.7,331.4c0-0.6-0.3-0.9-0.8-0.9c-0.5,0-0.8,0.3-0.9,0.8c0,0.6,0.3,0.9,0.9,1
				C42.3,332.2,42.6,332,42.7,331.4z M49.4,330.6c-0.5,0-0.7,0.3-0.7,0.8c0,0.5,0.3,0.8,0.8,0.8c0.5,0,0.8-0.3,0.8-0.8
				C50.3,330.8,50,330.5,49.4,330.6z M19.4,172.7c-0.4,0-0.7,0.3-0.7,0.8c0,0.4,0.3,0.7,0.8,0.7c0.4,0,0.7-0.3,0.7-0.8
				C20.1,172.9,19.9,172.6,19.4,172.7z M12.6,173.4c0-0.5-0.3-0.7-0.7-0.8c-0.5,0-0.8,0.2-0.9,0.8c0,0.5,0.3,0.8,0.8,0.9
				C12.3,174.2,12.6,173.9,12.6,173.4z M4.3,172.6c-0.5,0-0.8,0.3-0.8,0.8c0,0.6,0.3,0.9,0.9,0.9c0.5,0,0.8-0.4,0.8-0.9
				C5.1,172.9,4.8,172.6,4.3,172.6z M-3,172.6c-0.5,0-0.9,0.2-0.9,0.7c-0.1,0.6,0.2,0.9,0.8,1c0.5,0,0.8-0.3,0.9-0.8
				C-2.3,173-2.5,172.6-3,172.6z M-10.6,172.6c-0.5,0-0.8,0.3-0.8,0.8c0,0.6,0.3,0.9,0.9,0.8c0.5,0,0.8-0.4,0.8-0.9
				C-9.8,172.8-10.1,172.6-10.6,172.6z M71.3,301.4c0,0.5,0.3,0.7,0.8,0.7c0.5,0,0.8-0.3,0.8-0.8c0-0.5-0.3-0.8-0.9-0.8
				C71.5,300.6,71.3,300.9,71.3,301.4z M-85.8,300.5c-0.6,0-0.9,0.3-0.9,0.9c0,0.5,0.3,0.8,0.8,0.8c0.6,0,0.9-0.3,0.9-0.9
				C-85,300.8-85.3,300.5-85.8,300.5z M-92.8,301.3c0-0.4-0.3-0.7-0.8-0.7c-0.4,0-0.7,0.3-0.7,0.8c0,0.4,0.3,0.7,0.8,0.7
				C-93.1,302-92.8,301.7-92.8,301.3z M-78.4,323.2c-0.5,0-0.7,0.3-0.8,0.7c0,0.4,0.3,0.7,0.7,0.8c0.5,0,0.7-0.3,0.8-0.7
				C-77.7,323.5-77.9,323.2-78.4,323.2z M80.4,271.2c0-0.5-0.3-0.8-0.8-0.8c-0.6,0-0.9,0.3-0.8,0.9c0,0.5,0.4,0.8,0.9,0.8
				C80.1,272,80.4,271.8,80.4,271.2z M-101.7,271.3c0,0.4,0.3,0.7,0.8,0.7c0.4,0,0.7-0.3,0.7-0.8c0-0.4-0.3-0.7-0.8-0.7
				C-101.4,270.6-101.8,270.8-101.7,271.3z M56.2,196c0,0.4,0.3,0.7,0.8,0.7c0.4,0,0.7-0.3,0.7-0.8c0-0.4-0.3-0.7-0.8-0.7
				C56.5,195.4,56.2,195.6,56.2,196z M49.6,195.2c-0.6,0-0.9,0.3-0.9,0.9c0,0.5,0.3,0.8,0.8,0.8c0.6,0,0.9-0.3,0.9-0.9
				C50.4,195.5,50.1,195.2,49.6,195.2z M-71,196.8c0.5,0,0.8-0.2,0.8-0.7c0.1-0.5-0.2-0.9-0.7-0.9c-0.5-0.1-0.8,0.2-0.9,0.8
				C-71.7,196.5-71.5,196.8-71,196.8z M-11.3,166c0,0.5,0.3,0.7,0.8,0.7c0.4-0.1,0.6-0.3,0.6-0.7c0-0.4-0.3-0.6-0.7-0.6
				C-11,165.4-11.3,165.6-11.3,166z M-32.5,353.9c0-0.4-0.3-0.7-0.8-0.6c-0.4,0.1-0.6,0.4-0.6,0.8c0.1,0.4,0.3,0.6,0.7,0.6
				C-32.7,354.6-32.5,354.3-32.5,353.9z M-85.8,315.5c-0.4,0-0.7,0.2-0.7,0.6c-0.1,0.5,0.2,0.8,0.7,0.8c0.4,0,0.6-0.3,0.7-0.7
				C-85.2,315.9-85.4,315.6-85.8,315.5z M-94.2,218.6c0,0.5,0.3,0.7,0.8,0.7c0.4-0.1,0.6-0.3,0.6-0.7c-0.1-0.4-0.3-0.6-0.7-0.6
				C-94,218-94.2,218.2-94.2,218.6z M78.9,226c0,0.4,0.2,0.7,0.6,0.7c0.5,0,0.8-0.2,0.8-0.7c0-0.4-0.3-0.6-0.7-0.7
				C79.2,225.4,78.9,225.6,78.9,226z M87,256.8c0.4,0,0.7-0.2,0.7-0.6c0-0.5-0.2-0.8-0.7-0.8c-0.4,0-0.6,0.3-0.7,0.7
				C86.4,256.5,86.6,256.8,87,256.8z M-100.3,278.8c0-0.4-0.2-0.7-0.6-0.7c-0.5-0.1-0.8,0.2-0.8,0.7c0,0.4,0.3,0.6,0.7,0.7
				C-100.6,279.4-100.3,279.2-100.3,278.8z M34.4,345.8c-0.4,0-0.7,0.2-0.7,0.6c-0.1,0.5,0.2,0.8,0.7,0.8c0.4,0,0.6-0.3,0.7-0.7
				C35,346.2,34.8,345.9,34.4,345.8z M-63.4,338.1c-0.4-0.1-0.7,0.2-0.8,0.6c-0.1,0.5,0.2,0.8,0.6,0.8c0.4,0,0.6-0.2,0.7-0.6
				C-62.8,338.5-63,338.2-63.4,338.1z M64.5,323.2c-0.4-0.1-0.7,0.2-0.8,0.6c-0.1,0.5,0.2,0.8,0.6,0.8c0.4,0,0.6-0.2,0.7-0.6
				C65.1,323.6,64.9,323.3,64.5,323.2z M72.2,210.5c-0.4,0-0.7,0.2-0.7,0.6c-0.1,0.5,0.2,0.8,0.7,0.8c0.4,0,0.6-0.3,0.7-0.7
				C72.8,210.8,72.6,210.5,72.2,210.5z M57,330.7c-0.4,0-0.7,0.2-0.7,0.6c-0.1,0.5,0.2,0.8,0.7,0.8c0.4,0,0.6-0.3,0.7-0.7
				C57.6,331,57.4,330.7,57,330.7z M26.2,173.4c0,0.4,0.2,0.7,0.6,0.7c0.5,0,0.8-0.2,0.8-0.7c0-0.4-0.3-0.6-0.7-0.7
				C26.5,172.8,26.3,173,26.2,173.4z M87.1,263.1c-0.4-0.1-0.7,0.2-0.7,0.6c-0.1,0.5,0.2,0.8,0.7,0.8c0.4,0,0.6-0.3,0.7-0.7
				C87.7,263.5,87.5,263.2,87.1,263.1z M-100.9,240.5c-0.4,0-0.7,0.2-0.7,0.6c0,0.5,0.2,0.8,0.7,0.8c0.4,0,0.6-0.3,0.7-0.7
				C-100.3,240.8-100.6,240.6-100.9,240.5z M11.8,353.3c-0.4,0-0.7,0.2-0.7,0.6c0,0.5,0.2,0.8,0.7,0.8c0.4,0,0.6-0.3,0.7-0.7
				C12.4,353.6,12.2,353.3,11.8,353.3z M42.1,180.2c-0.4,0-0.7,0.2-0.7,0.6c-0.1,0.5,0.2,0.8,0.7,0.8c0.4,0,0.6-0.3,0.7-0.7
				C42.7,180.5,42.5,180.2,42.1,180.2z M72.2,315.9c-0.4,0-0.7,0.1-0.7,0.6c0,0.4,0.2,0.6,0.6,0.6c0.4,0,0.6-0.2,0.6-0.5
				C72.7,316.2,72.6,315.9,72.2,315.9z M79.5,218.1c-0.3,0-0.5,0.2-0.5,0.5c0,0.3,0.1,0.6,0.5,0.6c0.4,0,0.6-0.2,0.6-0.5
				C80.1,218.3,79.9,218.1,79.5,218.1z M-62.7,180.9c0-0.3-0.1-0.5-0.4-0.6c-0.3-0.1-0.6,0.1-0.7,0.4c0,0.3,0.1,0.6,0.5,0.6
				C-62.9,181.4-62.7,181.3-62.7,180.9z M49.6,338.2c-0.4,0-0.6,0.2-0.6,0.5c0,0.4,0.2,0.7,0.6,0.7c0.4,0,0.5-0.2,0.6-0.6
				C50.1,338.5,49.9,338.2,49.6,338.2z M79.6,300.7c-0.3,0-0.6,0.1-0.6,0.5c0,0.4,0.1,0.7,0.6,0.7c0.4,0,0.5-0.2,0.6-0.6
				C80.1,301,80,300.8,79.6,300.7z M86.9,240.7c-0.3,0-0.5,0.2-0.5,0.5c0,0.4,0.2,0.6,0.5,0.6c0.4,0,0.5-0.2,0.5-0.6
				C87.5,240.8,87.3,240.7,86.9,240.7z M87.6,248.8c0-0.4-0.1-0.7-0.6-0.7c-0.4,0-0.6,0.2-0.6,0.6c0,0.4,0.2,0.6,0.6,0.6
				C87.3,249.3,87.6,249.1,87.6,248.8z M-55.7,345.9c-0.3,0-0.6,0.1-0.6,0.5c0,0.4,0.1,0.7,0.6,0.7c0.4,0,0.6-0.2,0.6-0.5
				C-55.2,346.2-55.4,346-55.7,345.9z M41.8,346c-0.3,0-0.5,0.1-0.5,0.4c0,0.3,0.1,0.6,0.5,0.6c0.3,0,0.6-0.1,0.6-0.6
				C42.3,346.2,42.2,346,41.8,346z M56.4,188.6c0,0.3,0.1,0.5,0.4,0.5c0.3,0,0.6-0.1,0.6-0.5c0-0.3-0.1-0.6-0.6-0.6
				C56.7,188.1,56.4,188.2,56.4,188.6z M-70.9,188c-0.3,0-0.6,0.1-0.6,0.5c0,0.4,0.1,0.7,0.6,0.7c0.4,0,0.5-0.2,0.6-0.6
				C-70.4,188.2-70.5,188-70.9,188z M-78.4,331.9c0.3,0,0.5-0.1,0.6-0.4c0.1-0.3-0.1-0.6-0.4-0.7c-0.3,0-0.6,0.1-0.6,0.5
				C-78.9,331.7-78.8,331.9-78.4,331.9z M34.3,172.9c-0.3,0-0.5,0.2-0.5,0.5c0,0.3,0.1,0.6,0.5,0.6c0.4,0,0.6-0.2,0.6-0.5
				C34.9,173.1,34.7,172.9,34.3,172.9z M-48.4,174c0.4,0,0.6-0.3,0.6-0.7c0-0.4-0.3-0.5-0.6-0.5c-0.4,0-0.5,0.2-0.5,0.6
				C-48.9,173.8-48.7,174-48.4,174z M-93,308.8c0-0.3-0.1-0.6-0.5-0.6c-0.4,0-0.7,0.1-0.7,0.6c0,0.4,0.2,0.6,0.5,0.6
				C-93.2,309.4-93,309.2-93,308.8z M-100.9,232.9c-0.3,0-0.6,0.1-0.7,0.5c-0.1,0.4,0.1,0.7,0.6,0.7c0.4,0,0.6-0.2,0.6-0.5
				C-100.4,233.2-100.5,233-100.9,232.9z M-18.3,165.4c-0.4,0-0.6,0.3-0.6,0.7c0,0.4,0.3,0.5,0.7,0.5c0.4,0,0.5-0.3,0.5-0.6
				C-17.7,165.6-17.9,165.4-18.3,165.4z M-3,165.4c-0.4,0-0.7,0.1-0.7,0.6c0,0.4,0.2,0.6,0.6,0.6c0.4,0,0.6-0.2,0.6-0.6
				C-2.5,165.7-2.7,165.4-3,165.4z M-25.7,165.4c-0.3,0-0.6,0.1-0.6,0.5c0,0.4,0.1,0.7,0.6,0.7c0.4,0,0.6-0.2,0.6-0.6
				C-25.2,165.7-25.3,165.4-25.7,165.4z M4.4,165.4c-0.4,0-0.6,0.1-0.6,0.5c0,0.4,0.2,0.7,0.6,0.7c0.4,0,0.5-0.2,0.6-0.6
				C4.9,165.6,4.7,165.4,4.4,165.4z M-32.6,165.9c0-0.3-0.2-0.5-0.5-0.5c-0.3,0-0.6,0.1-0.6,0.5c0,0.4,0.2,0.6,0.5,0.6
				C-32.8,166.5-32.6,166.3-32.6,165.9z M11.7,165.4c-0.3,0-0.5,0.2-0.5,0.5c0,0.3,0.1,0.6,0.5,0.6c0.4,0,0.6-0.2,0.6-0.5
				C12.3,165.6,12.1,165.4,11.7,165.4z M87.1,278.1c-0.3,0-0.6,0.1-0.6,0.5c0,0.4,0.1,0.7,0.6,0.7c0.4,0,0.6-0.2,0.6-0.6
				C87.6,278.4,87.4,278.2,87.1,278.1z M-79,195.9c0,0.3,0.1,0.6,0.5,0.7c0.4,0.1,0.7-0.1,0.7-0.6c0-0.4-0.2-0.6-0.5-0.6
				C-78.7,195.4-78.9,195.6-79,195.9z M64.4,195.5c-0.3,0-0.5,0.2-0.5,0.5c0,0.3,0.1,0.6,0.5,0.6c0.4,0,0.6-0.2,0.6-0.5
				C64.9,195.7,64.8,195.5,64.4,195.5z M26.4,354c0,0.3,0.1,0.5,0.4,0.5c0.3,0,0.6-0.1,0.6-0.5c0-0.3-0.1-0.6-0.6-0.6
				C26.6,353.4,26.4,353.6,26.4,354z M19.5,353.4c-0.4,0-0.6,0.1-0.6,0.5c0,0.4,0.2,0.7,0.6,0.7c0.4,0,0.5-0.2,0.6-0.6
				C20.1,353.6,19.9,353.4,19.5,353.4z M-40.9,353.4c-0.3,0-0.5,0.2-0.5,0.5c0,0.4,0.1,0.6,0.5,0.6c0.4,0,0.6-0.2,0.6-0.5
				C-40.4,353.6-40.6,353.4-40.9,353.4z M-86.4,203.4c0,0.4,0.3,0.6,0.7,0.6c0.4,0,0.5-0.3,0.5-0.6c0-0.4-0.2-0.5-0.6-0.5
				C-86.2,202.9-86.4,203.1-86.4,203.4z M87.1,270.7c-0.3,0-0.6,0.1-0.6,0.5c0,0.4,0.1,0.7,0.6,0.7c0.4,0,0.6-0.2,0.6-0.5
				C87.6,270.9,87.4,270.7,87.1,270.7z M-100.4,293.8c0-0.3-0.2-0.5-0.5-0.5c-0.4,0-0.6,0.2-0.6,0.5c0,0.4,0.2,0.5,0.6,0.5
				C-100.6,294.4-100.4,294.2-100.4,293.8z M87,285.6c-0.3,0-0.5,0.2-0.5,0.5c0,0.3,0.1,0.6,0.5,0.6c0.4,0,0.6-0.2,0.6-0.5
				C87.5,285.8,87.4,285.6,87,285.6z M-101.6,286.1c0,0.4,0.3,0.6,0.7,0.6c0.4,0,0.5-0.3,0.5-0.6c0-0.4-0.2-0.5-0.6-0.5
				C-101.4,285.6-101.6,285.8-101.6,286.1z M3,195.9c-0.1,0.8,0.4,1.4,1.2,1.4c0.8,0,1.3-0.5,1.3-1.3c0-0.8-0.5-1.2-1.2-1.3
				C3.6,194.8,3.1,195.1,3,195.9z M10.5,195.9c0,0.8,0.5,1.3,1.3,1.3c0.7,0,1.2-0.5,1.2-1.3c0-0.8-0.5-1.2-1.2-1.3
				C11.1,194.8,10.5,195.2,10.5,195.9z M-4.3,188.6c0,0.7,0.5,1.2,1.2,1.2c0.7,0,1.2-0.5,1.2-1.2c0-0.7-0.5-1.1-1.2-1.2
				C-3.9,187.5-4.3,187.9-4.3,188.6z M10.6,188.6c0,0.7,0.5,1.1,1.2,1.1c0.7,0,1-0.5,1-1.1c0-0.7-0.5-1.1-1.2-1.1
				C11,187.5,10.6,187.9,10.6,188.6z M4.3,187.4c-0.7,0-1.1,0.3-1.1,1c-0.1,0.7,0.3,1.2,1,1.3c0.7,0.1,1.1-0.3,1.2-1.1
				C5.4,187.9,5.1,187.5,4.3,187.4z M-10.6,187.4c-0.7,0-1.2,0.4-1.2,1.2c0,0.7,0.4,1.2,1.2,1.2c0.7,0,1.1-0.4,1.2-1.2
				C-9.5,187.9-9.8,187.4-10.6,187.4z M58.3,248.7c0-0.8-0.5-1.3-1.3-1.3c-0.8,0-1.3,0.5-1.3,1.2c0,0.8,0.5,1.3,1.3,1.4
				C57.7,249.9,58.2,249.5,58.3,248.7z M55.7,241.1c-0.1,0.8,0.4,1.3,1.2,1.3c0.8,0.1,1.4-0.4,1.4-1.2c0-0.8-0.5-1.2-1.2-1.3
				C56.3,240,55.8,240.4,55.7,241.1z M64.4,240.1c-0.7,0-1.1,0.4-1.1,1.1c0,0.7,0.4,1.2,1.1,1.2c0.7,0,1.1-0.4,1.2-1.1
				C65.5,240.5,65.1,240.1,64.4,240.1z M65.6,256.1c0-0.7-0.4-1.2-1.2-1.2c-0.7,0-1.2,0.4-1.2,1.2c0,0.7,0.4,1.1,1.2,1.2
				C65.1,257.2,65.6,256.9,65.6,256.1z M64.4,247.5c-0.7,0-1.2,0.5-1.2,1.2c0,0.7,0.5,1.2,1.2,1.2c0.7,0,1.1-0.5,1.2-1.2
				C65.5,247.9,65.1,247.5,64.4,247.5z M58.3,271.3c0-0.8-0.5-1.3-1.3-1.4c-0.8,0-1.3,0.5-1.3,1.2c0,0.8,0.5,1.3,1.3,1.4
				C57.7,272.5,58.2,272.1,58.3,271.3z M55.7,278.7c0,0.8,0.5,1.3,1.2,1.3c0.8,0,1.3-0.5,1.3-1.3c0-0.8-0.5-1.2-1.3-1.3
				C56.2,277.5,55.7,277.9,55.7,278.7z M56.9,284.9c-0.7,0-1.2,0.5-1.2,1.2c0,0.8,0.4,1.3,1.2,1.3c0.8,0,1.2-0.5,1.3-1.2
				C58.1,285.4,57.7,284.9,56.9,284.9z M18.2,323.8c-0.1,0.8,0.4,1.3,1.2,1.3c0.8,0.1,1.4-0.4,1.4-1.2c0-0.8-0.5-1.2-1.3-1.3
				C18.8,322.7,18.3,323.1,18.2,323.8z M25.7,323.9c0,0.8,0.5,1.3,1.2,1.2c0.8,0,1.2-0.5,1.2-1.3c0-0.7-0.5-1.1-1.2-1.1
				C26.2,322.8,25.7,323.2,25.7,323.9z M-25.7,194.7c-0.8,0-1.3,0.5-1.3,1.2c0,0.8,0.5,1.3,1.3,1.3c0.8,0,1.2-0.5,1.3-1.3
				C-24.5,195.3-24.9,194.8-25.7,194.7z M-17,196.1c0.1-0.8-0.4-1.4-1.2-1.4c-0.8-0.1-1.3,0.4-1.3,1.2c-0.1,0.8,0.4,1.3,1.2,1.4
				C-17.6,197.3-17.1,196.9-17,196.1z M-78.4,249.9c0.8,0,1.3-0.5,1.2-1.2c0-0.8-0.5-1.2-1.3-1.2c-0.7,0-1.1,0.5-1.1,1.2
				C-79.5,249.4-79.1,249.9-78.4,249.9z M-24.5,331.4c0-0.8-0.5-1.3-1.2-1.3c-0.8,0-1.2,0.5-1.2,1.3c0,0.7,0.5,1.1,1.2,1.2
				C-25,332.5-24.5,332.1-24.5,331.4z M18.3,196c0,0.8,0.5,1.3,1.3,1.2c0.8,0,1.2-0.6,1.2-1.3c-0.1-0.7-0.6-1.1-1.2-1.1
				C18.7,194.9,18.3,195.3,18.3,196z M-40.9,322.7c-0.8,0-1.3,0.5-1.2,1.3c0,0.7,0.5,1.2,1.2,1.2c0.8,0,1.2-0.5,1.3-1.2
				C-39.7,323.2-40.1,322.7-40.9,322.7z M49.4,300.1c-0.7,0-1.2,0.5-1.2,1.2c0,0.8,0.5,1.3,1.2,1.3c0.8,0,1.2-0.5,1.3-1.3
				C50.6,300.5,50.2,300,49.4,300.1z M-49.6,203.5c0,0.7,0.5,1.2,1.2,1.2c0.8,0,1.3-0.4,1.3-1.2c0-0.8-0.5-1.2-1.3-1.3
				C-49.1,202.3-49.6,202.7-49.6,203.5z M-55.9,209.7c-0.7,0-1.2,0.5-1.2,1.2c0,0.8,0.5,1.3,1.3,1.3c0.8,0,1.2-0.5,1.3-1.3
				C-54.7,210.1-55.1,209.6-55.9,209.7z M33.1,316.5c0,0.7,0.5,1.2,1.2,1.2c0.8,0.1,1.3-0.4,1.3-1.2c0-0.8-0.5-1.2-1.2-1.3
				C33.6,315.3,33.1,315.7,33.1,316.5z M-69.7,233.5c0-0.8-0.5-1.3-1.2-1.3c-0.8,0-1.3,0.5-1.3,1.3c0,0.8,0.5,1.2,1.3,1.3
				C-70.2,234.7-69.7,234.3-69.7,233.5z M26.9,202.2c-0.8,0-1.3,0.5-1.2,1.3c0,0.8,0.5,1.3,1.3,1.3c0.7,0,1.1-0.6,1.2-1.3
				C28.1,202.7,27.7,202.2,26.9,202.2z M-62.2,301.4c0-0.8-0.5-1.3-1.3-1.3c-0.7,0-1.2,0.5-1.2,1.3c0,0.8,0.5,1.2,1.2,1.3
				C-62.8,302.5-62.2,302.1-62.2,301.4z M50.8,226.1c0-0.8-0.5-1.3-1.2-1.3c-0.8,0-1.3,0.5-1.3,1.3c0,0.8,0.5,1.2,1.3,1.3
				C50.3,227.3,50.8,226.9,50.8,226.1z M-34.5,323.8c-0.1,0.8,0.4,1.4,1.3,1.4c0.8,0,1.3-0.5,1.3-1.3c0-0.8-0.5-1.2-1.3-1.3
				C-33.9,322.7-34.4,323.1-34.5,323.8z M-57.1,308.7c0,0.8,0.5,1.3,1.3,1.3c0.8,0,1.2-0.5,1.3-1.3c0-0.8-0.5-1.2-1.3-1.4
				C-56.6,307.6-57.1,308-57.1,308.7z M-48.2,314.9c-0.8-0.1-1.3,0.4-1.4,1.1c-0.1,0.8,0.4,1.4,1.2,1.4c0.8,0,1.2-0.5,1.3-1.2
				C-47.1,315.5-47.5,315-48.2,314.9z M-55.7,315c-0.8,0-1.3,0.5-1.3,1.2c0,0.7,0.5,1.2,1.2,1.2c0.8,0,1.2-0.5,1.3-1.2
				C-54.6,315.5-55,315-55.7,315z M-63.3,217.4c-0.7,0-1.2,0.5-1.2,1.2c0,0.8,0.5,1.3,1.2,1.3c0.8,0,1.2-0.5,1.3-1.3
				C-62.1,217.8-62.5,217.3-63.3,217.4z M43.1,308.8c0-0.8-0.5-1.3-1.3-1.3c-0.7,0-1.2,0.5-1.2,1.3c0,0.8,0.5,1.2,1.3,1.3
				C42.5,309.9,43.1,309.6,43.1,308.8z M34.4,209.9c-0.8,0-1.3,0.5-1.3,1.3c0,0.8,0.5,1.2,1.3,1.2c0.8,0,1.2-0.5,1.3-1.4
				C35.5,210.4,35.2,209.9,34.4,209.9z M-72.2,286.1c0,0.8,0.5,1.3,1.2,1.3c0.8,0,1.3-0.5,1.3-1.3c0-0.8-0.5-1.2-1.3-1.2
				C-71.7,285-72.2,285.4-72.2,286.1z M40.8,218.6c0,0.8,0.5,1.3,1.3,1.4c0.8,0,1.3-0.5,1.3-1.2c0-0.8-0.5-1.3-1.3-1.4
				C41.3,217.4,40.8,217.8,40.8,218.6z M-39.6,203.5c0-0.8-0.5-1.3-1.3-1.3c-0.8,0-1.2,0.5-1.3,1.3c0,0.8,0.5,1.2,1.3,1.3
				C-40.1,204.7-39.6,204.2-39.6,203.5z M49.5,292.6c-0.8,0-1.3,0.5-1.3,1.3c0,0.8,0.5,1.2,1.3,1.3c0.8,0,1.2-0.5,1.4-1.3
				C50.7,293.1,50.3,292.6,49.5,292.6z M41.8,300c-0.8,0-1.3,0.4-1.3,1.2c-0.1,0.8,0.4,1.4,1.2,1.4c0.8,0.1,1.3-0.5,1.4-1.2
				C43.1,300.6,42.7,300,41.8,300z M28.2,316.5c0-0.8-0.4-1.3-1.2-1.3c-0.8-0.1-1.4,0.4-1.4,1.2c-0.1,0.8,0.4,1.3,1.2,1.4
				C27.7,317.7,28.2,317.3,28.2,316.5z M34.3,307.4c-0.8,0-1.3,0.5-1.3,1.4c0,0.8,0.5,1.3,1.4,1.3c0.8,0,1.2-0.6,1.3-1.5
				C35.6,307.9,35.2,307.4,34.3,307.4z M10.4,324c0,0.8,0.5,1.2,1.3,1.3c0.8,0,1.3-0.5,1.4-1.3c0-0.8-0.5-1.3-1.3-1.4
				C10.9,322.7,10.4,323.1,10.4,324z M-33.2,202.1c-0.8,0-1.3,0.5-1.3,1.4c0,0.8,0.5,1.3,1.4,1.3c0.8,0,1.2-0.6,1.3-1.4
				C-32,202.6-32.4,202.1-33.2,202.1z M-63.2,224.8c-0.8,0-1.3,0.5-1.3,1.3c0,0.8,0.5,1.2,1.2,1.3c0.8,0,1.3-0.5,1.4-1.3
				C-62,225.3-62.4,224.8-63.2,224.8z M-10.5,194.7c-0.8-0.1-1.4,0.4-1.4,1.2c-0.1,0.8,0.4,1.3,1.2,1.3c0.8,0.1,1.3-0.4,1.4-1.2
				C-9.3,195.3-9.7,194.8-10.5,194.7z M-3,194.7c-0.8-0.1-1.4,0.4-1.4,1.3c0,0.8,0.5,1.3,1.3,1.3c0.8,0,1.2-0.5,1.3-1.3
				C-1.9,195.3-2.3,194.8-3,194.7z M-55.9,217.3c-0.8,0.1-1.2,0.5-1.2,1.3c0,0.8,0.5,1.3,1.3,1.3c0.8,0,1.2-0.6,1.3-1.4
				C-54.6,217.8-55,217.2-55.9,217.3z M-42.2,316.2c0,0.8,0.5,1.3,1.4,1.3c0.8,0,1.3-0.5,1.3-1.4c0-0.8-0.5-1.2-1.4-1.3
				C-41.7,315-42.2,315.4-42.2,316.2z M58.3,256.2c0.1-0.8-0.4-1.4-1.3-1.4c-0.8,0-1.3,0.5-1.3,1.3c0,0.8,0.5,1.2,1.3,1.3
				C57.7,257.4,58.2,257,58.3,256.2z M-70.9,269.9c-0.8,0-1.3,0.5-1.3,1.3c0,0.8,0.5,1.3,1.3,1.4c0.8,0,1.3-0.5,1.4-1.3
				C-69.7,270.5-70.1,270-70.9,269.9z M-70.8,239.9c-0.8-0.1-1.4,0.4-1.4,1.2c-0.1,0.8,0.4,1.3,1.2,1.3c0.8,0.1,1.3-0.4,1.4-1.2
				C-69.7,240.5-70.1,240-70.8,239.9z M-24.4,323.9c0-0.8-0.5-1.3-1.4-1.3c-0.8,0-1.2,0.5-1.3,1.3c0,0.8,0.5,1.3,1.3,1.4
				C-25,325.2-24.4,324.7-24.4,323.9z M-63.5,292.6c-0.8,0-1.2,0.5-1.3,1.2c0,0.8,0.5,1.3,1.3,1.4c0.8,0,1.3-0.5,1.4-1.4
				C-62.3,293.1-62.7,292.5-63.5,292.6z M-69.6,248.6c0-0.8-0.5-1.2-1.3-1.2c-0.8,0-1.3,0.5-1.3,1.3c0,0.8,0.6,1.2,1.4,1.3
				C-70.1,249.9-69.6,249.4-69.6,248.6z M-48.4,209.6c-0.8,0-1.2,0.5-1.3,1.3c0,0.8,0.5,1.3,1.3,1.4c0.8,0,1.3-0.5,1.4-1.3
				C-47.1,210.1-47.5,209.6-48.4,209.6z M-69.6,278.7c0-0.8-0.5-1.2-1.2-1.3c-0.8,0-1.4,0.4-1.4,1.3c0,0.8,0.5,1.3,1.3,1.4
				C-70.1,279.9-69.6,279.5-69.6,278.7z M20.8,203.4c0-0.8-0.5-1.2-1.3-1.2c-0.8,0-1.3,0.5-1.3,1.3c0,0.8,0.5,1.2,1.3,1.3
				C20.3,204.7,20.8,204.2,20.8,203.4z M49.5,232.2c-0.8,0-1.2,0.5-1.3,1.3c0,0.8,0.5,1.3,1.3,1.4c0.8,0,1.3-0.5,1.4-1.3
				C50.7,232.7,50.3,232.2,49.5,232.2z M3,324c0,0.8,0.5,1.3,1.4,1.3c0.8,0,1.3-0.5,1.3-1.4c0-0.8-0.6-1.2-1.5-1.3
				C3.5,322.7,2.9,323.1,3,324z M-18.2,322.6c-0.8,0-1.3,0.4-1.4,1.3c0,0.8,0.4,1.3,1.3,1.4c0.8,0,1.3-0.5,1.4-1.3
				C-17,323.2-17.4,322.6-18.2,322.6z M-72.3,263.5c0,0.8,0.4,1.3,1.3,1.4c0.8,0,1.3-0.4,1.4-1.3c0-0.8-0.5-1.3-1.3-1.4
				C-71.7,262.3-72.2,262.7-72.3,263.5z M49.6,284.8c-0.8,0-1.3,0.4-1.4,1.3c0,0.8,0.4,1.3,1.3,1.4c0.8,0,1.3-0.5,1.4-1.3
				C50.8,285.4,50.4,284.9,49.6,284.8z M-70.9,254.8c-0.8,0-1.3,0.5-1.3,1.3c0,0.8,0.5,1.3,1.3,1.3c0.8,0,1.3-0.5,1.4-1.3
				C-69.7,255.3-70.1,254.8-70.9,254.8z M-4.5,323.9c0,0.8,0.5,1.3,1.4,1.3c0.8,0,1.3-0.5,1.3-1.4c0-0.8-0.5-1.2-1.4-1.3
				C-4,322.7-4.5,323.1-4.5,323.9z M-10.9,322.6c-0.8,0-1.3,0.5-1.3,1.4c0,0.8,0.5,1.3,1.3,1.3c0.8,0,1.2-0.5,1.3-1.4
				C-9.6,323.1-10,322.6-10.9,322.6z M49.6,269.9c-0.9-0.1-1.5,0.4-1.5,1.3c0,0.9,0.5,1.4,1.4,1.4c0.8,0,1.3-0.5,1.4-1.3
				C50.9,270.5,50.5,270,49.6,269.9z M-63.2,239.9c-0.9,0-1.4,0.5-1.4,1.4c0,0.8,0.5,1.3,1.4,1.3c0.9,0,1.3-0.5,1.4-1.4
				C-61.9,240.3-62.4,239.8-63.2,239.9z M49.6,239.9c-0.8,0-1.4,0.4-1.4,1.3c0,0.9,0.5,1.4,1.4,1.4c0.8,0,1.3-0.5,1.3-1.3
				C50.8,240.4,50.4,239.9,49.6,239.9z M-34.5,316.1c-0.1,0.9,0.4,1.5,1.3,1.5c0.9,0,1.4-0.5,1.4-1.4c0-0.8-0.5-1.3-1.4-1.4
				C-33.9,314.9-34.5,315.2-34.5,316.1z M-49.7,218.5c-0.1,0.9,0.4,1.5,1.3,1.5c0.9,0,1.4-0.5,1.4-1.4c0-0.8-0.5-1.3-1.3-1.4
				C-49.1,217.3-49.6,217.6-49.7,218.5z M42.1,224.7c-0.9,0-1.4,0.5-1.4,1.4c0,0.8,0.5,1.3,1.4,1.3c0.8,0,1.3-0.5,1.3-1.4
				C43.4,225.3,43,224.7,42.1,224.7z M-55.8,224.7c-0.9,0-1.4,0.5-1.4,1.4c0,0.8,0.5,1.3,1.3,1.3c0.9,0,1.4-0.5,1.4-1.4
				C-54.5,225.2-54.9,224.7-55.8,224.7z M-64.6,286.1c0,0.9,0.5,1.4,1.4,1.4c0.8,0,1.3-0.5,1.3-1.3c0-0.9-0.5-1.4-1.4-1.4
				C-64.1,284.8-64.6,285.3-64.6,286.1z M11.7,314.8c-0.8,0-1.3,0.5-1.3,1.4c0,0.9,0.5,1.4,1.4,1.4c0.9,0,1.3-0.5,1.4-1.5
				C13.1,315.3,12.6,314.8,11.7,314.8z M34.3,217.3c-0.8,0-1.3,0.5-1.3,1.3c0,0.9,0.5,1.4,1.4,1.4c0.8,0,1.2-0.6,1.3-1.4
				C35.6,217.7,35.2,217.3,34.3,217.3z M20.8,316.4c0-0.8-0.5-1.3-1.3-1.3c-0.9,0-1.4,0.5-1.4,1.4c0,0.8,0.6,1.2,1.5,1.3
				C20.3,317.7,20.8,317.3,20.8,316.4z M27,307.4c-0.9-0.1-1.5,0.4-1.5,1.3c0,0.9,0.5,1.4,1.4,1.4c0.8,0,1.3-0.5,1.4-1.3
				C28.3,308,27.9,307.5,27,307.4z M-48.2,307.4c-0.9,0-1.4,0.4-1.4,1.4c0,0.8,0.5,1.3,1.3,1.3c0.8,0,1.3-0.5,1.4-1.3
				C-47,308-47.4,307.5-48.2,307.4z M-10.6,202.1c-0.8,0-1.3,0.4-1.4,1.3c-0.1,0.9,0.4,1.4,1.3,1.5c0.9,0,1.4-0.4,1.5-1.3
				C-9.2,202.6-9.7,202.1-10.6,202.1z M-19.7,203.4c0,0.9,0.5,1.4,1.4,1.4c0.8,0,1.3-0.5,1.3-1.3c0-0.9-0.5-1.4-1.4-1.4
				C-19.2,202.2-19.6,202.6-19.7,203.4z M-25.8,202.1c-0.8,0-1.3,0.5-1.3,1.3c0,0.9,0.5,1.4,1.4,1.4c0.8,0,1.2-0.6,1.3-1.4
				C-24.5,202.6-24.9,202.1-25.8,202.1z M-55.8,300c-0.8,0-1.3,0.5-1.3,1.3c0,0.9,0.5,1.4,1.4,1.3c0.8,0,1.2-0.6,1.3-1.4
				C-54.5,300.4-55,299.9-55.8,300z M34.4,299.9c-0.8,0-1.3,0.4-1.4,1.3c-0.1,0.9,0.4,1.5,1.3,1.5c0.9,0,1.4-0.4,1.5-1.3
				C35.7,300.5,35.3,299.9,34.4,299.9z M-3.2,202.1c-0.8,0-1.3,0.5-1.3,1.4c0,0.9,0.5,1.4,1.4,1.4c0.9,0,1.4-0.5,1.4-1.4
				C-1.8,202.5-2.3,202-3.2,202.1z M5.7,203.5c0-0.9-0.5-1.4-1.4-1.4c-0.8,0-1.3,0.5-1.4,1.3c0,0.9,0.5,1.4,1.4,1.4
				C5.1,204.8,5.7,204.4,5.7,203.5z M-61.9,233.5c0-0.8-0.5-1.3-1.3-1.3c-0.9,0-1.4,0.5-1.4,1.4c0,0.8,0.5,1.3,1.4,1.3
				C-62.4,234.8-61.9,234.4-61.9,233.5z M50.9,278.7c0-0.8-0.5-1.3-1.3-1.3c-0.9,0-1.4,0.5-1.4,1.4c0,0.8,0.5,1.3,1.5,1.3
				C50.3,280,50.9,279.6,50.9,278.7z M49.5,254.7c-0.8,0-1.3,0.4-1.4,1.3c-0.1,0.9,0.4,1.5,1.3,1.5c0.9,0,1.4-0.4,1.5-1.3
				C50.9,255.3,50.5,254.7,49.5,254.7z M11.8,202.1c-0.8,0-1.3,0.5-1.3,1.3c0,0.9,0.5,1.4,1.4,1.4c0.8,0,1.2-0.6,1.3-1.4
				C13,202.6,12.6,202.1,11.8,202.1z M28.3,211.2c0-0.9-0.5-1.4-1.4-1.4c-0.8,0-1.3,0.5-1.3,1.4c0,0.8,0.5,1.3,1.3,1.4
				C27.7,212.5,28.2,212.1,28.3,211.2z M43.2,293.9c0-0.9-0.5-1.4-1.4-1.4c-0.8,0-1.3,0.5-1.3,1.4c0,0.9,0.5,1.4,1.4,1.4
				C42.7,295.2,43.2,294.7,43.2,293.9z M-42.2,210.9c0,0.8,0.5,1.3,1.3,1.3c0.9,0,1.4-0.5,1.3-1.4c0-0.8-0.6-1.2-1.4-1.3
				C-41.8,209.6-42.3,210.1-42.2,210.9z M48.2,248.5c-0.1,0.9,0.3,1.5,1.2,1.5c0.8,0.1,1.4-0.3,1.5-1.2c0.1-0.9-0.3-1.4-1.3-1.6
				C48.8,247.3,48.2,247.6,48.2,248.5z M49.5,262.4c-0.8,0-1.3,0.5-1.4,1.3c0,0.9,0.4,1.4,1.3,1.5c0.9,0,1.4-0.5,1.4-1.4
				C50.9,262.9,50.4,262.4,49.5,262.4z M-27.1,316.2c0,0.8,0.4,1.3,1.3,1.4c0.9,0.1,1.5-0.4,1.5-1.3c0-0.9-0.4-1.4-1.3-1.5
				C-26.6,314.8-27.1,315.3-27.1,316.2z M-55.8,292.5c-0.8,0-1.3,0.5-1.3,1.3c0,0.9,0.5,1.4,1.4,1.4c0.9,0,1.4-0.5,1.4-1.5
				C-54.5,293-54.9,292.5-55.8,292.5z M-63.3,277.3c-0.8,0-1.3,0.5-1.3,1.3c0,0.9,0.5,1.4,1.4,1.4c0.9,0,1.4-0.5,1.4-1.5
				C-61.9,277.8-62.4,277.3-63.3,277.3z M40.7,233.5c0,0.8,0.4,1.3,1.3,1.4c0.9,0.1,1.5-0.4,1.5-1.3c0-0.9-0.4-1.4-1.3-1.5
				C41.2,232.1,40.7,232.6,40.7,233.5z M-42.3,308.7c0,0.8,0.4,1.3,1.3,1.4c0.9,0.1,1.5-0.4,1.5-1.3c0-0.9-0.4-1.4-1.4-1.5
				C-41.7,307.4-42.3,307.8-42.3,308.7z M20.9,211.1c0-0.8-0.5-1.3-1.3-1.4c-0.9,0-1.4,0.4-1.5,1.3c0,0.9,0.5,1.4,1.4,1.4
				C20.4,212.5,20.9,212.1,20.9,211.1z M25.5,218.5c-0.1,0.9,0.4,1.5,1.3,1.5c0.9,0.1,1.5-0.4,1.5-1.3c0.1-0.9-0.4-1.4-1.3-1.5
				C26.1,217.2,25.6,217.6,25.5,218.5z M-64.6,248.6c0,0.9,0.5,1.4,1.4,1.4c0.9,0,1.4-0.5,1.4-1.4c0-0.9-0.5-1.4-1.4-1.5
				C-64.1,247.3-64.6,247.7-64.6,248.6z M-33.1,209.5c-0.9,0-1.4,0.5-1.4,1.4c0,0.9,0.5,1.4,1.4,1.4c0.9,0,1.4-0.5,1.5-1.4
				C-31.8,210-32.2,209.5-33.1,209.5z M-46.9,301.3c0-0.9-0.5-1.4-1.4-1.4c-0.9,0-1.4,0.5-1.4,1.4c0,0.9,0.5,1.4,1.4,1.4
				C-47.5,302.7-46.9,302.2-46.9,301.3z M41.8,284.8c-0.9,0-1.4,0.6-1.4,1.5c0,0.9,0.6,1.4,1.5,1.4c0.9,0,1.3-0.6,1.4-1.4
				C43.1,285.2,42.7,284.7,41.8,284.8z M4.3,314.8c-0.9,0-1.4,0.5-1.4,1.4c0,0.9,0.5,1.4,1.4,1.4c0.9,0,1.4-0.5,1.4-1.4
				C5.7,315.3,5.2,314.8,4.3,314.8z M34.5,224.7c-0.9-0.1-1.5,0.4-1.5,1.3c-0.1,0.9,0.4,1.5,1.3,1.5c0.9,0.1,1.4-0.4,1.5-1.3
				C35.8,225.3,35.4,224.7,34.5,224.7z M-61.8,271.3c0-0.9-0.5-1.4-1.4-1.4c-0.9,0-1.4,0.5-1.4,1.4c0,0.9,0.5,1.4,1.4,1.4
				C-62.3,272.6-61.8,272.2-61.8,271.3z M-55.8,232.1c-0.9,0-1.4,0.5-1.4,1.4c0,0.9,0.5,1.4,1.4,1.4c0.9,0,1.4-0.5,1.4-1.4
				C-54.4,232.6-54.9,232.1-55.8,232.1z M-16.9,316.3c0.1-0.9-0.4-1.5-1.3-1.5c-0.9-0.1-1.5,0.4-1.5,1.3c-0.1,0.9,0.4,1.4,1.3,1.5
				C-17.5,317.6-16.9,317.2-16.9,316.3z M-63.3,257.5c0.9,0.1,1.5-0.4,1.5-1.3c0.1-0.9-0.4-1.5-1.3-1.5c-0.9-0.1-1.4,0.4-1.5,1.3
				C-64.6,256.9-64.2,257.5-63.3,257.5z M-63.1,262.1c-0.9-0.1-1.5,0.5-1.6,1.4c0,0.9,0.5,1.4,1.4,1.5c0.9,0.1,1.4-0.5,1.6-1.4
				C-61.8,262.7-62.3,262.1-63.1,262.1z M20.9,308.8c0-0.9-0.5-1.5-1.5-1.5c-0.9,0-1.4,0.5-1.5,1.4c0,0.9,0.6,1.4,1.5,1.6
				C20.3,310.1,20.9,309.7,20.9,308.8z M-1.7,316.3c0.1-0.9-0.5-1.5-1.4-1.6c-0.9,0-1.4,0.5-1.5,1.4c-0.1,0.9,0.5,1.4,1.4,1.6
				C-2.3,317.6-1.7,317.2-1.7,316.3z M-10.8,314.7c-0.9,0-1.5,0.6-1.5,1.5c0,0.9,0.6,1.5,1.6,1.4c0.9-0.1,1.3-0.6,1.4-1.5
				C-9.5,315.3-10,314.7-10.8,314.7z M-40.8,217.2c-0.9,0-1.5,0.5-1.6,1.4c0,0.9,0.5,1.4,1.4,1.5c0.9,0.1,1.4-0.5,1.6-1.5
				C-39.5,217.8-39.9,217.2-40.8,217.2z M41.8,277.2c-0.9,0-1.4,0.6-1.4,1.4c0,0.9,0.6,1.5,1.5,1.5c0.9,0,1.4-0.6,1.5-1.5
				C43.2,277.8,42.7,277.2,41.8,277.2z M35.8,293.9c0-0.9-0.5-1.5-1.5-1.5c-0.9,0-1.4,0.5-1.5,1.4c0,0.9,0.5,1.4,1.5,1.6
				C35.2,295.3,35.8,294.8,35.8,293.9z M-27.2,210.9c0,0.9,0.6,1.5,1.5,1.5c0.9,0,1.5-0.6,1.4-1.6c0-0.9-0.6-1.3-1.5-1.4
				C-26.6,209.5-27.2,210-27.2,210.9z M-55.7,284.7c-0.9,0-1.5,0.6-1.5,1.5c0,0.9,0.6,1.5,1.5,1.4c0.9,0,1.3-0.6,1.4-1.5
				C-54.4,285.3-54.9,284.7-55.7,284.7z M-33.2,307.3c-0.9,0-1.5,0.6-1.5,1.5c0,0.9,0.6,1.5,1.6,1.4c0.9-0.1,1.3-0.6,1.4-1.5
				C-31.8,307.9-32.3,307.3-33.2,307.3z M-48.3,224.6c-0.9,0-1.5,0.5-1.5,1.4c0,0.9,0.5,1.4,1.4,1.5c0.9,0,1.4-0.5,1.6-1.4
				C-46.9,225.2-47.4,224.6-48.3,224.6z M26.9,299.8c-0.9,0-1.4,0.5-1.5,1.4c-0.1,0.9,0.5,1.5,1.4,1.6c0.9,0.1,1.4-0.5,1.6-1.5
				C28.3,300.5,27.9,299.8,26.9,299.8z M11.8,209.7c-0.9,0-1.5,0.5-1.5,1.4c0,0.9,0.5,1.4,1.4,1.5c0.9,0,1.4-0.5,1.6-1.4
				C13.2,210.3,12.7,209.7,11.8,209.7z M43.5,241.3c0-0.9-0.5-1.5-1.4-1.5c-0.9,0-1.4,0.5-1.5,1.4c0,0.9,0.5,1.4,1.4,1.6
				C42.9,242.6,43.5,242.2,43.5,241.3z M-18.4,209.4c-0.8,0-1.4,0.6-1.4,1.5c0,0.9,0.6,1.5,1.5,1.5c0.9,0,1.4-0.6,1.5-1.5
				C-16.9,210-17.4,209.4-18.4,209.4z M-55.8,239.7c-0.9,0-1.4,0.6-1.4,1.4c0,0.9,0.6,1.5,1.5,1.5c0.9,0,1.4-0.6,1.5-1.5
				C-54.4,240.3-54.9,239.7-55.8,239.7z M42.1,247.2c-0.9,0-1.4,0.5-1.5,1.4c-0.1,0.9,0.5,1.5,1.4,1.6c0.9,0.1,1.4-0.5,1.6-1.5
				C43.5,247.8,43,247.2,42.1,247.2z M4.3,209.7c-0.9,0-1.4,0.6-1.5,1.4c0,0.9,0.5,1.5,1.4,1.6c0.9,0,1.4-0.6,1.6-1.5
				C5.7,210.3,5.2,209.7,4.3,209.7z M34.4,232c-0.9,0-1.5,0.6-1.6,1.5c-0.1,0.8,0.7,1.7,1.6,1.6c0.9-0.1,1.4-0.6,1.5-1.5
				C35.9,232.7,35.2,231.9,34.4,232z M-42.4,301.2c0,0.8,0.8,1.7,1.6,1.6c0.9-0.1,1.5-0.6,1.5-1.5c0-0.9-0.6-1.4-1.4-1.5
				C-41.6,299.8-42.4,300.5-42.4,301.2z M41.8,269.7c-0.9,0-1.5,0.6-1.5,1.5c-0.1,0.8,0.8,1.7,1.6,1.6c0.9-0.1,1.4-0.7,1.5-1.6
				C43.2,270.3,42.7,269.7,41.8,269.7z M11.7,310.3c0.9,0,1.5-0.6,1.6-1.5c0.1-0.8-0.7-1.7-1.6-1.6c-0.9,0.1-1.4,0.6-1.5,1.5
				C10.3,309.7,10.8,310.3,11.7,310.3z M17.9,218.5c0,0.9,0.5,1.5,1.4,1.6c0.8,0.1,1.7-0.7,1.6-1.5c0-0.9-0.6-1.4-1.5-1.6
				C18.6,217.2,18,217.6,17.9,218.5z M-48.3,292.3c-0.9,0-1.5,0.6-1.5,1.5c-0.1,0.8,0.8,1.7,1.6,1.6c0.9-0.1,1.4-0.7,1.5-1.6
				C-46.9,292.9-47.4,292.3-48.3,292.3z M26.9,224.5c-0.9,0-1.5,0.6-1.5,1.5c-0.1,0.8,0.8,1.7,1.6,1.6c0.9-0.1,1.4-0.7,1.5-1.6
				C28.3,225.1,27.8,224.5,26.9,224.5z M-57.3,248.6c0,1,0.6,1.6,1.6,1.6c0.9,0,1.5-0.6,1.5-1.5c0-1-0.6-1.5-1.6-1.6
				C-56.7,247.2-57.3,247.7-57.3,248.6z M42.1,262.3c-0.9,0-1.5,0.6-1.6,1.5c-0.1,0.8,0.7,1.7,1.6,1.6c0.9-0.1,1.4-0.6,1.5-1.5
				C43.6,263.1,42.9,262.3,42.1,262.3z M-3.1,209.6c-0.9,0-1.5,0.5-1.6,1.4c-0.1,0.8,0.7,1.7,1.5,1.6c0.9,0,1.4-0.6,1.6-1.5
				C-1.7,210.3-2.2,209.7-3.1,209.6z M34.4,284.6c-1,0-1.6,0.6-1.6,1.5c0,0.9,0.6,1.5,1.5,1.5c1,0,1.5-0.6,1.6-1.5
				C35.8,285.3,35.3,284.6,34.4,284.6z M-33.1,217.1c-0.9,0-1.5,0.5-1.6,1.4c-0.1,0.8,0.7,1.7,1.5,1.6c0.9,0,1.4-0.6,1.6-1.5
				C-31.7,217.8-32.2,217.1-33.1,217.1z M42,257.6c0.9,0,1.5-0.6,1.6-1.5c0.1-0.8-0.7-1.7-1.6-1.6c-0.9,0.1-1.4,0.6-1.5,1.5
				C40.6,257,41.1,257.6,42,257.6z M-48.3,232c-1,0-1.6,0.6-1.6,1.6c0,0.9,0.6,1.5,1.5,1.5c1,0,1.5-0.6,1.6-1.6
				C-46.9,232.6-47.4,232-48.3,232z M-9.1,211c0-0.9-0.5-1.5-1.4-1.6c-0.8-0.1-1.7,0.7-1.6,1.6c0.1,0.9,0.6,1.4,1.5,1.5
				C-9.7,212.3-9.1,211.9-9.1,211z M-27.3,308.7c0,0.9,0.5,1.5,1.4,1.6c0.8,0.1,1.7-0.7,1.6-1.5c0-0.9-0.6-1.4-1.5-1.6
				C-26.6,307.3-27.2,307.8-27.3,308.7z M-54.3,278.8c0-0.9-0.5-1.5-1.4-1.6c-0.8-0.1-1.7,0.7-1.6,1.6c0.1,0.9,0.6,1.4,1.5,1.5
				C-54.9,280.2-54.3,279.7-54.3,278.8z M4.4,307.2c-1-0.1-1.6,0.5-1.7,1.5c0,0.9,0.5,1.5,1.4,1.6c1,0.1,1.5-0.5,1.7-1.5
				C5.8,307.9,5.3,307.3,4.4,307.2z M26.9,231.9c-1,0-1.6,0.6-1.5,1.6c0,1,0.6,1.6,1.6,1.5c1,0,1.5-0.7,1.6-1.6
				C28.4,232.5,27.9,231.9,26.9,231.9z M-55.7,269.7c-1,0-1.6,0.6-1.6,1.6c0,0.9,0.6,1.5,1.5,1.5c1,0,1.5-0.6,1.6-1.6
				C-54.3,270.3-54.8,269.7-55.7,269.7z M32.8,278.8c0,0.9,0.6,1.5,1.5,1.5c1,0,1.6-0.6,1.6-1.6c0-1-0.6-1.5-1.6-1.6
				C33.4,277.3,32.8,277.8,32.8,278.8z M26.9,292.3c-0.9,0-1.5,0.5-1.6,1.4c-0.1,1,0.5,1.6,1.5,1.7c1,0.1,1.5-0.6,1.7-1.6
				C28.4,293,27.9,292.3,26.9,292.3z M-55.9,254.6c-0.9,0-1.5,0.6-1.5,1.5c0,1,0.6,1.6,1.6,1.6c1,0,1.5-0.6,1.6-1.6
				C-54.3,255.1-54.9,254.5-55.9,254.6z M-34.7,301.3c0,0.9,0.5,1.5,1.4,1.6c1,0.1,1.6-0.5,1.7-1.5c0.1-1-0.5-1.5-1.5-1.7
				C-34.1,299.8-34.7,300.3-34.7,301.3z M21,301.4c0.1-1-0.5-1.6-1.5-1.7c-0.9,0-1.5,0.5-1.6,1.4c-0.1,1,0.5,1.5,1.5,1.7
				C20.3,302.8,20.9,302.3,21,301.4z M-40.8,292.3c-1,0-1.6,0.6-1.6,1.5c0,1,0.6,1.6,1.5,1.6c1,0,1.5-0.6,1.7-1.6
				C-39.4,293-39.9,292.3-40.8,292.3z M-55.8,262c-0.9,0-1.5,0.6-1.5,1.5c0,1,0.6,1.6,1.5,1.6c1,0,1.5-0.6,1.6-1.6
				C-54.3,262.6-54.8,262-55.8,262z M-27.3,218.7c0,0.9,0.6,1.5,1.5,1.5c1,0,1.6-0.6,1.6-1.6c0-1-0.6-1.5-1.6-1.6
				C-26.7,217.2-27.3,217.7-27.3,218.7z M-18.3,307.2c-1,0-1.6,0.6-1.5,1.6c0,0.9,0.6,1.5,1.5,1.5c1,0,1.5-0.6,1.6-1.6
				C-16.9,307.8-17.4,307.2-18.3,307.2z M-10.9,310.3c0.9,0,1.5-0.5,1.6-1.4c0.1-1-0.5-1.6-1.5-1.7c-1-0.1-1.5,0.5-1.7,1.6
				C-12.3,309.6-11.9,310.3-10.9,310.3z M-1.6,308.8c0-0.9-0.5-1.5-1.4-1.6c-1-0.1-1.6,0.5-1.7,1.5c-0.1,1,0.6,1.5,1.6,1.7
				C-2.2,310.2-1.6,309.8-1.6,308.8z M11.7,217.1c-0.9,0-1.5,0.6-1.5,1.5c0,1,0.5,1.6,1.5,1.6c1,0,1.5-0.6,1.6-1.5
				C13.2,217.7,12.7,217,11.7,217.1z M-46.8,286.2c0-0.9-0.6-1.5-1.5-1.6c-1-0.1-1.6,0.5-1.7,1.5c-0.1,1,0.6,1.5,1.5,1.7
				C-47.4,287.6-46.8,287.1-46.8,286.2z M-40.8,224.5c-1,0-1.6,0.6-1.6,1.5c0,0.9,0.6,1.5,1.5,1.6c1,0.1,1.5-0.6,1.7-1.6
				C-39.4,225.2-39.9,224.6-40.8,224.5z M21,226c0-1-0.6-1.6-1.6-1.5c-1,0-1.6,0.6-1.5,1.6c0,1,0.7,1.5,1.7,1.6
				C20.4,227.5,21.1,227,21,226z M32.8,241.2c0,0.9,0.6,1.5,1.5,1.6c1,0.1,1.6-0.5,1.7-1.5c0-1-0.6-1.5-1.5-1.7
				C33.4,239.7,32.8,240.2,32.8,241.2z M2.7,218.6c0,1,0.5,1.6,1.5,1.6c1,0,1.6-0.5,1.6-1.5c0-1-0.6-1.5-1.5-1.7
				C3.4,217.1,2.8,217.6,2.7,218.6z M13.3,301.3c0-1-0.6-1.6-1.6-1.6c-1,0-1.6,0.6-1.6,1.6c0,1,0.6,1.5,1.6,1.6
				C12.7,302.8,13.3,302.3,13.3,301.3z M-18.3,217c-1,0-1.6,0.6-1.6,1.5c0,1,0.6,1.6,1.5,1.6c1,0,1.5-0.6,1.6-1.6
				C-16.8,217.7-17.3,217.1-18.3,217z M-48.3,239.6c-1,0-1.6,0.6-1.6,1.5c0,1,0.6,1.6,1.5,1.6c1,0,1.5-0.6,1.6-1.5
				C-46.8,240.3-47.3,239.7-48.3,239.6z M34.3,247.1c-1,0-1.6,0.6-1.5,1.6c0,1,0.6,1.6,1.6,1.5c1,0,1.5-0.7,1.6-1.6
				C35.8,247.7,35.3,247.1,34.3,247.1z M34.4,254.5c-1,0-1.5,0.6-1.6,1.6c-0.1,0.9,0.7,1.7,1.7,1.6c1-0.1,1.5-0.7,1.6-1.6
				C35.9,255.1,35.4,254.5,34.4,254.5z M-39.3,233.5c0-1-0.6-1.5-1.6-1.6c-0.9,0-1.7,0.7-1.6,1.7c0.1,1,0.7,1.5,1.7,1.5
				C-39.9,235-39.3,234.5-39.3,233.5z M21.1,294c0-1-0.5-1.6-1.5-1.7c-0.9-0.1-1.7,0.6-1.7,1.6c0,1,0.6,1.5,1.5,1.6
				C20.4,295.4,21,294.9,21.1,294z M-25.8,299.7c-1,0-1.5,0.6-1.6,1.6c0,0.9,0.7,1.7,1.7,1.6c1-0.1,1.5-0.7,1.5-1.5
				C-24.2,300.4-24.9,299.7-25.8,299.7z M4.4,299.7c-0.9,0-1.7,0.7-1.7,1.6c0,0.9,0.7,1.7,1.7,1.6c1-0.1,1.5-0.6,1.6-1.4
				C5.9,300.4,5.3,299.7,4.4,299.7z M34.4,269.7c-1,0-1.6,0.5-1.6,1.5c-0.1,0.9,0.7,1.7,1.6,1.7c1,0,1.5-0.6,1.6-1.4
				C36,270.4,35.3,269.7,34.4,269.7z M-48.3,247.1c-0.9-0.1-1.7,0.7-1.7,1.6c0,0.9,0.7,1.7,1.7,1.6c1-0.1,1.5-0.6,1.6-1.6
				C-46.8,247.7-47.3,247.1-48.3,247.1z M32.8,263.8c0,1,0.5,1.6,1.5,1.6c0.9,0.1,1.7-0.7,1.7-1.6c0-1-0.6-1.5-1.4-1.6
				C33.5,262.2,32.8,262.9,32.8,263.8z M28.5,286.2c0-1-0.5-1.6-1.5-1.6c-0.9-0.1-1.7,0.7-1.7,1.6c0,1,0.6,1.5,1.4,1.6
				C27.8,287.8,28.5,287.1,28.5,286.2z M-34.8,226.1c0,1,0.6,1.5,1.6,1.6c0.9,0,1.7-0.8,1.6-1.7c-0.1-1-0.7-1.5-1.7-1.5
				C-34.2,224.6-34.8,225.1-34.8,226.1z M-49.9,278.7c0,1,0.6,1.5,1.6,1.6c0.9,0.1,1.7-0.7,1.6-1.7c-0.1-1-0.7-1.5-1.6-1.6
				C-49.3,277.2-49.9,277.7-49.9,278.7z M-3.1,217c-1,0-1.5,0.6-1.6,1.6c-0.1,0.9,0.7,1.7,1.7,1.6c1-0.1,1.5-0.7,1.6-1.6
				C-1.6,217.6-2.1,217-3.1,217z M-9,218.8c0.1-1-0.4-1.6-1.4-1.7c-0.9-0.1-1.8,0.6-1.8,1.5c0,1,0.5,1.5,1.5,1.7
				C-9.7,220.2-9.1,219.7-9,218.8z M-40.8,284.5c-0.9-0.1-1.7,0.6-1.7,1.6c0,0.9,0.7,1.7,1.6,1.7c1,0,1.5-0.6,1.6-1.5
				C-39.3,285.2-39.8,284.6-40.8,284.5z M-46.7,256.2c0-1-0.7-1.7-1.6-1.7c-1,0-1.6,0.6-1.6,1.6c-0.1,1,0.7,1.7,1.6,1.7
				C-47.4,257.7-46.7,257.1-46.7,256.2z M-31.6,294c0.1-0.9-0.6-1.7-1.6-1.7c-0.9,0-1.7,0.7-1.7,1.6c0,1,0.6,1.5,1.5,1.6
				C-32.3,295.4-31.7,295-31.6,294z M11.8,224.5c-0.9-0.1-1.7,0.7-1.7,1.6c0,1,0.6,1.5,1.5,1.6c0.9,0.1,1.7-0.7,1.7-1.8
				C13.3,225.1,12.8,224.5,11.8,224.5z M25.3,241.1c-0.1,0.9,0.6,1.7,1.6,1.7c0.9,0,1.7-0.7,1.7-1.6c0-1-0.6-1.5-1.5-1.6
				C26,239.6,25.4,240.1,25.3,241.1z M-18.2,299.7c-0.9-0.1-1.7,0.7-1.7,1.6c0,0.9,0.7,1.7,1.7,1.6c1-0.1,1.5-0.6,1.6-1.6
				C-16.7,300.4-17.2,299.8-18.2,299.7z M-48.2,269.7c-0.9,0-1.7,0.7-1.7,1.6c0,0.9,0.7,1.7,1.7,1.6c1,0,1.5-0.6,1.6-1.4
				C-46.7,270.4-47.4,269.7-48.2,269.7z M-12.5,301.3c0,1,0.7,1.7,1.7,1.6c1,0,1.5-0.6,1.6-1.6c0-1-0.7-1.7-1.8-1.7
				C-11.9,299.8-12.4,300.3-12.5,301.3z M-3,299.7c-1-0.1-1.7,0.6-1.8,1.6c0,1,0.7,1.7,1.6,1.7c1,0,1.5-0.6,1.6-1.5
				C-1.5,300.4-2,299.8-3,299.7z M28.5,278.8c0.1-1-0.6-1.7-1.6-1.7c-1,0-1.6,0.5-1.6,1.5c-0.1,1,0.6,1.7,1.8,1.7
				C27.9,280.3,28.5,279.8,28.5,278.8z M-25.7,224.4c-1-0.1-1.7,0.7-1.7,1.6c0,1,0.6,1.6,1.6,1.6c1,0.1,1.7-0.7,1.7-1.8
				C-24.2,225.1-24.7,224.5-25.7,224.4z M-33.3,231.9c-1,0.1-1.5,0.6-1.5,1.6c0,1.1,0.6,1.6,1.7,1.7c1,0,1.7-0.7,1.6-1.7
				C-31.6,232.5-32.3,231.8-33.3,231.9z M21.1,233.6c0.1-1-0.6-1.7-1.6-1.8c-1,0-1.7,0.7-1.7,1.6c0,1,0.6,1.5,1.5,1.6
				C20.4,235.1,21,234.6,21.1,233.6z M4.2,224.4c-1,0.1-1.6,0.6-1.6,1.6c0,1.1,0.6,1.6,1.6,1.7c1,0,1.7-0.7,1.6-1.7
				C5.9,225.1,5.2,224.4,4.2,224.4z M10.1,293.9c0,1,0.6,1.5,1.6,1.6c1,0.1,1.7-0.7,1.7-1.6c0-1-0.7-1.7-1.7-1.7
				C10.8,292.2,10.1,292.9,10.1,293.9z M-40.9,239.6c-1,0-1.6,0.6-1.6,1.5c-0.1,1,0.6,1.7,1.6,1.7c1,0,1.7-0.7,1.7-1.6
				C-39.2,240.3-39.9,239.6-40.9,239.6z M-48.3,261.9c-1-0.1-1.7,0.7-1.7,1.6c0,1,0.6,1.6,1.5,1.6c1,0.1,1.7-0.7,1.7-1.8
				C-46.8,262.6-47.3,262-48.3,261.9z M26.8,247c-1,0.1-1.5,0.6-1.5,1.6c0,1.1,0.6,1.6,1.7,1.7c1,0,1.7-0.7,1.6-1.7
				C28.5,247.7,27.8,247,26.8,247z M-19.9,226.2c0.1,1,0.7,1.5,1.6,1.5c1,0,1.7-0.7,1.6-1.7c0-1-0.7-1.6-1.7-1.6
				C-19.3,224.4-20,225.2-19.9,226.2z M-42.5,278.8c0.1,1,0.6,1.5,1.6,1.6c1,0.1,1.7-0.7,1.7-1.6c0-1.1-0.6-1.6-1.5-1.7
				C-41.9,277.1-42.6,277.8-42.5,278.8z M21.1,286.2c0-1-0.6-1.6-1.5-1.6c-1-0.1-1.7,0.6-1.8,1.6c0,1,0.7,1.7,1.6,1.7
				C20.4,287.8,21.1,287.1,21.1,286.2z M-25.7,292.2c-1.1,0-1.7,0.6-1.7,1.6c0,1.1,0.6,1.7,1.6,1.7c1.1,0,1.6-0.6,1.7-1.6
				C-24.1,292.9-24.6,292.2-25.7,292.2z M27,269.6c-1,0-1.7,0.5-1.7,1.6c0,1,0.5,1.7,1.6,1.7c1.1,0,1.6-0.5,1.7-1.6
				C28.5,270.3,28,269.6,27,269.6z M-4.8,226c-0.1,1,0.5,1.7,1.5,1.8c1,0.1,1.7-0.5,1.8-1.5c0.1-1-0.5-1.6-1.6-1.8
				C-4,224.4-4.7,224.9-4.8,226z M-10.6,224.4c-1.1,0-1.6,0.6-1.6,1.7c0,1.1,0.6,1.6,1.7,1.6c1.1,0,1.6-0.6,1.7-1.7
				C-9,225-9.5,224.4-10.6,224.4z M25.3,256c0,1,0.5,1.7,1.6,1.7c1,0,1.7-0.5,1.7-1.6c0-1.1-0.5-1.6-1.6-1.7
				C26,254.5,25.3,255,25.3,256z M-34.8,286.2c0,1.1,0.7,1.6,1.7,1.6c1.1,0,1.6-0.7,1.6-1.7c0-1.1-0.7-1.6-1.7-1.6
				C-34.3,284.6-34.9,285.2-34.8,286.2z M21.1,241.3c0-1-0.5-1.7-1.6-1.7c-1-0.1-1.8,0.7-1.8,1.7c0,1.1,0.6,1.6,1.7,1.7
				C20.5,242.8,21.1,242.3,21.1,241.3z M28.6,263.8c0-1.1-0.7-1.6-1.7-1.6c-1.1,0-1.6,0.7-1.6,1.7c0,1.1,0.7,1.6,1.7,1.6
				C28,265.4,28.6,264.8,28.6,263.8z M-40.9,247c-1.1,0-1.7,0.6-1.7,1.6c0,1.1,0.6,1.7,1.6,1.7c1.1,0,1.6-0.6,1.7-1.6
				C-39.3,247.6-39.8,247-40.9,247z M11.8,231.8c-1,0-1.6,0.6-1.7,1.6c-0.1,1,0.7,1.8,1.7,1.7c1.1-0.1,1.6-0.7,1.7-1.7
				C13.4,232.5,12.8,231.8,11.8,231.8z M6,293.9c0-1-0.6-1.6-1.6-1.7c-1-0.1-1.8,0.7-1.7,1.7c0.1,1.1,0.7,1.6,1.7,1.6
				C5.4,295.5,6,294.9,6,293.9z M-42.6,271.2c0,1,0.6,1.6,1.6,1.7c1,0.1,1.8-0.7,1.7-1.7c-0.1-1.1-0.7-1.6-1.7-1.7
				C-41.9,269.7-42.6,270.2-42.6,271.2z M-39.2,256.2c0-1-0.5-1.7-1.6-1.7c-1-0.1-1.8,0.7-1.8,1.7c0,1.1,0.6,1.6,1.7,1.7
				C-39.9,257.7-39.2,257.2-39.2,256.2z M-24.1,233.6c0.1-1-0.4-1.7-1.5-1.8c-1-0.1-1.8,0.6-1.9,1.6c0,1,0.5,1.6,1.6,1.8
				C-24.8,235.2-24.1,234.7-24.1,233.6z M-18.2,292.2c-1,0-1.7,0.5-1.8,1.6c-0.1,1,0.6,1.8,1.7,1.8c1,0,1.6-0.6,1.7-1.5
				C-16.6,293-17.2,292.2-18.2,292.2z M-39.1,263.6c0-1-0.6-1.6-1.6-1.8c-0.9-0.1-1.8,0.7-1.9,1.7c0,0.9,0.8,1.8,1.7,1.8
				C-40,265.3-39.1,264.5-39.1,263.6z M17.7,248.6c0,0.9,0.8,1.8,1.8,1.8c0.9,0,1.8-0.8,1.8-1.8c0-0.9-0.8-1.8-1.8-1.8
				C18.6,246.9,17.7,247.7,17.7,248.6z M4.3,231.7c-0.9,0-1.8,0.9-1.8,1.8c0,0.9,0.9,1.8,1.8,1.8c0.9,0,1.8-0.9,1.8-1.8
				C6.1,232.5,5.2,231.7,4.3,231.7z M21.2,278.7c0-1-0.6-1.6-1.6-1.8c-0.9-0.1-1.8,0.7-1.9,1.7c0,0.9,0.8,1.8,1.7,1.8
				C20.4,280.5,21.3,279.7,21.2,278.7z M-33.3,239.5c-1,0.1-1.6,0.7-1.7,1.7c-0.1,0.9,0.8,1.8,1.8,1.8c0.9,0,1.8-0.9,1.7-1.8
				C-31.5,240.2-32.3,239.4-33.3,239.5z M10,286.2c0.1,1,0.7,1.6,1.7,1.7c0.9,0.1,1.8-0.8,1.8-1.8c0-0.9-0.9-1.8-1.8-1.7
				C10.8,284.4,9.9,285.3,10,286.2z M-9.1,293.8c-0.1-1-0.7-1.6-1.7-1.7c-0.9-0.1-1.8,0.8-1.8,1.7c0,0.9,0.8,1.8,1.8,1.8
				C-9.9,295.6-9,294.8-9.1,293.8z M-3.1,292.1c-1,0.1-1.6,0.6-1.8,1.6c-0.1,0.9,0.7,1.8,1.7,1.9c0.9,0,1.8-0.8,1.8-1.7
				C-1.4,293-2.2,292.1-3.1,292.1z M-35,278.7c0,0.9,0.8,1.8,1.8,1.8c0.9,0,1.8-0.8,1.8-1.8c0-0.9-0.8-1.8-1.8-1.8
				C-34.1,276.9-34.9,277.7-35,278.7z M-18.3,231.7c-0.9,0-1.8,0.8-1.8,1.8c0,0.9,0.8,1.8,1.8,1.8c0.9,0,1.8-0.8,1.8-1.8
				C-16.5,232.6-17.3,231.7-18.3,231.7z M19.5,269.5c-0.9,0-1.8,0.8-1.8,1.8c0,0.9,0.8,1.8,1.8,1.8c0.9,0,1.8-0.8,1.8-1.8
				C21.3,270.4,20.4,269.5,19.5,269.5z M-23.9,286.1c0-0.9-0.9-1.8-1.8-1.8c-0.9,0-1.8,0.9-1.8,1.8c0,0.9,0.9,1.8,1.8,1.8
				C-24.8,287.9-23.9,287.1-23.9,286.1z M-3.1,231.7c-0.9,0-1.8,0.8-1.8,1.7c0,1,0.9,1.9,1.8,1.9c0.9,0,1.8-0.9,1.8-1.8
				C-1.3,232.6-2.2,231.7-3.1,231.7z M-35,248.6c0,0.9,0.8,1.8,1.8,1.8c1,0,1.9-0.9,1.9-1.9c0-0.9-0.9-1.8-1.8-1.8
				C-34.1,246.9-35,247.7-35,248.6z M-33.1,269.4c-1,0-1.9,0.9-1.9,1.8c0,0.9,0.8,1.8,1.8,1.8c1,0,1.9-0.9,1.9-1.8
				C-31.4,270.3-32.2,269.5-33.1,269.4z M4.3,284.4c-0.9,0-1.8,0.9-1.8,1.8c0,1,0.9,1.9,1.9,1.8c0.9-0.1,1.7-0.9,1.7-1.9
				C6.1,285.2,5.2,284.3,4.3,284.4z M-10.5,231.7c-0.9,0-1.8,0.8-1.9,1.7c-0.1,1,0.8,1.9,1.8,1.9c0.9,0,1.8-0.8,1.8-1.8
				C-8.8,232.6-9.6,231.7-10.5,231.7z M-23.9,241.3c0-1-0.9-1.9-1.8-1.9c-0.9,0-1.8,0.8-1.8,1.8c0,1,0.9,1.9,1.8,1.9
				C-24.8,243-23.9,242.2-23.9,241.3z M-18.2,284.3c-1,0-1.9,0.9-1.9,1.8c0,0.9,0.8,1.8,1.8,1.8c1,0,1.9-0.9,1.9-1.8
				C-16.5,285.2-17.3,284.4-18.2,284.3z M10,241.2c0,0.9,0.8,1.8,1.7,1.8c1,0,1.9-0.9,1.9-1.8c0-0.9-0.9-1.8-1.8-1.8
				C10.8,239.4,10,240.3,10,241.2z M-31.4,256.2c0.1-1-0.8-1.9-1.8-1.9c-0.9,0-1.8,0.8-1.8,1.7c-0.1,1,0.8,1.9,1.8,1.9
				C-32.3,257.9-31.4,257.1-31.4,256.2z M19.5,254.3c-0.9,0-1.8,0.8-1.8,1.7c0,1,0.9,1.9,1.8,1.9c0.9,0,1.8-0.9,1.8-1.8
				C21.3,255.2,20.4,254.3,19.5,254.3z M19.5,262c-0.9,0-1.8,0.8-1.9,1.7c-0.1,1,0.8,1.9,1.8,1.9c0.9,0,1.8-0.8,1.8-1.8
				C21.3,262.9,20.5,262.1,19.5,262z M13.6,278.8c0.1-1-0.8-1.9-1.8-1.9c-0.9,0-1.8,0.8-1.9,1.7c-0.1,1,0.8,1.9,1.8,1.9
				C12.6,280.6,13.5,279.8,13.6,278.8z M-4.9,286c-0.1,1,0.8,1.9,1.8,1.9c0.9,0,1.8-0.8,1.9-1.7c0.1-1-0.8-1.9-1.8-1.9
				C-4,284.3-4.9,285.1-4.9,286z M-10.8,284.3c-1.1,0-1.7,0.7-1.9,1.7c-0.1,0.9,0.8,1.9,1.7,2c1,0.1,1.9-0.8,1.9-1.8
				C-9,285.3-9.8,284.3-10.8,284.3z M-35,263.6c0.1,1.1,0.7,1.7,1.8,1.8c1,0.1,1.9-0.8,1.9-1.8c0-1-0.9-1.9-1.8-1.9
				C-34.2,261.7-35.1,262.6-35,263.6z M-25.8,276.9c-1.1,0.1-1.7,0.7-1.8,1.8c-0.1,1,0.8,1.9,1.8,1.9c1,0,1.9-0.9,1.9-1.8
				C-23.9,277.7-24.8,276.8-25.8,276.9z M4.3,239.4c-1.1,0-1.7,0.7-1.8,1.7c-0.1,0.9,0.8,1.9,1.7,1.9c1,0,1.9-0.8,1.9-1.8
				C6.2,240.3,5.3,239.4,4.3,239.4z M11.7,246.8c-1.1,0.1-1.7,0.7-1.8,1.8c-0.1,1,0.9,1.9,1.8,1.9c1,0,1.9-0.9,1.8-1.9
				C13.6,247.7,12.6,246.7,11.7,246.8z M-16.4,241.1c0-0.9-0.9-1.8-1.8-1.8c-1,0-1.9,0.9-1.9,1.9c0,1,0.9,1.9,1.9,1.8
				C-17.3,243-16.4,242.1-16.4,241.1z M6.2,278.8c0-0.9-0.7-1.8-1.7-1.9c-1-0.1-1.9,0.7-2,1.7c-0.1,1,0.7,1.9,1.7,2
				C5.2,280.6,6.1,279.8,6.2,278.8z M-3.1,239.4c-0.9,0-1.8,0.8-1.9,1.7c-0.1,1,0.8,1.9,1.7,2c1,0.1,1.9-0.8,1.9-1.8
				C-1.2,240.3-2.1,239.4-3.1,239.4z M-25.8,246.8c-0.9,0-1.8,0.8-1.8,1.8c0,1,0.8,1.9,1.8,1.9c1,0,1.9-0.8,1.9-1.8
				C-23.9,247.7-24.8,246.8-25.8,246.8z M9.9,271.3c0,0.9,0.8,1.8,1.8,1.8c1,0,1.9-0.8,1.9-1.8c0-1-0.9-1.9-1.9-1.9
				C10.8,269.4,9.9,270.3,9.9,271.3z M9.9,256.2c0,1,0.9,1.8,1.9,1.8c1,0,1.8-0.9,1.8-1.9c0-1-0.9-1.8-1.9-1.8
				C10.7,254.3,9.9,255.2,9.9,256.2z M-25.8,261.7c-1,0-1.8,0.8-1.8,1.9c0,1.1,0.9,1.9,2,1.9c1,0,1.8-0.9,1.8-1.9
				C-23.9,262.5-24.7,261.7-25.8,261.7z M-3.1,276.8c-1,0-1.9,0.8-1.9,1.8c0,1.1,0.8,2,1.9,1.9c1,0,1.8-0.9,1.8-1.9
				C-1.3,277.7-2.1,276.9-3.1,276.8z M-10.8,276.8c-1,0-1.9,0.8-1.9,1.8c0,1.1,0.8,1.9,1.9,1.9c1,0,1.8-0.9,1.8-1.9
				C-9,277.7-9.8,276.9-10.8,276.8z M-20.1,278.7c0,1,0.9,1.9,1.9,1.9c1,0,1.9-0.9,1.9-1.9c0-1-0.9-1.9-1.9-1.9
				C-19.3,276.8-20.1,277.7-20.1,278.7z M4.4,246.8c-1-0.1-1.9,0.7-2,1.7c-0.1,1.1,0.8,2,1.8,2c1,0,1.9-0.8,1.9-1.8
				C6.2,247.7,5.4,246.8,4.4,246.8z M-10.6,239.4c-1,0-1.9,0.9-1.9,1.9c0,1,0.9,1.9,1.9,1.9c1,0,1.9-0.9,1.9-1.9
				C-8.7,240.2-9.6,239.4-10.6,239.4z M-25.6,269.4c-1-0.1-1.9,0.8-2,1.8c-0.1,1,0.8,1.9,1.8,2c1,0.1,1.9-0.8,2-1.8
				C-23.8,270.4-24.6,269.5-25.6,269.4z M-27.6,256c0,1,0.8,1.9,1.8,1.9c1.1,0.1,2-0.8,2-1.9c0-1-0.8-1.8-1.8-1.9
				C-26.7,254.2-27.6,255-27.6,256z M11.7,262c-1,0-1.8,0.9-1.8,1.9c0,1,0.9,1.8,1.9,1.8c1,0,1.8-0.9,1.8-1.9
				C13.6,262.8,12.7,261.9,11.7,262z M4.3,269.4c-1.1,0-1.9,0.8-1.9,1.9c0,1,0.8,1.8,1.9,1.8c1.1,0,1.9-0.8,1.9-1.9
				C6.2,270.2,5.4,269.4,4.3,269.4z M-18.3,246.8c-1.1,0-1.9,0.8-1.9,1.9c0,1.1,0.9,1.9,2,1.8c1,0,1.8-0.9,1.8-1.9
				C-16.4,247.6-17.2,246.8-18.3,246.8z M-16.4,271.3c0-1.1-0.8-1.9-1.9-2c-1,0-1.9,0.7-1.9,1.8c-0.1,1.1,0.7,2,1.8,2
				C-17.3,273.2-16.4,272.4-16.4,271.3z M2.4,263.6c0,1,0.8,1.8,1.9,1.8c1.1,0,1.9-0.8,1.9-1.9c0-1.1-0.9-1.9-2-1.9
				C3.2,261.7,2.4,262.5,2.4,263.6z M-1.2,248.6c0-1-0.8-1.8-1.9-1.8c-1.1,0-1.9,0.8-1.9,1.9c0,1.1,0.8,1.9,1.9,1.9
				C-2,250.5-1.2,249.7-1.2,248.6z M4.2,254.2c-1,0-1.8,0.8-1.8,1.9c0,1.1,0.8,1.9,1.9,1.9c1.1,0,1.9-0.8,1.9-1.9
				C6.2,255,5.3,254.2,4.2,254.2z M-10.6,246.8c-1,0-1.8,0.8-1.9,1.8c0,1.1,0.8,1.9,1.8,2c1.1,0,1.9-0.8,1.9-1.9
				C-8.7,247.6-9.5,246.8-10.6,246.8z M-3.1,269.4c-1.1,0-1.9,0.8-1.9,1.9c0,1.1,0.8,1.9,1.9,1.9c1.1,0,1.9-0.8,1.9-1.9
				C-1.2,270.2-2,269.4-3.1,269.4z M-16.4,256.1c0-1.1-0.8-1.9-1.9-1.9c-1.1,0-1.9,0.8-1.9,1.9c0,1.1,0.8,1.9,1.9,1.9
				C-17.2,258-16.4,257.2-16.4,256.1z M-16.4,263.6c0-1.1-0.8-1.9-1.9-1.9c-1.1,0-1.9,0.8-1.9,1.9c0,1.1,0.8,1.9,1.9,1.9
				C-17.2,265.5-16.4,264.7-16.4,263.6z M-12.5,271.3c0,1.1,0.8,1.9,1.9,1.9c1.1,0,1.9-0.8,1.9-1.9c0-1.1-0.8-1.9-1.9-1.9
				C-11.7,269.4-12.5,270.2-12.5,271.3z M-1.2,256.1c0-1.1-0.8-1.9-1.9-1.9c-1.1,0-1.9,0.8-1.9,1.9c0,1.1,0.8,1.9,1.9,1.9
				C-2,258-1.2,257.2-1.2,256.1z M-12.5,256.1c0,1.1,0.8,1.9,1.9,2c1.2,0,2-0.8,2-2c0-1.1-0.8-1.9-1.9-1.9
				C-11.7,254.2-12.5,255-12.5,256.1z M-12.5,263.5c0,1.2,0.8,2,2,2c1.2,0,2-0.9,1.9-2c0-1.1-0.9-1.9-2-1.9
				C-11.7,261.6-12.5,262.4-12.5,263.5z M-5.1,263.5c0,1.1,0.7,2,1.8,2c1.2,0.1,2-0.8,2-1.9c0-1.1-0.8-1.9-1.9-1.9
				C-4.2,261.6-5,262.4-5.1,263.5z"/>
			<g style="clip-path:url(#SVGID_00000140711673447627826420000016819816693435637402_);">
				
					<ellipse transform="matrix(0.1589 -0.9873 0.9873 0.1589 -220.3525 647.7577)" class="st32" cx="270" cy="453.2" rx="25.5" ry="25.5"/>
				
					<ellipse transform="matrix(0.2313 -0.9729 0.9729 0.2313 468.7723 695.4811)" class="st32" cx="674.5" cy="51.1" rx="15.4" ry="15.4"/>
				
					<ellipse transform="matrix(0.38 -0.925 0.925 0.38 -135.2048 221.2282)" class="st32" cx="97.4" cy="211.5" rx="11.6" ry="11.6"/>
				<path class="st32" d="M322.8,26.2c0,3.3,2.7,5.9,5.9,5.9c3.3,0,5.9-2.7,5.9-5.9c0-3.3-2.7-5.9-5.9-5.9
					C325.5,20.3,322.8,22.9,322.8,26.2z"/>
				<path class="st32" d="M713.5,418.7c0,3.3,2.7,5.9,5.9,5.9c3.3,0,5.9-2.7,5.9-5.9c0-3.3-2.7-5.9-5.9-5.9
					C716.2,412.8,713.5,415.4,713.5,418.7z"/>
				<path class="st32" d="M48.4,480.3c0,3.3,2.7,5.9,5.9,5.9c3.3,0,5.9-2.7,5.9-5.9s-2.7-5.9-5.9-5.9C51,474.4,48.4,477,48.4,480.3z
					"/>
			</g>
			<g style="clip-path:url(#SVGID_00000140711673447627826420000016819816693435637402_);">
				<g>
					<path class="st33" d="M208.1,37.6c-21.8,0-39.6-17.8-39.6-39.6c0-21.8,17.8-39.6,39.6-39.6c21.8,0,39.6,17.8,39.6,39.6
						C247.7,19.9,229.9,37.6,208.1,37.6z M208.1-27.9c-14.3,0-25.9,11.6-25.9,25.9c0,14.3,11.6,25.9,25.9,25.9
						C222.4,24,234,12.3,234-2C234-16.3,222.4-27.9,208.1-27.9z"/>
				</g>
				<g>
					<path class="st33" d="M101.5,37.6C79.7,37.6,62,19.9,62-2c0-21.8,17.7-39.6,39.6-39.6S141.1-23.8,141.1-2
						C141.1,19.9,123.4,37.6,101.5,37.6z M101.5-27.9C87.2-27.9,75.6-16.3,75.6-2c0,14.3,11.6,25.9,25.9,25.9S127.5,12.3,127.5-2
						C127.5-16.3,115.9-27.9,101.5-27.9z"/>
				</g>
				<g>
					<path class="st33" d="M-5,37.6c-21.8,0-39.6-17.8-39.6-39.6c0-21.8,17.7-39.6,39.6-39.6c21.8,0,39.6,17.8,39.6,39.6
						C34.6,19.9,16.8,37.6-5,37.6z M-5-27.9C-19.3-27.9-31-16.3-31-2C-31,12.3-19.3,24-5,24C9.3,24,20.9,12.3,20.9-2
						C20.9-16.3,9.3-27.9-5-27.9z"/>
				</g>
			</g>
			<g style="clip-path:url(#SVGID_00000140711673447627826420000016819816693435637402_);">
				<g>
					<path class="st33" d="M860,535c-21.8,0-39.6-17.8-39.6-39.6c0-21.8,17.8-39.6,39.6-39.6c21.8,0,39.6,17.8,39.6,39.6
						C899.5,517.3,881.8,535,860,535z M860,469.5c-14.3,0-25.9,11.6-25.9,25.9c0,14.3,11.6,25.9,25.9,25.9
						c14.3,0,25.9-11.6,25.9-25.9C885.9,481.1,874.3,469.5,860,469.5z"/>
				</g>
				<g>
					<path class="st33" d="M753.4,535c-21.8,0-39.6-17.8-39.6-39.6c0-21.8,17.7-39.6,39.6-39.6c21.8,0,39.6,17.8,39.6,39.6
						C793,517.3,775.2,535,753.4,535z M753.4,469.5c-14.3,0-25.9,11.6-25.9,25.9c0,14.3,11.6,25.9,25.9,25.9
						c14.3,0,25.9-11.6,25.9-25.9C779.4,481.1,767.7,469.5,753.4,469.5z"/>
				</g>
				<g>
					<path class="st33" d="M646.9,535c-21.8,0-39.6-17.8-39.6-39.6c0-21.8,17.7-39.6,39.6-39.6c21.8,0,39.6,17.8,39.6,39.6
						C686.4,517.3,668.7,535,646.9,535z M646.9,469.5c-14.3,0-25.9,11.6-25.9,25.9c0,14.3,11.6,25.9,25.9,25.9
						c14.3,0,25.9-11.6,25.9-25.9C672.8,481.1,661.2,469.5,646.9,469.5z"/>
				</g>
			</g>
			<g style="clip-path:url(#SVGID_00000140711673447627826420000016819816693435637402_);">
				<path class="st2" d="M-19.1,183.3l-2.2-2C-7.2,166,11,154.1,31.3,147c20.4-7.1,42-9.2,62.5-6c9.5,1.5,19.1,4,28.4,6.4
					c22,5.8,42.9,11.3,63.2,4.4c13.2-4.5,24.2-14,34.9-23.2c10.2-8.9,20.8-18,33.6-23c17.3-6.8,36.3-5.1,54.7-3.5
					c3.9,0.3,8,0.7,11.9,0.9c14.5,1,35.7,1,51-9.7c7.3-5.1,12.7-12,18.5-19.3c5-6.4,10.2-13,16.7-18.1C423.5,42.3,446,39,467.7,37.3
					c2.2-0.2,4.5-0.3,6.7-0.5c18.8-1.3,38.3-2.7,55.2-11c17.7-8.6,33.7-28.9,28.7-49.5l2.9-0.7c5.4,22.1-11.6,43.8-30.3,52.9
					c-17.4,8.5-37.2,9.9-56.3,11.3c-2.2,0.2-4.5,0.3-6.7,0.5c-21.3,1.6-43.2,4.9-59.4,17.8c-6.2,5-11.3,11.4-16.2,17.7
					c-5.6,7.2-11.5,14.6-19.1,19.9c-16.1,11.2-37.9,11.2-52.9,10.2c-4-0.3-8-0.6-12-1c-18-1.6-36.7-3.2-53.4,3.3
					c-12.3,4.8-22.7,13.8-32.8,22.5c-10.9,9.4-22.1,19.1-35.9,23.8c-21.1,7.2-43.4,1.4-64.9-4.3c-9.2-2.4-18.8-4.9-28.1-6.4
					c-20.1-3.1-41.2-1.1-61.1,5.9C12.4,156.8-5.4,168.4-19.1,183.3z"/>
			</g>
		</g>
	</g>
</g>
</svg>
