<svg xmlns="http://www.w3.org/2000/svg" xmlns:xlink="http://www.w3.org/1999/xlink" width="249" height="109" viewBox="0 0 249 109">
  <defs>
    <clipPath id="clip-path">
      <rect id="Rectangle_464" data-name="Rectangle 464" width="249" height="109" rx="10" transform="translate(464 464)" fill="#faf8ff"/>
    </clipPath>
  </defs>
  <g id="Group_688" data-name="Group 688" transform="translate(-1025 -391)">
    <g id="Group_687" data-name="Group 687" transform="translate(561 67)">
      <g id="Mask_Group_10" data-name="Mask Group 10" transform="translate(0 -140)" opacity="0.2" clip-path="url(#clip-path)">
        <line id="Line_156" data-name="Line 156" x1="35" y2="116.647" transform="translate(704.5 458.558)" fill="none" stroke="#707070" stroke-width="1"/>
        <line id="Line_157" data-name="Line 157" x1="35" y2="116.647" transform="translate(694.5 458.558)" fill="none" stroke="#707070" stroke-width="1"/>
        <line id="Line_160" data-name="Line 160" x1="35" y2="116.647" transform="translate(664.5 458.558)" fill="none" stroke="#707070" stroke-width="1"/>
        <line id="Line_161" data-name="Line 161" x1="35" y2="116.647" transform="translate(654.5 458.558)" fill="none" stroke="#707070" stroke-width="1"/>
        <line id="Line_162" data-name="Line 162" x1="35" y2="116.647" transform="translate(684.5 458.558)" fill="none" stroke="#707070" stroke-width="1"/>
        <line id="Line_163" data-name="Line 163" x1="35" y2="116.647" transform="translate(674.5 458.558)" fill="none" stroke="#707070" stroke-width="1"/>
        <line id="Line_164" data-name="Line 164" x1="35" y2="116.647" transform="translate(624.5 458.558)" fill="none" stroke="#707070" stroke-width="1"/>
        <line id="Line_165" data-name="Line 165" x1="35" y2="116.647" transform="translate(614.5 458.558)" fill="none" stroke="#707070" stroke-width="1"/>
        <line id="Line_166" data-name="Line 166" x1="35" y2="116.647" transform="translate(644.5 458.558)" fill="none" stroke="#707070" stroke-width="1"/>
        <line id="Line_167" data-name="Line 167" x1="35" y2="116.647" transform="translate(634.5 458.558)" fill="none" stroke="#707070" stroke-width="1"/>
        <line id="Line_168" data-name="Line 168" x1="35" y2="116.647" transform="translate(584.5 458.558)" fill="none" stroke="#707070" stroke-width="1"/>
        <line id="Line_169" data-name="Line 169" x1="35" y2="116.647" transform="translate(574.5 458.558)" fill="none" stroke="#707070" stroke-width="1"/>
        <line id="Line_170" data-name="Line 170" x1="35" y2="116.647" transform="translate(604.5 458.558)" fill="none" stroke="#707070" stroke-width="1"/>
        <line id="Line_171" data-name="Line 171" x1="35" y2="116.647" transform="translate(594.5 458.558)" fill="none" stroke="#707070" stroke-width="1"/>
        <line id="Line_172" data-name="Line 172" x1="35" y2="116.647" transform="translate(544.5 458.558)" fill="none" stroke="#707070" stroke-width="1"/>
        <line id="Line_173" data-name="Line 173" x1="35" y2="116.647" transform="translate(534.5 458.558)" fill="none" stroke="#707070" stroke-width="1"/>
        <line id="Line_174" data-name="Line 174" x1="35" y2="116.647" transform="translate(564.5 458.558)" fill="none" stroke="#707070" stroke-width="1"/>
        <line id="Line_175" data-name="Line 175" x1="35" y2="116.647" transform="translate(554.5 458.558)" fill="none" stroke="#707070" stroke-width="1"/>
        <line id="Line_176" data-name="Line 176" x1="35" y2="116.647" transform="translate(504.5 458.558)" fill="none" stroke="#707070" stroke-width="1"/>
        <line id="Line_177" data-name="Line 177" x1="35" y2="116.647" transform="translate(494.5 458.558)" fill="none" stroke="#707070" stroke-width="1"/>
        <line id="Line_178" data-name="Line 178" x1="35" y2="116.647" transform="translate(524.5 458.558)" fill="none" stroke="#707070" stroke-width="1"/>
        <line id="Line_179" data-name="Line 179" x1="35" y2="116.647" transform="translate(514.5 458.558)" fill="none" stroke="#707070" stroke-width="1"/>
        <line id="Line_180" data-name="Line 180" x1="35" y2="116.647" transform="translate(484.5 458.558)" fill="none" stroke="#707070" stroke-width="1"/>
        <line id="Line_181" data-name="Line 181" x1="35" y2="116.647" transform="translate(454.5 458.558)" fill="none" stroke="#707070" stroke-width="1"/>
        <line id="Line_182" data-name="Line 182" x1="35" y2="116.647" transform="translate(444.5 458.558)" fill="none" stroke="#707070" stroke-width="1"/>
        <line id="Line_183" data-name="Line 183" x1="35" y2="116.647" transform="translate(474.5 458.558)" fill="none" stroke="#707070" stroke-width="1"/>
        <line id="Line_184" data-name="Line 184" x1="35" y2="116.647" transform="translate(464.5 458.558)" fill="none" stroke="#707070" stroke-width="1"/>
      </g>
    </g>
  </g>
</svg>
