<?xml version="1.0" encoding="utf-8"?>
<!-- Generator: Adobe Illustrator 26.4.1, SVG Export Plug-In . SVG Version: 6.00 Build 0)  -->
<svg version="1.1" id="_x2018_лой_x5F_1" xmlns="http://www.w3.org/2000/svg" xmlns:xlink="http://www.w3.org/1999/xlink"
	 x="0px" y="0px" viewBox="0 0 3000 2000" style="enable-background:new 0 0 3000 2000;" xml:space="preserve">
<style type="text/css">
	.st0{fill:#FFFFFF;}
	.st1{fill:#EBF3FA;}
	.st2{fill:#F8FCFF;}
	.st3{opacity:0.5;}
	.st4{fill:#C5DDFF;}
	.st5{fill:#DFEBF9;}
	.st6{fill:#CDE0FB;}
	.st7{fill:#163560;}
	.st8{fill:#F78248;}
	.st9{fill:#AFCDFB;}
	.st10{fill:#D9EAFF;}
	.st11{fill:#739AF0;}
	.st12{fill:#EBF2FF;}
	.st13{fill:#2B478B;}
	.st14{fill:#C2CFFF;}
	.st15{fill:#AABDF2;}
	.st16{opacity:0.3;}
	.st17{fill:#1F4777;}
	.st18{fill:#C65528;}
	.st19{fill:#F99746;}
	.st20{fill:#ED7D2B;}
	.st21{fill:#FFB27D;}
	.st22{fill:#F1A34F;}
	.st23{fill:#D86713;}
	.st24{fill:#5283DB;}
	.st25{fill:#0B2442;}
	.st26{fill:#1C468A;}
	.st27{fill:#233862;}
	.st28{fill:#E8945B;}
	.st29{fill:#BDD1F9;}
	.st30{fill:#A8D29F;}
	.st31{fill:#2D4C7F;}
	.st32{fill:#ED975D;}
	.st33{fill:#83B0FF;}
	.st34{fill:#F78E48;}
	.st35{fill:#2E3552;}
</style>
<rect class="st0" width="3000" height="2000"/>
<g>
	<g>
		<path class="st1" d="M513.2,1782c0,0-251.3-174.1-70.2-544.7c119.8-245,251.7-217.2,230.1-698.7
			c-18.5-412,653.2-447.6,865.5-328.1c212.3,119.5,192.4,211.3,630.8,165.2c305.1-32.1,459.4,410.8,345.4,613.2
			C2353.1,1276,2851.4,1481.7,2660,1782H513.2z"/>
	</g>
	<g>
		<path class="st2" d="M1925.8,573.3c0,0,24.4-42.7,82.6-38c0,0,84.6-71.2,174.8-9.5c0,0,95.9-15.3,166.9,13.2c47.4,19,63,39,63,39
			L1925.8,573.3z"/>
	</g>
	<g>
		<g class="st3">
			<path class="st4" d="M1302.7,801.9c0,0-21.6-103.4-80.6-161.1c-7.8-7.7-21-1.2-19.8,9.7c0,0.2,0,0.4,0.1,0.6
				C1204.7,669.6,1271.5,743,1302.7,801.9z"/>
		</g>
		<g class="st3">
			<path class="st4" d="M1311.8,831.2c0,0-64.8-126-160.9-175.8c-5.9-3-13.3-1.1-16.5,4.6c-2.1,3.7-2.7,9.4,0.7,17.7
				C1144.3,700.1,1252.7,768.6,1311.8,831.2z"/>
		</g>
	</g>
	<g>
		<g class="st3">
			<path class="st4" d="M2091.8,1270.3c0,0,40.8-97.5,109.6-143c9.1-6,20.8,2.8,17.6,13.3c-0.1,0.2-0.1,0.4-0.2,0.5
				C2213.1,1159,2133.6,1218.4,2091.8,1270.3z"/>
		</g>
		<g class="st3">
			<path class="st4" d="M2077.3,1297.4c0,0,87.4-111.4,191.3-142.2c6.3-1.9,13.2,1.4,15.4,7.7c1.4,4.1,0.9,9.7-4.1,17.3
				C2266.5,1200.4,2147.1,1247.1,2077.3,1297.4z"/>
		</g>
	</g>
	<g>
		<path class="st5" d="M2468.2,1300.9c-24.1-68.5-140.4-38-140.4-38s-71.1,128.2-94.1,132.8c-23.1,4.6,39.4-121.4,39.4-121.4
			c-45.4-1-156.4,62.7-156.4,62.7s17.8,142.1-5.7,140.9c-23.5-1.2-9.3-126.6-9.3-126.6c-42.7,16.3-79.7,70.3-79.7,70.3
			c-44.8,86.7,68.8,139.8,68.8,139.8s5.1,49.4-21.3,108.4l0,0c0,0-6.1,11-11.8,29.3l11.9-0.9c0.7-3.3,1.6-6.4,2.5-9.5c0,0,0,0,0-0.1
			c0,0,0-0.1,0-0.1c0.7-1.9,1.7-4.6,2.9-7.9c0,0,0,0,0,0c0,0,0,0,0,0c3.1-7.4,5.2-12.8,6.5-16.7c0,0,0,0,0,0
			c9.3-23.2,22.8-53.4,32.8-60.3c0,0-1.5-1.8-3-5.3c0.9,1.7,1.9,3.4,3,5.3c23.6,42.2,126,41.9,181.9,26.1c55.9-15.8,30-30-2.5-53.7
			c-32.5-23.7-96-12.2-115.7-21s7.2-21,45.3-20.9c38.1,0.1,59.8,36.6,121.3,37.9c61.6,1.3,99.7-117.1,99.7-117.1
			c-41.2,16.2-118.6-1.5-122.6-15.9c-4-14.3,108.2-21.1,125.3-26.8S2492.3,1369.4,2468.2,1300.9z"/>
	</g>
	<g>
		<path class="st5" d="M854.4,740.6c23.2-65.9,135.1-36.5,135.1-36.5s68.4,123.3,90.6,127.8c22.2,4.5-37.9-116.9-37.9-116.9
			c43.7-1,150.5,60.4,150.5,60.4s-17.1,136.8,5.5,135.6c22.6-1.2,9-121.9,9-121.9c41.1,15.7,76.7,67.6,76.7,67.6
			c43.2,83.5-66.2,134.6-66.2,134.6s-4.9,47.5,20.5,104.3l0,0c0,0,5.9,10.6,11.4,28.2l-11.5-0.8c-0.7-3.1-1.5-6.2-2.5-9.1
			c0,0,0,0,0-0.1c0,0,0-0.1,0-0.1c-0.7-1.8-1.6-4.4-2.8-7.6c0,0,0,0,0,0c0,0,0,0,0,0c-3-7.1-5-12.3-6.2-16.1c0,0,0,0,0,0
			c-8.9-22.3-22-51.4-31.6-58c0,0,1.4-1.7,2.8-5.1c-0.9,1.6-1.8,3.3-2.8,5.1c-22.7,40.6-121.3,40.4-175.1,25.1
			c-53.8-15.2-28.9-28.9,2.4-51.7c31.3-22.8,92.4-11.7,111.3-20.2c18.9-8.5-7-20.2-43.6-20.1c-36.6,0.1-57.5,35.2-116.8,36.5
			c-59.2,1.3-95.9-112.7-95.9-112.7c39.7,15.6,114.2-1.5,118-15.3c3.8-13.8-104.1-20.3-120.6-25.8
			C858.2,842.2,831.3,806.5,854.4,740.6z"/>
	</g>
	<g>
		<rect x="1432.7" y="585" class="st6" width="710" height="1193.7"/>
	</g>
	<g>
		<g>
			<rect x="2142.8" y="731.6" class="st7" width="59.4" height="2.7"/>
		</g>
		<g>
			<rect x="2142.8" y="1022.1" class="st7" width="59.4" height="2.7"/>
		</g>
		<g>
			<path class="st8" d="M2265.1,1098.2h-40.3c-14.1,0-25.7-11.5-25.7-25.7V707.3c0-14.1,11.5-25.7,25.7-25.7h40.3
				c14.1,0,25.7,11.5,25.7,25.7v365.2C2290.8,1086.7,2279.2,1098.2,2265.1,1098.2z"/>
		</g>
		<g>
			<g>
				<path class="st0" d="M2230.3,729.1h6.2v14.7h16.8v-14.7h6.2v35.3h-6.2v-14.9h-16.8v14.9h-6.2V729.1z"/>
			</g>
			<g>
				<path class="st0" d="M2226.5,815.9c0-9.9,7.7-18.2,18.5-18.2c10.8,0,18.4,8.2,18.4,18.2c0,9.9-7.7,18.2-18.5,18.2
					C2234,834.2,2226.5,826,2226.5,815.9z M2256.9,815.9c0-6.9-5-12.5-12-12.5c-7,0-11.9,5.6-11.9,12.5c0,6.8,5,12.5,12,12.5
					C2252,828.5,2256.9,822.9,2256.9,815.9z"/>
			</g>
			<g>
				<path class="st0" d="M2241.8,873.2h-11.2v-5.7h28.6v5.7h-11.2v29.5h-6.2V873.2z"/>
			</g>
			<g>
				<path class="st0" d="M2232.6,936.7h26.1v5.5h-19.9v9.2h17.7v5.5h-17.7v9.5h20.2v5.5h-26.4V936.7z"/>
			</g>
			<g>
				<path class="st0" d="M2233.9,1005.9h6.2v29.6h18.5v5.6h-24.7V1005.9z"/>
			</g>
		</g>
	</g>
	<g>
		<g>
			<g>
				<g>
					<g>
						<rect x="1933.7" y="693.1" class="st9" width="136" height="197"/>
					</g>
					<g>
						<path class="st10" d="M1996.3,693.1c0,0,1.5,65.7-62.6,116.6V693.1H1996.3z"/>
					</g>
					<g>
						<path class="st10" d="M2009.7,693.1c0,0-1.4,65.7,59.9,116.6V693.1H2009.7z"/>
					</g>
				</g>
				<g>
					<rect x="2001.7" y="693.1" class="st0" width="3.4" height="197"/>
				</g>
				<g>
					<rect x="1933.7" y="751.4" class="st0" width="136" height="2.7"/>
				</g>
				<g>
					<rect x="1933.7" y="822.8" class="st0" width="136" height="2.7"/>
				</g>
				<g>
					<path class="st0" d="M2072.8,893.2h-142.2V690h142.2V893.2z M1936.8,887h129.8V696.2h-129.8V887z"/>
				</g>
			</g>
		</g>
		<g>
			<g>
				<g>
					<g>
						<rect x="1719.8" y="693.1" class="st9" width="136" height="197"/>
					</g>
					<g>
						<path class="st10" d="M1782.4,693.1c0,0,1.5,65.7-62.6,116.6V693.1H1782.4z"/>
					</g>
					<g>
						<path class="st10" d="M1795.8,693.1c0,0-1.4,65.7,59.9,116.6V693.1H1795.8z"/>
					</g>
				</g>
				<g>
					<rect x="1787.8" y="693.1" class="st0" width="3.4" height="197"/>
				</g>
				<g>
					<rect x="1719.8" y="751.4" class="st0" width="136" height="2.7"/>
				</g>
				<g>
					<rect x="1719.8" y="822.8" class="st0" width="136" height="2.7"/>
				</g>
				<g>
					<path class="st0" d="M1858.8,893.2h-142.2V690h142.2V893.2z M1722.9,887h129.8V696.2h-129.8V887z"/>
				</g>
			</g>
		</g>
		<g>
			<g>
				<g>
					<g>
						<rect x="1505.8" y="693.1" class="st9" width="136" height="197"/>
					</g>
					<g>
						<path class="st10" d="M1568.5,693.1c0,0,1.5,65.7-62.6,116.6V693.1H1568.5z"/>
					</g>
					<g>
						<path class="st10" d="M1581.9,693.1c0,0-1.4,65.7,59.9,116.6V693.1H1581.9z"/>
					</g>
				</g>
				<g>
					<rect x="1573.8" y="693.1" class="st0" width="3.4" height="197"/>
				</g>
				<g>
					<rect x="1505.8" y="751.4" class="st0" width="136" height="2.7"/>
				</g>
				<g>
					<rect x="1505.8" y="822.8" class="st0" width="136" height="2.7"/>
				</g>
				<g>
					<path class="st0" d="M1644.9,893.2h-142.2V690h142.2V893.2z M1508.9,887h129.8V696.2h-129.8V887z"/>
				</g>
			</g>
		</g>
	</g>
	<g>
		<g>
			<g>
				<g>
					<g>
						<rect x="1933.7" y="988.9" class="st9" width="136" height="197"/>
					</g>
					<g>
						<path class="st10" d="M1996.3,988.9c0,0,1.5,65.7-62.6,116.6V988.9H1996.3z"/>
					</g>
					<g>
						<path class="st10" d="M2009.7,988.9c0,0-1.4,65.7,59.9,116.6V988.9H2009.7z"/>
					</g>
				</g>
				<g>
					<rect x="2001.7" y="988.9" class="st0" width="3.4" height="197"/>
				</g>
				<g>
					<rect x="1933.7" y="1047.2" class="st0" width="136" height="2.7"/>
				</g>
				<g>
					<rect x="1933.7" y="1118.6" class="st0" width="136" height="2.7"/>
				</g>
				<g>
					<path class="st0" d="M2072.8,1189h-142.2V985.8h142.2V1189z M1936.8,1182.8h129.8V992h-129.8V1182.8z"/>
				</g>
			</g>
		</g>
		<g>
			<g>
				<g>
					<g>
						<rect x="1719.8" y="988.9" class="st9" width="136" height="197"/>
					</g>
					<g>
						<path class="st10" d="M1782.4,988.9c0,0,1.5,65.7-62.6,116.6V988.9H1782.4z"/>
					</g>
					<g>
						<path class="st10" d="M1795.8,988.9c0,0-1.4,65.7,59.9,116.6V988.9H1795.8z"/>
					</g>
				</g>
				<g>
					<rect x="1787.8" y="988.9" class="st0" width="3.4" height="197"/>
				</g>
				<g>
					<rect x="1719.8" y="1047.2" class="st0" width="136" height="2.7"/>
				</g>
				<g>
					<rect x="1719.8" y="1118.6" class="st0" width="136" height="2.7"/>
				</g>
				<g>
					<path class="st0" d="M1858.8,1189h-142.2V985.8h142.2V1189z M1722.9,1182.8h129.8V992h-129.8V1182.8z"/>
				</g>
			</g>
		</g>
		<g>
			<g>
				<g>
					<g>
						<rect x="1505.8" y="988.9" class="st9" width="136" height="197"/>
					</g>
					<g>
						<path class="st10" d="M1568.5,988.9c0,0,1.5,65.7-62.6,116.6V988.9H1568.5z"/>
					</g>
					<g>
						<path class="st10" d="M1581.9,988.9c0,0-1.4,65.7,59.9,116.6V988.9H1581.9z"/>
					</g>
				</g>
				<g>
					<rect x="1573.8" y="988.9" class="st0" width="3.4" height="197"/>
				</g>
				<g>
					<rect x="1505.8" y="1047.2" class="st0" width="136" height="2.7"/>
				</g>
				<g>
					<rect x="1505.8" y="1118.6" class="st0" width="136" height="2.7"/>
				</g>
				<g>
					<path class="st0" d="M1644.9,1189h-142.2V985.8h142.2V1189z M1508.9,1182.8h129.8V992h-129.8V1182.8z"/>
				</g>
			</g>
		</g>
	</g>
	<g>
		<g>
			<g>
				<g>
					<g>
						<rect x="1719.8" y="1284.7" class="st9" width="136" height="197"/>
					</g>
					<g>
						<path class="st10" d="M1782.4,1284.7c0,0,1.5,65.7-62.6,116.6v-116.6H1782.4z"/>
					</g>
					<g>
						<path class="st10" d="M1795.8,1284.7c0,0-1.4,65.7,59.9,116.6v-116.6H1795.8z"/>
					</g>
				</g>
				<g>
					<rect x="1787.8" y="1284.7" class="st0" width="3.4" height="197"/>
				</g>
				<g>
					<rect x="1719.8" y="1343" class="st0" width="136" height="2.7"/>
				</g>
				<g>
					<rect x="1719.8" y="1414.4" class="st0" width="136" height="2.7"/>
				</g>
				<g>
					<path class="st0" d="M1858.8,1484.7h-142.2v-203.2h142.2V1484.7z M1722.9,1478.6h129.8v-190.8h-129.8V1478.6z"/>
				</g>
			</g>
		</g>
		<g>
			<g>
				<g>
					<g>
						<rect x="1505.8" y="1284.7" class="st9" width="136" height="197"/>
					</g>
					<g>
						<path class="st10" d="M1568.5,1284.7c0,0,1.5,65.7-62.6,116.6v-116.6H1568.5z"/>
					</g>
					<g>
						<path class="st10" d="M1581.9,1284.7c0,0-1.4,65.7,59.9,116.6v-116.6H1581.9z"/>
					</g>
				</g>
				<g>
					<rect x="1573.8" y="1284.7" class="st0" width="3.4" height="197"/>
				</g>
				<g>
					<rect x="1505.8" y="1343" class="st0" width="136" height="2.7"/>
				</g>
				<g>
					<rect x="1505.8" y="1414.4" class="st0" width="136" height="2.7"/>
				</g>
				<g>
					<path class="st0" d="M1644.9,1484.7h-142.2v-203.2h142.2V1484.7z M1508.9,1478.6h129.8v-190.8h-129.8V1478.6z"/>
				</g>
			</g>
		</g>
	</g>
	<g>
		<rect x="1424.8" y="1615.4" class="st9" width="729.6" height="163.2"/>
	</g>
	<g>
		<g>
			<path class="st11" d="M1662.6,824.2l-0.3,894.5c0,29.4-23.8,53.2-53.2,53.2l-467.6-0.2c-29.4,0-53.2-23.8-53.2-53.2l0.3-894.5
				c0-29.4,23.8-53.2,53.2-53.2l467.6,0.2C1638.8,771,1662.6,794.8,1662.6,824.2z"/>
		</g>
		<g>
			<path class="st7" d="M1609.1,1778.6l-467.6-0.2c-33,0-59.9-26.9-59.9-59.9l0.3-894.5c0-33,26.9-59.9,59.9-59.9l467.6,0.2
				c33,0,59.9,26.9,59.9,59.9l-0.3,894.5C1668.9,1751.7,1642.1,1778.6,1609.1,1778.6z M1141.8,777.5c-25.7,0-46.5,20.9-46.5,46.5
				l-0.3,894.5c0,25.7,20.9,46.5,46.5,46.5l467.6,0.2c25.7,0,46.5-20.9,46.5-46.5l0.3-894.5c0-25.7-20.9-46.5-46.5-46.5
				L1141.8,777.5z"/>
		</g>
		<g>
			<path class="st12" d="M1611.9,1341.8v331c0,22-17.8,39.8-39.8,39.8h-385.1c-21.9,0-39.7-17.8-39.7-39.8v-331
				c0-22,17.8-39.8,39.7-39.8h385.1c2.9,0,5.7,0.3,8.4,0.9C1598.5,1306.8,1611.9,1322.7,1611.9,1341.8z"/>
		</g>
		<g>
			<g>
				<path class="st12" d="M1584.9,1268.7h-410.5c-14.9,0-27-12.1-27-27v-135.5c0-14.9,12.1-27,27-27h410.5c14.9,0,27,12.1,27,27
					v135.5C1611.9,1256.6,1599.8,1268.7,1584.9,1268.7z"/>
			</g>
			<g>
				<g>
					<path class="st13" d="M1426.1,1153.4H1314c-1.4,0-2.5-1.1-2.5-2.5l0,0c0-1.4,1.1-2.5,2.5-2.5h112.1c1.4,0,2.5,1.1,2.5,2.5l0,0
						C1428.6,1152.3,1427.5,1153.4,1426.1,1153.4z"/>
				</g>
				<g>
					<path class="st13" d="M1501.1,1171.5H1314c-1.4,0-2.5-1.1-2.5-2.5l0,0c0-1.4,1.1-2.5,2.5-2.5h187.1c1.4,0,2.5,1.1,2.5,2.5l0,0
						C1503.6,1170.4,1502.5,1171.5,1501.1,1171.5z"/>
				</g>
			</g>
			<g>
				<rect x="1179.5" y="1124.8" class="st14" width="107.2" height="107.2"/>
			</g>
			<g>
				<g>
					<polygon class="st15" points="1199.4,1203.9 1222.8,1161.7 1240,1185.2 1248.6,1175.8 1266.9,1203.9 					"/>
				</g>
				<g>
					<path class="st15" d="M1234,1155.6c0-3.3,2.7-6.1,6.1-6.1c3.3,0,6.1,2.7,6.1,6.1s-2.7,6.1-6.1,6.1
						C1236.7,1161.7,1234,1159,1234,1155.6z"/>
				</g>
			</g>
			<g>
				<path class="st13" d="M1497.6,1135.8h-183.9c-1.4,0-2.5-1.1-2.5-2.5v-6c0-1.4,1.1-2.5,2.5-2.5h183.9c1.4,0,2.5,1.1,2.5,2.5v6
					C1500.1,1134.7,1499,1135.8,1497.6,1135.8z"/>
			</g>
			<g>
				<g>
					<polygon class="st8" points="1338.6,1202 1354.1,1204.2 1342.9,1215.1 1345.6,1230.5 1331.7,1223.2 1317.9,1230.5 
						1320.6,1215.1 1309.4,1204.3 1324.8,1202 1331.7,1188 					"/>
				</g>
				<g>
					<polygon class="st8" points="1392.1,1202 1407.5,1204.2 1396.4,1215.1 1399,1230.5 1385.2,1223.2 1371.4,1230.5 1374,1215.1 
						1362.9,1204.3 1378.3,1202 1385.2,1188 					"/>
				</g>
				<g>
					<polygon class="st8" points="1445.6,1202 1461,1204.2 1449.9,1215.1 1452.5,1230.5 1438.7,1223.2 1424.9,1230.5 1427.5,1215.1 
						1416.3,1204.3 1431.8,1202 1438.7,1188 					"/>
				</g>
				<g>
					<polygon class="st8" points="1499.1,1202 1514.5,1204.2 1503.3,1215.1 1506,1230.5 1492.2,1223.2 1478.4,1230.5 1481,1215.1 
						1469.8,1204.3 1485.3,1202 1492.1,1188 					"/>
				</g>
				<g>
					<polygon class="st8" points="1552.5,1202 1568,1204.2 1556.8,1215.1 1559.5,1230.5 1545.7,1223.2 1531.9,1230.5 1534.5,1215.1 
						1523.3,1204.3 1538.7,1202 1545.6,1188 					"/>
				</g>
			</g>
		</g>
		<g>
			<g>
				<path class="st12" d="M1584.9,1049.1h-410.5c-14.9,0-27-12.1-27-27V886.5c0-14.9,12.1-27,27-27h410.5c14.9,0,27,12.1,27,27
					v135.5C1611.9,1037,1599.8,1049.1,1584.9,1049.1z"/>
			</g>
			<g>
				<g>
					<path class="st13" d="M1426.1,933.8H1314c-1.4,0-2.5-1.1-2.5-2.5l0,0c0-1.4,1.1-2.5,2.5-2.5h112.1c1.4,0,2.5,1.1,2.5,2.5l0,0
						C1428.6,932.6,1427.5,933.8,1426.1,933.8z"/>
				</g>
				<g>
					<path class="st13" d="M1501.1,951.9H1314c-1.4,0-2.5-1.1-2.5-2.5l0,0c0-1.4,1.1-2.5,2.5-2.5h187.1c1.4,0,2.5,1.1,2.5,2.5l0,0
						C1503.6,950.8,1502.5,951.9,1501.1,951.9z"/>
				</g>
			</g>
			<g>
				<rect x="1179.5" y="905.2" class="st14" width="107.2" height="107.2"/>
			</g>
			<g>
				<g>
					<polygon class="st15" points="1199.4,984.3 1222.8,942.1 1240,965.5 1248.6,956.1 1266.9,984.3 					"/>
				</g>
				<g>
					<path class="st15" d="M1234,936c0-3.3,2.7-6.1,6.1-6.1c3.3,0,6.1,2.7,6.1,6.1c0,3.3-2.7,6.1-6.1,6.1
						C1236.7,942.1,1234,939.4,1234,936z"/>
				</g>
			</g>
			<g>
				<path class="st13" d="M1497.6,916.1h-183.9c-1.4,0-2.5-1.1-2.5-2.5v-6c0-1.4,1.1-2.5,2.5-2.5h183.9c1.4,0,2.5,1.1,2.5,2.5v6
					C1500.1,915,1499,916.1,1497.6,916.1z"/>
			</g>
			<g>
				<g>
					<polygon class="st8" points="1338.6,982.3 1354.1,984.6 1342.9,995.5 1345.6,1010.8 1331.7,1003.6 1317.9,1010.9 1320.6,995.5 
						1309.4,984.6 1324.8,982.4 1331.7,968.4 					"/>
				</g>
				<g>
					<polygon class="st8" points="1392.1,982.3 1407.5,984.6 1396.4,995.5 1399,1010.8 1385.2,1003.6 1371.4,1010.9 1374,995.5 
						1362.9,984.6 1378.3,982.4 1385.2,968.4 					"/>
				</g>
				<g>
					<polygon class="st8" points="1445.6,982.3 1461,984.6 1449.9,995.5 1452.5,1010.8 1438.7,1003.6 1424.9,1010.9 1427.5,995.5 
						1416.3,984.6 1431.8,982.4 1438.7,968.4 					"/>
				</g>
				<g>
					<polygon class="st8" points="1499.1,982.3 1514.5,984.6 1503.3,995.5 1506,1010.8 1492.2,1003.6 1478.4,1010.9 1481,995.5 
						1469.8,984.6 1485.3,982.4 1492.1,968.4 					"/>
				</g>
				<g>
					<polygon class="st8" points="1552.5,982.3 1568,984.6 1556.8,995.5 1559.5,1010.8 1545.7,1003.6 1531.9,1010.9 1534.5,995.5 
						1523.3,984.6 1538.7,982.4 1545.6,968.4 					"/>
				</g>
			</g>
		</g>
		<g class="st16">
			<g>
				<path class="st11" d="M1321,1428.3c-3.1-0.4-6.2-0.6-9.3-0.6c-0.5,0-1,0-1.5,0c-38,0.8-68.6,31.9-68.6,70.1
					c0,3.7,0.3,7.3,0.8,10.9c5.2,33.1,33.4,58.5,67.7,59.2c0.5,0,1,0,1.5,0c3.2,0,6.3-0.2,9.3-0.6c30.7-4.1,55.2-28.1,60-58.6
					c0.5-3.6,0.8-7.2,0.8-10.9C1381.8,1462.2,1355.3,1432.8,1321,1428.3z M1321,1544.1c-3,0.6-6.1,0.9-9.3,0.9c-0.5,0-1,0-1.5,0
					c-21.7-0.7-39.6-16-44.4-36.3c-0.8-3.5-1.3-7.1-1.3-10.9c0-25.6,20.3-46.4,45.7-47.2c0.5,0,1,0,1.5,0c3.2,0,6.3,0.3,9.3,0.9
					c21.6,4.3,37.9,23.4,37.9,46.3c0,3.7-0.4,7.4-1.3,10.9C1353.4,1526.5,1339.1,1540.5,1321,1544.1z"/>
			</g>
			<g>
				<path class="st11" d="M1264.4,1497.8c0,3.7,0.4,7.4,1.3,10.9h-86.9v-10.9H1264.4z"/>
			</g>
			<g>
				<path class="st11" d="M1580.6,1497.8v10.9h-222.9c0.8-3.5,1.3-7.1,1.3-10.9H1580.6z"/>
			</g>
			<g>
				<path class="st11" d="M1321,1317v134.5c-3-0.6-6.1-0.9-9.3-0.9c-0.5,0-1,0-1.5,0V1317H1321z"/>
			</g>
			<g>
				<path class="st11" d="M1321,1544.1v145.3h-10.9V1545c0.5,0,1,0,1.5,0C1314.9,1545,1318,1544.7,1321,1544.1z"/>
			</g>
			<g>
				<polygon class="st11" points="1569.7,1317 1569.7,1505.2 1569.7,1515.4 1580.6,1515.4 1580.6,1505.2 1580.6,1317.9 				"/>
			</g>
			<g>
				<rect x="1446.7" y="1317" class="st11" width="10.9" height="372.4"/>
			</g>
			<g>
				<rect x="1335.3" y="1330.8" class="st11" width="53.9" height="83.7"/>
			</g>
			<g>
				<rect x="1178.7" y="1393.8" class="st11" width="52.5" height="60.1"/>
			</g>
			<g>
				<rect x="1178.7" y="1330.8" class="st11" width="105.7" height="52.5"/>
			</g>
			<g>
				<rect x="1398.3" y="1330.8" class="st11" width="37.7" height="52"/>
			</g>
			<g>
				<rect x="1398.3" y="1393.8" class="st11" width="37.7" height="86.9"/>
			</g>
			<g>
				<rect x="1398.3" y="1519" class="st11" width="37.7" height="51.5"/>
			</g>
			<g>
				<rect x="1481.8" y="1330.8" class="st11" width="30.4" height="149.9"/>
			</g>
			<g>
				<rect x="1522.1" y="1330.8" class="st11" width="37.7" height="149.9"/>
			</g>
			<g>
				<rect x="1476.1" y="1524.5" class="st11" width="104.5" height="165"/>
			</g>
			<g>
				<rect x="1331.9" y="1627" class="st11" width="104" height="62.4"/>
			</g>
			<g>
				<rect x="1331.9" y="1582.2" class="st11" width="104" height="33.1"/>
			</g>
			<g>
				<rect x="1178.7" y="1582.2" class="st11" width="93.4" height="107.2"/>
			</g>
			<g>
				<rect x="1178.7" y="1514.5" class="st11" width="39.3" height="57.8"/>
			</g>
		</g>
	</g>
	<g>
		<g>
			<g>
				<rect x="937.8" y="1734.9" class="st7" width="17.6" height="24"/>
			</g>
			<g>
				<rect x="1037.3" y="1734.9" class="st7" width="17.6" height="24"/>
			</g>
			<g>
				<path class="st17" d="M934.1,1762.5c0-6.9,5.6-12.5,12.5-12.5s12.5,5.6,12.5,12.5c0,6.9-5.6,12.5-12.5,12.5
					S934.1,1769.4,934.1,1762.5z"/>
			</g>
			<g>
				<path class="st7" d="M939,1762.5c0-4.2,3.4-7.6,7.6-7.6c4.2,0,7.6,3.4,7.6,7.6c0,4.2-3.4,7.6-7.6,7.6
					C942.4,1770.1,939,1766.7,939,1762.5z"/>
			</g>
			<g>
				<path class="st17" d="M1033.6,1762.5c0-6.9,5.6-12.5,12.5-12.5s12.5,5.6,12.5,12.5c0,6.9-5.6,12.5-12.5,12.5
					S1033.6,1769.4,1033.6,1762.5z"/>
			</g>
			<g>
				<path class="st7" d="M1038.5,1762.5c0-4.2,3.4-7.6,7.6-7.6s7.6,3.4,7.6,7.6c0,4.2-3.4,7.6-7.6,7.6S1038.5,1766.7,1038.5,1762.5z
					"/>
			</g>
			<g>
				<path class="st18" d="M1088.3,1748.3H906.2c-17.5,0-31.6-14.2-31.6-31.6v-4.1h242.9v6.5
					C1117.6,1735.2,1104.5,1748.3,1088.3,1748.3z"/>
			</g>
			<g>
				<path class="st19" d="M1125.9,1412.5v289.9c0,3.5-0.4,6.9-1.1,10.2h-34c-5.3,0-10.2,1.5-14.3,4.2c-2.6,1.6-4.8,3.7-6.7,6.1
					c-3.5,4.5-5.6,10.2-5.6,16.4v9H930.9v-9c0-9.3-4.8-17.5-12-22.3c-2-1.3-4.3-2.4-6.7-3.2c-2.5-0.8-5.2-1.2-8-1.2h-36.8
					c-0.7-3.3-1.1-6.7-1.1-10.2v-289.9c0-25.4,20.5-45.9,45.9-45.9H1080C1105.4,1366.6,1125.9,1387.1,1125.9,1412.5z"/>
			</g>
			<g>
				<path class="st7" d="M1045,1366.4c-31.4-12.4-57.6-11.8-74-9.1c-17.8,2.9-28.3,8.9-28.5,8.9l-2.2-3.8c0.4-0.3,11.2-6.3,29.7-9.4
					c17-2.8,44.1-3.5,76.6,9.3L1045,1366.4z"/>
			</g>
			<g>
				<path class="st20" d="M918.9,1366.6V1717c-2-1.3-4.3-2.4-6.7-3.2v-347.2H918.9z"/>
			</g>
			<g>
				<rect x="965.7" y="1366.6" class="st20" width="6.7" height="381.8"/>
			</g>
			<g>
				<rect x="1015.7" y="1366.6" class="st20" width="6.7" height="381.8"/>
			</g>
			<g>
				<path class="st20" d="M1076.4,1366.6v350.2c-2.6,1.6-4.8,3.7-6.7,6.1v-356.3H1076.4z"/>
			</g>
		</g>
		<g>
			<g>
				<path class="st21" d="M721.3,1216.5c0-0.5,7.3-15.6,5-16.8c-2.3-1.2-6.5-1-7,1.7C718.8,1204,721.3,1216.5,721.3,1216.5z"/>
			</g>
			<g>
				<path class="st21" d="M724,1225.5c0-1.5-1.7-24.1-5.5-28.7c-3.8-4.5-11.6-10.9-14.1-10.7c-2.5,0.2-12.1,13-9.2,22.7
					c2.9,9.8,15.1,23,15.1,23L724,1225.5z"/>
			</g>
			<g>
				<g>
					<path class="st22" d="M738.6,1198l-22.3,6.7c-0.7,0.2-1.5-0.2-1.7-0.9l-12.7-42.4c-0.2-0.7,0.2-1.5,0.9-1.7l22.3-6.7
						c0.7-0.2,1.5,0.2,1.7,0.9l12.7,42.4C739.8,1197,739.4,1197.8,738.6,1198z"/>
				</g>
				<g>
					<path class="st23" d="M732.8,1199.8l-20.2,6.1c-1.3,0.4-2.7-0.4-3.1-1.7l-12.1-40.4c-0.4-1.3,0.4-2.7,1.7-3.1l20.2-6.1
						c1.3-0.4,2.7,0.4,3.1,1.7l12.1,40.4C734.9,1198,734.1,1199.4,732.8,1199.8z"/>
				</g>
			</g>
			<g>
				<path class="st21" d="M702.1,1187.8c0,0,9.3-14.3,11.5-13.5c3.2,1.1-8.4,19.2-8.4,19.2s8.6-13.5,10-12.5
					c3.1,2.3-1.8,10.8-6.7,17.3c0,0,8.7-7.9,9-6.5c1,5-9.5,17.1-9.5,17.1l-5.9-13.4V1187.8z"/>
			</g>
			<g>
				<path class="st21" d="M695.2,1201c0.4-1.7,2.7-35.8,3.7-32.6c1,3.2,3.3,21.1,3.3,21.1L695.2,1201z"/>
			</g>
			<g>
				<path class="st11" d="M843.1,1191.6c0,0-1,37-11.6,66.9c-8.4,23.6-22.9,42.7-47.8,35.7c-2.5-0.7-5-1.5-7.4-2.3c0,0,0,0,0,0
					c-50.5-17.6-66.8-57.9-66.8-57.9c3.8-6.2,14.7-8.5,14.7-8.5c10.2,0.5,54.9,19.5,57.7,20.1c10.3,2.1,18.7-54.7,25.4-74.4
					c6.7-19.7,34.2-28.5,34.2-28.5L843.1,1191.6z"/>
			</g>
			<g>
				<path class="st24" d="M832.4,1231.8l-1,26.7c-8.4,23.6-22.9,42.7-47.8,35.7c-2.5-0.7-5-1.5-7.4-2.3c0.8,0.1,16,2.2,22.4-4.2
					c6.5-6.6,5.9-28.3,17.9-42.7C828.6,1230.5,832.4,1231.8,832.4,1231.8z"/>
			</g>
			<g>
				<path class="st25" d="M833.8,1719.8c0,0,12.4,11.3,10,19.4s-13.6,13.4-15.2,23.3c-1.5,9.9-7.6,15.2-13,15.2c-5.5,0-26,0-26,0
					s-4-6.9,5.7-9c9.7-2.1,13.4-13.7,12.8-24.4c-0.6-10.7,0.9-25.1,0.9-25.1l20.6-4.8L833.8,1719.8z"/>
			</g>
			<g>
				<path class="st25" d="M696.9,1775.6h76.6c3,0,5.5-2.4,5.6-5.4c0.1-4.5-0.3-11-2.7-16.5c-4.1-9.1-6.7-10.7,10.6-37
					c-5.2,5.3-19.2,2.9-31,1.3c-1.4,2.3-23.4,36.2-28.2,39.7C722.3,1761.5,698.5,1760.1,696.9,1775.6z"/>
			</g>
			<g>
				<path class="st7" d="M816.2,1350.8c0,0-55.5,104.8-70.6,162.5c-11.7,44.8,59.8,218.1,59.8,218.1s5.8-0.4,15.4-4.1
					c9.4-3.7,12.9-13.5,12.9-13.5s-4.2-123.9-18.7-183.9c-3.2-13.5,15.7-56.9,47.8-80.6c32-23.8,45.4-100.3,26.3-105.4
					S816.2,1350.8,816.2,1350.8z"/>
			</g>
			<g>
				<path class="st26" d="M863.8,1321.1c0,0-58.4,214-76.1,262.1s-45.8,150.1-45.8,150.1s17.8,8.3,40.5,4.4
					c0,0,85.4-125.1,89.1-180.3c1.7-25.6,87.6-126.8,78-192.9L863.8,1321.1z"/>
			</g>
			<g>
				<path class="st11" d="M949.3,1387.9c0,0-12.4,6.3-34.4,8.1h0c-25.1,2.1-62.8-1.6-108.7-27.1c0,0-12.8-10.5,2.9-55.4
					c11.9-33.9,17.7-105.5,32.2-170.7c0,0,47.1-14.8,84.9-2c28.9,9.8,26,54.1,31.3,100.2c0.5,4.3,1.1,8.6,1.7,12.9
					C967.3,1304.4,949.3,1387.9,949.3,1387.9z"/>
			</g>
			<g>
				<path class="st27" d="M824.8,1046.2c0,0,32.2-52.3,57.1-25.4c0,0,16.3,4.2,25.6,29.5c9.5,25.9-5.3,48.7-15.2,45
					c-6.3-2.4-9.3,8.6-9.3,8.6L824.8,1046.2z"/>
			</g>
			<g>
				<path class="st27" d="M876.9,1016.6c0,0,2.2-21.7,33.9-19.6c0,0-15,0.3-18.2,6.5c0,0,10.9-7,18.8-3.6c7.9,3.4,11.3,18.3,10.9,23
					c-0.4,4.7-6.5,19.5-11.9,20.3c-5.3,0.8-12.3-3-12.3-3L876.9,1016.6z"/>
			</g>
			<g>
				<path class="st21" d="M892.9,1139.4c-3-7.9-7.4-16.2-11-41.6l-1.9,0.7l-32,11.3c0,0,2.2,10.2,3.7,20c0.6,4,1,11.1,1.3,17.3
					c0.3,6.4,6.5,7,12.9,6.7C882.8,1152.9,892.1,1146.6,892.9,1139.4z"/>
			</g>
			<g>
				<path class="st28" d="M848,1109.7c0,0,2.2,10.2,3.7,20c18.3-3.2,25.6-21.4,28.3-31.3L848,1109.7z"/>
			</g>
			<g>
				<path class="st27" d="M882.9,1094.4c0,0,7.5-16.6,7.9-30c0.3-9.5-9.4-43.4-43.4-33.4c0,0-9.9,2.4-18.5,10.2
					c-6.8,6.2-16.1,18.7,0.4,47.1l4.6,9.7L882.9,1094.4z"/>
			</g>
			<g>
				<path class="st21" d="M843.2,1119.9c0,0,43.7-5.6,39.8-32.7c-3.9-27.1-0.9-46.1-28.9-43.7c-28,2.4-32,13.5-32.9,22.9
					C820.3,1075.7,831.8,1120.6,843.2,1119.9z"/>
			</g>
			<g>
				<path class="st27" d="M834.2,1045.6c0,0,16.5,30.1,35.5,32.2c19,2.1,26.2-4,26.2-4s-15.6-9.1-21.4-28.2
					C874.5,1045.6,841,1029.2,834.2,1045.6z"/>
			</g>
			<g>
				<path class="st27" d="M837.5,1047.8c0,0-7.9,8.4-9.1,15.6s-0.1,21.6-4.3,21.7c0,0-12.1-20.3-3.8-34
					C829.2,1036.5,837.5,1047.8,837.5,1047.8z"/>
			</g>
			<g>
				<path class="st27" d="M836,1049.1c0,0,13.3,32.1,37.9,39.5c0,0-26-17.2-31.2-38.9S836,1049.1,836,1049.1z"/>
			</g>
			<g>
				<path class="st24" d="M949.3,1387.9c0,0-12.4,6.3-34.4,8.1h0c0,0-18-22.6,2.1-48c20.1-25.4-1.6-72.1,13.9-97.6
					c10.8-17.7,21.3-13.6,26.7-9.4c0.5,4.3,1.1,8.6,1.7,12.9C967.3,1304.4,949.3,1387.9,949.3,1387.9z"/>
			</g>
			<g>
				<path class="st21" d="M1028.6,1350.2c0,0,2.7,6.2,6.4,6.6c6.1,0.7,17.7,5.8,19.6,6.9c4.9,2.9,4.6,16.1-0.3,17.3
					c-4.9,1.2-7.4-9.8-22.9-12.7c-5.2-1-12.9,2.6-16-9.9L1028.6,1350.2z"/>
			</g>
			<g>
				<path class="st11" d="M926.3,1140.7c45,16.5,46.6,96.2,66.7,131.3c20.7,36.2,40.8,83.8,40.8,83.8s-0.4,1.4-8.1,3.6
					c-5.4,1.6-11.1,0.9-11.1,0.9s-42.5-38.4-54-53.6c-11.5-15.2-38.8-85.5-38.8-85.5S908.4,1134.1,926.3,1140.7z"/>
			</g>
			<g>
				<path class="st21" d="M1016.4,1361.5c0,0,1.1,5.4,7.7,9.7s11.9,8.7,12.6,6c0.6-2.7-3.7-5.6-4.7-10.5
					C1031,1361.7,1016.4,1361.5,1016.4,1361.5z"/>
			</g>
		</g>
	</g>
	<g>
		<g>
			<polygon class="st8" points="2169.4,626.7 1409.7,626.7 1450.2,446.7 2128.9,446.7 			"/>
		</g>
		<g>
			<g>
				<rect x="1547.8" y="500.1" class="st29" width="69.7" height="69.7"/>
			</g>
			<g>
				<g>
					<g>
						<path class="st7" d="M1544.6,496.9V573h76.1v-76.1H1544.6z M1614.2,566.6H1551v-63.2h63.2V566.6z"/>
					</g>
				</g>
				<g>
					
						<rect x="1547.8" y="531.8" transform="matrix(-1.836970e-16 1 -1 -1.836970e-16 2117.5833 -1047.656)" class="st7" width="69.7" height="6.3"/>
				</g>
			</g>
			<g>
				<rect x="1530.7" y="483.9" class="st7" width="100.9" height="14.6"/>
			</g>
		</g>
		<g>
			<g>
				<rect x="1755.2" y="500.1" class="st29" width="69.7" height="69.7"/>
			</g>
			<g>
				<g>
					<g>
						<path class="st7" d="M1751.9,496.9V573h76.1v-76.1H1751.9z M1821.6,566.6h-63.2v-63.2h63.2V566.6z"/>
					</g>
				</g>
				<g>
					
						<rect x="1755.2" y="531.8" transform="matrix(-1.836970e-16 1 -1 -1.836970e-16 2324.9583 -1255.031)" class="st7" width="69.7" height="6.3"/>
				</g>
			</g>
			<g>
				<rect x="1737.3" y="483.9" class="st7" width="100.9" height="14.6"/>
			</g>
		</g>
		<g>
			<g>
				<rect x="1961.8" y="500.1" class="st29" width="69.7" height="69.7"/>
			</g>
			<g>
				<g>
					<g>
						<path class="st7" d="M1958.5,496.9V573h76.1v-76.1H1958.5z M2028.2,566.6H1965v-63.2h63.2V566.6z"/>
					</g>
				</g>
				<g>
					
						<rect x="1961.8" y="531.8" transform="matrix(-1.836970e-16 1 -1 -1.836970e-16 2531.5681 -1461.6409)" class="st7" width="69.7" height="6.3"/>
				</g>
			</g>
			<g>
				<rect x="1943.9" y="483.9" class="st7" width="100.9" height="14.6"/>
			</g>
		</g>
	</g>
	<g>
		<path class="st30" d="M547.9,1777.3h99.2c5.3-4.5-3.7-14.8-13.1-15.4c-4.1-0.3-9.2,0.5-15.1,1.8c-1.4-18.1-9.2-99.7-38.6-96.4
			c-33,3.7,0,35.9,9.3,55c6.9,14.1,14.2,34.4,17.6,44c-2.7,0.6-5.5,1.2-8.3,1.7c-4.4-13.4-20.7-58.7-41.4-56.1
			c-24.3,3.1-14.6,21.2,2.7,32c12.7,7.9,28.2,19.2,35.6,24.6c-6.3,1-12.8,1.7-19.4,1.6C559.4,1769.6,551.1,1774.6,547.9,1777.3z"/>
	</g>
	<g>
		<path class="st30" d="M2590.8,1775.7H2516c-4-3.4,2.8-11.1,9.9-11.6c3.1-0.2,7,0.4,11.4,1.4c1-13.7,6.9-75.1,29-72.6
			c24.9,2.8,0,27.1-7,41.4c-5.2,10.7-10.7,25.9-13.2,33.1c2,0.4,4.1,0.9,6.3,1.3c3.3-10.1,15.6-44.2,31.2-42.2
			c18.3,2.3,11,16-2,24.1c-9.5,6-21.2,14.4-26.8,18.5c4.7,0.8,9.6,1.3,14.6,1.2C2582.1,1769.9,2588.4,1773.7,2590.8,1775.7z"/>
	</g>
	<g>
		<g id="man_3_">
			<g>
				<path class="st21" d="M1797.8,1129.4c3.5,9.4,9.6,20.4,16,23.1c7.2,3.1,10.3,7.5,10.3,7.5l5.8-3.4l7-4.1c0,0-0.2-0.8-0.5-2
					c-0.3-1.3-0.9-3-1.6-5c0,0-2.1-2.8-0.8-6.2c1.3-3.5,1-8.8-1.2-12.1c-2.2-3.3-4.4-11.3-5.7-11c-3.3,0.6,1.6,11.6,0.2,13.6
					c-1.3,1.8-2.8,1.2-3.1,1.1c0,0,0,0-0.1,0c-9.2-4-20.3-25.7-25.2-22.8C1797.1,1109.2,1796.4,1125.4,1797.8,1129.4z"/>
			</g>
			<g>
				<g>
					<path class="st13" d="M1829.5,1142.5l-11.5,8.1c-0.8,0.6-1.9,0.4-2.5-0.4l-29.4-41.8c-0.6-0.8-0.4-1.9,0.4-2.5l11.5-8.1
						c0.8-0.6,1.9-0.4,2.5,0.4l29.4,41.8C1830.5,1140.8,1830.4,1142,1829.5,1142.5z"/>
				</g>
				<g>
					<path class="st27" d="M1819,1149.9l-6.7,4.7c-0.6,0.4-1.5,0.3-1.9-0.3l-29.9-42.5c-0.4-0.6-0.3-1.5,0.3-1.9l6.7-4.7
						c0.6-0.4,1.5-0.3,1.9,0.3l29.9,42.5C1819.8,1148.6,1819.7,1149.5,1819,1149.9z"/>
				</g>
			</g>
			<g>
				<path class="st27" d="M1994.2,1082.5c0,0-58.4,101.9-79.6,120.6l-77.7-57.9c0,0-11.3,3.5-16.2,14.8c0,0,59.7,96.2,93.6,100.2
					c46.3,5.4,111.6-115.2,111.6-115.2L1994.2,1082.5z"/>
			</g>
			<g>
				<g>
					<path class="st31" d="M2103.3,1777h33.7c4.2-2.3,8-7.6,9.2-15.5c1.6-10.9,13.8-16.8,16.5-25.7c2.6-8.9-10.9-21.4-10.9-21.4
						l-2.3-2.9l-2.3-3l-22.4,5.3c0,0-0.6,5.3-0.9,12.1c-0.2,4.9-0.4,10.6-0.1,15.5c0.7,11.9-3.3,24.6-13.8,26.9
						C2102.2,1770.1,2102.6,1774.7,2103.3,1777z"/>
				</g>
				<g>
					<path class="st31" d="M1930.5,1775.3h77.2c3.7-4.5,2.3-21.2,1.8-26.7c-0.1-1.1-0.2-1.7-0.2-1.7s-26.3-21.1-30-4.9
						c-0.1,0.5-0.2,1-0.4,1.5c-4.6,15.1-25,22-36.8,23.9C1934.4,1768.5,1931.6,1772.5,1930.5,1775.3z"/>
				</g>
				<g>
					<path class="st19" d="M1945.2,1344.6c0,0,4,49.9,8.7,109.9c6.4,81.5,14.1,181.6,14.8,200.6c1.3,32.9,6.6,85.6,6.6,85.6
						s12.5,12.5,37.5,7.2c0,0,22.3-75.2,28.7-154.8c0.1-1.3,0.2-2.6,0.3-3.9c5.9-81,15.1-251.6,15.1-251.6L1945.2,1344.6z"/>
				</g>
				<g>
					<path class="st20" d="M1945.2,1344.6c0,0,4,49.9,8.7,109.9l87.6,138.7c0.1-1.3,0.2-2.6,0.3-3.9c5.9-81,15.1-251.6,15.1-251.6
						L1945.2,1344.6z"/>
				</g>
				<g>
					<path class="st19" d="M1964.8,1336.4c0,0,60.5,184.5,102.2,271.9c41.7,87.4,54.9,111.9,54.9,111.9s27.2-9.4,30-16.6
						c0,0-14.4-153.4-43.3-195.1c-16.3-23.5-27.3-103.7-26.9-127.4s-2.3-70.9-2.3-70.9L1964.8,1336.4z"/>
				</g>
			</g>
			<g>
				<path class="st21" d="M1981.4,1086.9c28.2,8.9,76.9-15.1,76.9-15.1s-26-19.5-24.6-60l-21.8,17.6l-14.8,11.9c0,0,0.1,7,1.7,19.4
					c0,0,0,0.1,0,0.1c0.8,6.2-1.7,12.3-6.6,16.1C1985.3,1082,1981.4,1086.9,1981.4,1086.9z"/>
			</g>
			<g>
				<path class="st32" d="M1997.2,1041.3c0,0,0.1,7,1.7,19.4c16.4-2.8,35-29.3,35-29.3c-8.4-2.4-15.7-2.8-21.9-2L1997.2,1041.3z"/>
			</g>
			<g>
				<path class="st21" d="M1988.5,1040.6c0,0,46.5,7.7,50.9-21.3c4.4-29.1,13.3-47.6-16.2-53.8c-29.5-6.2-37,4.1-40.8,13.4
					C1978.6,988.2,1976.6,1037.8,1988.5,1040.6z"/>
			</g>
			<g>
				<path class="st13" d="M1942.1,1348.7c0.8,0.7,1.8,1.1,3,1.1c10.6-0.1,41.4,5.7,67.6,3.1c22-2.1,41.5-8.6,62.4-18
					c2.8-1.2,9.2-4.7,9-7.8c-0.1-3.4-0.4-8.3-0.9-14.5c-1.5-21.6-4.1-58.7-1.5-101.6c0.5-8,0.7-15.9,0.7-23.7
					c0.2-58.1-11.3-109.2-34.4-126.5c-2-1.4-14.1,4.5-25.3,10c-10.3,5.1-18.2,5.6-28,3.6l-12.1,8.7c-11.9,11-24.8,26-30.5,48.7
					c-4.8,19.3-7.6,54.2-9.2,90.3c-0.7,16.4-1.3,32.9-1.4,48.5v0.6c-0.1,1.6-0.1,3.2-0.1,4.8
					C1940.8,1316.3,1941.4,1348.1,1942.1,1348.7z"/>
			</g>
			<g>
				<path class="st27" d="M2083.2,1312.6c-1.5-21.6-4.1-58.7-1.5-101.6c0.5-8,0.7-15.9,0.7-23.7c-9.6-23.4-17.5-40.3-17.5-40.3
					h-24.3C2040.6,1146.9,2022.8,1268.6,2083.2,1312.6z"/>
			</g>
			<g>
				<path class="st13" d="M2039.5,1016.5c0,0-4.8-0.8-4-7.4c0.8-6.6,0.8-15.2-4.6-13.6c-5.3,1.6-5.6,5.9-7.8,3.4
					c-2.2-2.5-2.2-13-18.2-13.8c-15.9-0.7-22.4,4.8-29.8,1.6c-7.4-3.3-7.8-14.5-7.8-14.5s2.1,4,5.3,5.3c0,0-12.3-16.9,1.9-28.5
					c14.3-11.6,28.9-4,37.2-3.5c18.2,1.1,30,2.2,36,14.2C2053.7,971.7,2051.2,1005,2039.5,1016.5z"/>
			</g>
			<g>
				<g>
					<path class="st26" d="M2394,1755c-1.4,9,5.3,19.5,15.1,23.3c9.8,3.8,18.9-0.4,20.4-9.4c1.4-9-5.3-19.5-15.1-23.3
						C2404.6,1741.7,2395.5,1745.9,2394,1755z"/>
				</g>
				<g>
					<path class="st26" d="M2269.6,1755.2c-1.4,9,5.3,19.5,15.1,23.3c9.8,3.8,18.9-0.4,20.4-9.4c1.4-9-5.3-19.5-15.1-23.3
						C2280.2,1742,2271,1746.2,2269.6,1755.2z"/>
				</g>
				<g>
					<path class="st11" d="M2429.3,1752.7l-22.3,9.1c-2.3,0.9-4.8,1.4-7.4,1.4l-140.3-1.2l-22-26L2429.3,1752.7z"/>
				</g>
				<g>
					<g>
						<path class="st26" d="M2285.6,1452l-53.7-78.6l-0.1-0.2c-0.3-0.7-8.9-17.5-54.3-22.1l-0.2,0l-37.4-5.1
							c-4.8-0.9-18.8-2.5-25,0.8c-2.8,1.4-3.8,3.7-3.2,7c1.2,6.5,36.9,57.5,60.6,90.2l-7,1.8c-6.1-8.4-59.5-82.3-61.2-91.7
							c-0.9-4.9,1-8.7,5.7-11.1c10.2-5.3,29.7-2,31.8-1.6l36.9,5c48.9,4.9,59.7,23.5,60.8,25.6l53.5,78.4L2285.6,1452z"/>
					</g>
				</g>
				<g>
					<path class="st11" d="M2193.6,1436.4l-71.6,15.6c0,0-19.7,9.2-5.1,48.8c12.8,34.8,79.8,230.3,79.8,230.3s14,40.7,95.6,28.7
						L2193.6,1436.4z"/>
				</g>
				<g>
					<path class="st33" d="M2165.5,1490.3l76.5,218.9c3.1,8.9,8.2,17,14.7,23.8c12,12.6,28.4,20.8,44.5,20.9l70.2,0.3l1.7,0
						l43.9,0.2c4.4,0,8.5-0.6,12.3-1.7c0.9-0.3,1.7-0.5,2.6-0.9c13.9-5.2,22.3-17.9,22.6-33.5c0.1-6.6-1.2-13.8-4.2-21.1
						l-85.6-209.4c-9.1-22.3-31.3-39.4-53.7-41.5l-12.7-1.2l-3-0.3l0,0l-2.5-0.2l-42.4-4l-5.2-0.5l-40.9-3.8
						c-6.4-0.6-12.3,0.1-17.5,1.7c-0.3,0.1-0.7,0.2-1,0.3l-2.1,0.8C2165.8,1446.7,2157.4,1467.1,2165.5,1490.3z"/>
				</g>
				<g class="st3">
					<path class="st11" d="M2256.7,1733c12,12.6,28.4,20.8,44.5,20.9l70.2,0.3l1.7,0l43.9,0.2c4.4,0,8.5-0.6,12.3-1.7
						c0.9-0.3,1.7-0.5,2.6-0.9c13.9-5.2,26.5-24.1,21.6-44.1c0,0-148.7-1.7-178.4,3.3C2259.8,1713.6,2258,1725.1,2256.7,1733z"/>
				</g>
				<g>
					<g>
						<g>
							<path class="st11" d="M2292.8,1444.5c0.4,0.2,38.1,20.4,46.9,38.3c9.1,18.3,93.3,232.1,94.1,234.2c0.1,0.2,6.2,20.8-6.6,36.3
								l2.1-0.6c0.9-0.3,1.7-0.5,2.6-0.9c11.6-16,4.7-34.4,4.4-35.2c-3.5-8.8-85.1-216-94.3-234.5c-8-16.2-35.1-32.3-43.7-37.1
								l-3-0.3l0,0L2292.8,1444.5z"/>
						</g>
					</g>
					<g>
						<g>
							<path class="st11" d="M2245.1,1440.1c5.5,3.2,26.9,17.1,37.3,42.8c12.2,30.1,85.8,248.9,86.5,251.1l0.1,0.2l0.1,0.1
								c0.1,0.1,5.6,11.9,0.5,20l1.8,0l1.7,0c4.7-8.6-0.8-19.2-1.6-20.6c-2.3-6.8-74.5-221.2-86.6-251.1
								c-9-22.1-25.8-35.9-34.6-41.9L2245.1,1440.1z"/>
						</g>
					</g>
					<g>
						<g>
							<path class="st11" d="M2183.6,1439.1c0.2,0.1,7.9,4,15.5,10.7c7.6,6.8,16.6,17.2,22.5,31.9c12.2,30.1,82,248.1,82.7,250.3
								l0.1,0.2l0.1,0.2c0.1,0.1,4.1,13.5-1,21.5l4.4,0c3.6-7.3-0.1-20.6-1-22.2c-2.2-7-70.6-220.5-82.7-250.4
								c-11.4-28.1-32.9-40.9-37.4-43.4c-0.3,0.1-0.7,0.2-1,0.3L2183.6,1439.1z"/>
						</g>
					</g>
				</g>
			</g>
			<g>
				<path class="st21" d="M2132.6,1303.4c0,0,3.1,22.3,3.3,25.2c1.5,19.6-1.3,21.5,9.4,25c3,1,11,1,15.6-4.7c0,0-7.5-0.5-6.2-11.3
					c1.5-12.4,0.7-8.9-6.8-19l-1.8-18.6L2132.6,1303.4z"/>
			</g>
			<g>
				<path class="st13" d="M2142.7,1322.3c-8.8,1.7-18.2,1-18.2,1s-26-80.2-29.3-87.6c-3.3-7.3-77.2-94.1-77.2-94.1l30.8-77
					c0,0,79.8,133.4,88,152.1c13.4,31,18,100.4,18,100.4S2149.6,1321,2142.7,1322.3z"/>
			</g>
			<g>
				<path class="st21" d="M2135.9,1328.6c0,0-1.9,4.9-2,7.2c-0.2,7.4-2.3,10.8-1,11.4c2.7,1.3,5.4-4.4,6.5-9.4
					C2140.5,1332.8,2135.9,1328.6,2135.9,1328.6z"/>
			</g>
		</g>
	</g>
	<g>
		<g>
			<path class="st7" d="M1591.3,832.6c0-3.3-2.7-6-6-6s-6,2.7-6,6s2.7,6,6,6S1591.3,836,1591.3,832.6z"/>
		</g>
		<g>
			<path class="st7" d="M1596,826.2c-0.5,0-1-0.2-1.4-0.5c-3.2-3-6.4-4.4-9.7-4.3c-5.1,0.2-8.8,4.1-8.8,4.2c-0.7,0.8-2,0.9-2.8,0.1
				c-0.8-0.7-0.9-2-0.1-2.8c0.2-0.2,4.8-5.2,11.6-5.5c4.4-0.2,8.7,1.6,12.7,5.4c0.8,0.8,0.8,2,0.1,2.8
				C1597.1,826,1596.6,826.2,1596,826.2z"/>
		</g>
		<g>
			<path class="st7" d="M1602.3,817.5c-0.5,0-1-0.2-1.4-0.5c-5.3-4.9-10.7-7.4-16.3-7.1c-8.6,0.3-14.7,6.9-14.8,7
				c-0.7,0.8-2,0.9-2.8,0.1c-0.8-0.7-0.9-2-0.2-2.8c0.3-0.3,7.2-7.9,17.5-8.3c6.7-0.3,13.1,2.5,19.2,8.2c0.8,0.8,0.8,2,0.1,2.8
				C1603.3,817.3,1602.8,817.5,1602.3,817.5z"/>
		</g>
		<g>
			<path class="st7" d="M1608.9,809c-0.5,0-1-0.2-1.4-0.5c-7.5-7-15.3-10.4-23.2-10.1c-12.3,0.5-20.9,9.9-21,10
				c-0.7,0.8-2,0.9-2.8,0.1c-0.8-0.7-0.9-2-0.2-2.8c0.4-0.4,9.8-10.7,23.8-11.3c9.1-0.4,17.8,3.4,26.1,11.2c0.8,0.8,0.8,2,0.1,2.8
				C1609.9,808.8,1609.4,809,1608.9,809z"/>
		</g>
	</g>
	<g>
		<g>
			<path class="st7" d="M1199.1,807.2h-39.2c-1.4,0-2.6-1.2-2.6-2.6l0,0c0-1.4,1.2-2.6,2.6-2.6h39.2c1.4,0,2.6,1.2,2.6,2.6l0,0
				C1201.8,806,1200.6,807.2,1199.1,807.2z"/>
		</g>
		<g>
			<path class="st7" d="M1199.1,818.7h-39.2c-1.4,0-2.6-1.2-2.6-2.6l0,0c0-1.4,1.2-2.6,2.6-2.6h39.2c1.4,0,2.6,1.2,2.6,2.6l0,0
				C1201.8,817.5,1200.6,818.7,1199.1,818.7z"/>
		</g>
		<g>
			<path class="st7" d="M1199.1,831h-39.2c-1.4,0-2.6-1.2-2.6-2.6l0,0c0-1.4,1.2-2.6,2.6-2.6h39.2c1.4,0,2.6,1.2,2.6,2.6l0,0
				C1201.8,829.9,1200.6,831,1199.1,831z"/>
		</g>
	</g>
	<g>
		<path class="st2" d="M729.2,466c0,0,14.4-25.7,48.8-22.9c0,0,49.9-42.9,103.1-5.7c0,0,56.6-9.2,98.5,8
			c27.9,11.5,37.2,23.5,37.2,23.5L729.2,466z"/>
	</g>
	<g>
		<path class="st2" d="M964.2,357c0,0,32-57.3,108.6-51c0,0,111.2-95.5,229.7-12.7c0,0,126-20.5,219.3,17.8
			c62.2,25.5,82.8,52.3,82.8,52.3L964.2,357z"/>
	</g>
	<g>
		<path class="st2" d="M857,573.3c0,0,24.4-42.7,82.6-38c0,0,84.6-71.2,174.8-9.5c0,0,95.9-15.3,166.9,13.2c47.4,19,63,39,63,39
			L857,573.3z"/>
	</g>
	<g>
		<g>
			<circle class="st12" cx="1410.7" cy="1444" r="63.8"/>
		</g>
		<g>
			<g>
				<path class="st34" d="M1315,1452.9c1.8,55,97.3,139.7,97.3,139.7s89.6-90.9,87.8-145.9c-1.8-55-44.8-98.1-95.9-96.4
					C1353.1,1352,1313.2,1398,1315,1452.9z M1352.8,1445.8c-1-30,22.7-55.3,52.7-56.4c30.2-1,55.3,22.7,56.4,52.7
					c1,30.2-22.5,55.3-52.7,56.4C1379.2,1499.5,1353.9,1476,1352.8,1445.8z"/>
			</g>
		</g>
	</g>
	<g>
		<path class="st35" d="M2748.8,1782.1H233.7c-1.6,0-2.9-1.3-2.9-2.9v-1.1c0-1.6,1.3-2.9,2.9-2.9h2515.1c1.6,0,2.9,1.3,2.9,2.9v1.1
			C2751.8,1780.8,2750.4,1782.1,2748.8,1782.1z"/>
	</g>
</g>
</svg>
