<svg xmlns="http://www.w3.org/2000/svg" width="719" height="269" viewBox="0 0 719 269">
  <g id="Group_393" data-name="Group 393" transform="translate(-187 -508)">
    <g id="Group_1" data-name="Group 1" transform="translate(-203 38)">
      <line id="Line_9" data-name="Line 9" x2="569" transform="translate(447.5 631.5)" fill="none" stroke="#e8e8e8" stroke-width="1.5" stroke-dasharray="6" opacity="0.6"/>
      <line id="Line_10" data-name="Line 10" x2="569" transform="translate(447.5 582.5)" fill="none" stroke="#e8e8e8" stroke-width="1.5" stroke-dasharray="6" opacity="0.6"/>
      <line id="Line_11" data-name="Line 11" x2="569" transform="translate(447.5 530.5)" fill="none" stroke="#e8e8e8" stroke-width="1.5" stroke-dasharray="6" opacity="0.6"/>
      <line id="Line_12" data-name="Line 12" x2="569" transform="translate(447.5 477.5)" fill="none" stroke="#e8e8e8" stroke-width="1.5" stroke-dasharray="6" opacity="0.6"/>
      <text id="_25K_20K_15K_10K_5k_" data-name="$25K
$20K
$15K
$10K
$5k
" transform="translate(429 485)" fill="#757575" font-size="16" font-family="Raleway-Medium, Raleway" font-weight="500"><tspan x="-37.712" y="0">$25K</tspan><tspan x="-38.768" y="50">$20K</tspan><tspan x="-36.352" y="100">$15K</tspan><tspan x="-37.408" y="150">$10K</tspan><tspan x="-27.344" y="200">$5k</tspan><tspan x="0" y="250"></tspan></text>
      <text id="Jan" transform="translate(480 707)" fill="#757575" font-size="16" font-family="Raleway-Medium, Raleway" font-weight="500"><tspan x="-25.92" y="0">Jan</tspan></text>
      <text id="Feb" transform="translate(553 707)" fill="#757575" font-size="16" font-family="Raleway-Medium, Raleway" font-weight="500"><tspan x="-28.24" y="0">Feb</tspan></text>
      <text id="Mar" transform="translate(606 707)" fill="#757575" font-size="16" font-family="Raleway-Medium, Raleway" font-weight="500"><tspan x="-14.288" y="0">Mar</tspan></text>
      <text id="Apr" transform="translate(675 707)" fill="#757575" font-size="16" font-family="Raleway-Medium, Raleway" font-weight="500"><tspan x="-13.304" y="0">Apr</tspan></text>
      <text id="May" transform="translate(744 707)" fill="#757575" font-size="16" font-family="Raleway-Medium, Raleway" font-weight="500"><tspan x="-15.608" y="0">May</tspan></text>
      <text id="Jun" transform="translate(810 707)" fill="#757575" font-size="16" font-family="Raleway-Medium, Raleway" font-weight="500"><tspan x="-13.352" y="0">Jun</tspan></text>
      <text id="Jul" transform="translate(880 707)" fill="#757575" font-size="16" font-family="Raleway-Medium, Raleway" font-weight="500"><tspan x="-10.92" y="0">Jul</tspan></text>
      <text id="Aug" transform="translate(949 707)" fill="#757575" font-size="16" font-family="Raleway-Medium, Raleway" font-weight="500"><tspan x="-15.128" y="0">Aug</tspan></text>
      <text id="Sep" transform="translate(1018 707)" fill="#757575" font-size="16" font-family="Raleway-Medium, Raleway" font-weight="500"><tspan x="-14.584" y="0">Sep</tspan></text>
      <text id="oct" transform="translate(1086 707)" fill="#757575" font-size="16" font-family="Raleway-Medium, Raleway" font-weight="500"><tspan x="-12.04" y="0">oct</tspan></text>
      <line id="Line_8" data-name="Line 8" x2="569" transform="translate(447.5 680.5)" fill="none" stroke="#e8e8ea" stroke-width="1"/>
      <path id="Rectangle_157" data-name="Rectangle 157" d="M5,0H15a5,5,0,0,1,5,5V174a0,0,0,0,1,0,0H0a0,0,0,0,1,0,0V5A5,5,0,0,1,5,0Z" transform="translate(447 506)" fill="#6b9dfe"/>
      <path id="Rectangle_524" data-name="Rectangle 524" d="M5,0H15a5,5,0,0,1,5,5V139a0,0,0,0,1,0,0H0a0,0,0,0,1,0,0V5A5,5,0,0,1,5,0Z" transform="translate(467 541)" fill="#62e1fc"/>
      <path id="Rectangle_158" data-name="Rectangle 158" d="M5,0H15a5,5,0,0,1,5,5V203a0,0,0,0,1,0,0H0a0,0,0,0,1,0,0V5A5,5,0,0,1,5,0Z" transform="translate(507 477)" fill="#6b9dfe"/>
      <path id="Rectangle_538" data-name="Rectangle 538" d="M5,0H15a5,5,0,0,1,5,5V155a0,0,0,0,1,0,0H0a0,0,0,0,1,0,0V5A5,5,0,0,1,5,0Z" transform="translate(1000 525)" fill="#6b9dfe"/>
      <path id="Rectangle_530" data-name="Rectangle 530" d="M5,0H15a5,5,0,0,1,5,5V174a0,0,0,0,1,0,0H0a0,0,0,0,1,0,0V5A5,5,0,0,1,5,0Z" transform="translate(724 506)" fill="#6b9dfe"/>
      <path id="Rectangle_536" data-name="Rectangle 536" d="M5,0H15a5,5,0,0,1,5,5V174a0,0,0,0,1,0,0H0a0,0,0,0,1,0,0V5A5,5,0,0,1,5,0Z" transform="translate(931 506)" fill="#6b9dfe"/>
      <path id="Rectangle_533" data-name="Rectangle 533" d="M5,0H15a5,5,0,0,1,5,5V131a0,0,0,0,1,0,0H0a0,0,0,0,1,0,0V5A5,5,0,0,1,5,0Z" transform="translate(784 549)" fill="#6b9dfe"/>
      <path id="Rectangle_540" data-name="Rectangle 540" d="M5,0H15a5,5,0,0,1,5,5V131a0,0,0,0,1,0,0H0a0,0,0,0,1,0,0V5A5,5,0,0,1,5,0Z" transform="translate(1069 549)" fill="#6b9dfe"/>
      <path id="Rectangle_527" data-name="Rectangle 527" d="M5,0H15a5,5,0,0,1,5,5V94a0,0,0,0,1,0,0H0a0,0,0,0,1,0,0V5A5,5,0,0,1,5,0Z" transform="translate(586 586)" fill="#6b9dfe"/>
      <path id="Rectangle_535" data-name="Rectangle 535" d="M5,0H15a5,5,0,0,1,5,5V94a0,0,0,0,1,0,0H0a0,0,0,0,1,0,0V5A5,5,0,0,1,5,0Z" transform="translate(862 586)" fill="#6b9dfe"/>
      <path id="Rectangle_529" data-name="Rectangle 529" d="M5,0H15a5,5,0,0,1,5,5V41a0,0,0,0,1,0,0H0a0,0,0,0,1,0,0V5A5,5,0,0,1,5,0Z" transform="translate(655 639)" fill="#6b9dfe"/>
      <path id="Rectangle_525" data-name="Rectangle 525" d="M5,0H15a5,5,0,0,1,5,5V155a0,0,0,0,1,0,0H0a0,0,0,0,1,0,0V5A5,5,0,0,1,5,0Z" transform="translate(527 525)" fill="#62e1fc"/>
      <path id="Rectangle_539" data-name="Rectangle 539" d="M5,0H15a5,5,0,0,1,5,5V193a0,0,0,0,1,0,0H0a0,0,0,0,1,0,0V5A5,5,0,0,1,5,0Z" transform="translate(1020 487)" fill="#62e1fc"/>
      <path id="Rectangle_531" data-name="Rectangle 531" d="M5,0H15a5,5,0,0,1,5,5V155a0,0,0,0,1,0,0H0a0,0,0,0,1,0,0V5A5,5,0,0,1,5,0Z" transform="translate(744 525)" fill="#62e1fc"/>
      <path id="Rectangle_537" data-name="Rectangle 537" d="M5,0H15a5,5,0,0,1,5,5V155a0,0,0,0,1,0,0H0a0,0,0,0,1,0,0V5A5,5,0,0,1,5,0Z" transform="translate(951 525)" fill="#62e1fc"/>
      <path id="Rectangle_532" data-name="Rectangle 532" d="M5,0H15a5,5,0,0,1,5,5V196a0,0,0,0,1,0,0H0a0,0,0,0,1,0,0V5A5,5,0,0,1,5,0Z" transform="translate(804 484)" fill="#62e1fc"/>
      <path id="Rectangle_541" data-name="Rectangle 541" d="M5,0H15a5,5,0,0,1,5,5V196a0,0,0,0,1,0,0H0a0,0,0,0,1,0,0V5A5,5,0,0,1,5,0Z" transform="translate(1089 484)" fill="#62e1fc"/>
      <path id="Rectangle_526" data-name="Rectangle 526" d="M5,0H15a5,5,0,0,1,5,5V139a0,0,0,0,1,0,0H0a0,0,0,0,1,0,0V5A5,5,0,0,1,5,0Z" transform="translate(606 541)" fill="#62e1fc"/>
      <path id="Rectangle_534" data-name="Rectangle 534" d="M5,0H15a5,5,0,0,1,5,5V139a0,0,0,0,1,0,0H0a0,0,0,0,1,0,0V5A5,5,0,0,1,5,0Z" transform="translate(882 541)" fill="#62e1fc"/>
      <path id="Rectangle_528" data-name="Rectangle 528" d="M5,0H15a5,5,0,0,1,5,5V78a0,0,0,0,1,0,0H0a0,0,0,0,1,0,0V5A5,5,0,0,1,5,0Z" transform="translate(675 602)" fill="#62e1fc"/>
      <g id="Group_392" data-name="Group 392" transform="translate(-129 147)">
        <path id="Path_103" data-name="Path 103" d="M5,0H66A10,10,0,0,1,76,10V30A10,10,0,0,1,66,40H43.964l-8.542,6.793L26.734,40H5A10,10,0,0,1-5,30V10A10,10,0,0,1,5,0Z" transform="translate(778 402)" fill="#0469db"/>
        <text id="_1_3000" data-name="$1,3000" transform="translate(843 427)" fill="#fff" font-size="16" font-family="Raleway-Medium, Raleway" font-weight="500"><tspan x="-58.64" y="0">$1,3000</tspan></text>
      </g>
    </g>
  </g>
</svg>
