<svg xmlns="http://www.w3.org/2000/svg" width="25.67" height="28" viewBox="0 0 25.67 28">
  <g id="Group_816" data-name="Group 816" transform="translate(-1054.17 -767)">
    <path id="Path_332" data-name="Path 332" d="M1071.98,775.2l-1.18-1.176-9.64,9.644a3.071,3.071,0,0,0,4.34,4.345l12.95-12.953a4.718,4.718,0,1,0-6.67-6.675l-15.75,15.749a6.365,6.365,0,1,0,9,9l12.44-12.44-1.17-1.176-12.44,12.44a4.7,4.7,0,1,1-6.65-6.652l15.74-15.748a3.059,3.059,0,0,1,4.33,4.321l-12.96,12.954a1.408,1.408,0,0,1-1.99-1.993Z" fill="#552af3"/>
  </g>
</svg>
