<svg xmlns="http://www.w3.org/2000/svg" width="22.602" height="26.84" viewBox="0 0 22.602 26.84">
  <g id="Group_974" data-name="Group 974" transform="translate(-273.26 -77.402)">
    <path id="Path_407" data-name="Path 407" d="M267.479,270.806l-2.661,9.781a2.891,2.891,0,0,1-2.726,2.253H250.978a2.909,2.909,0,0,1-2.726-2.235l-3.129-9.8a3.118,3.118,0,0,1,2.726-4.077h16.92A3.123,3.123,0,0,1,267.479,270.806Zm-9.532-9.424a1.638,1.638,0,1,0-3.259,0v3.558h-3.209v-3.612a4.832,4.832,0,1,1,9.613,0v3.612h-3.145Z" transform="translate(28.26 -178.598)" fill="#97a0bd" fill-rule="evenodd"/>
  </g>
</svg>
