<svg xmlns="http://www.w3.org/2000/svg" width="40.348" height="40.29" viewBox="0 0 40.348 40.29">
  <path id="appointments_" d="M43.763,48.306H41.626a5.808,5.808,0,0,1,5.721-5.814v2.229A3.585,3.585,0,0,1,43.763,48.306Zm-3.74,0H14.462a7.421,7.421,0,0,0-7.384-7.438H7V23.733h.077a7.423,7.423,0,0,0,7.385-7.46c0-.073-.009-.145-.011-.219h2.469V10.7a2.689,2.689,0,0,1,2.689-2.689H34.765A2.689,2.689,0,0,1,37.453,10.7v5.354h2.58c0,.073-.011.145-.011.219a7.421,7.421,0,0,0,7.325,7.457V40.87a7.42,7.42,0,0,0-7.325,7.436Zm-5.247-35.9a1.792,1.792,0,0,0-1.792-1.792H21.366a1.792,1.792,0,0,0-1.792,1.792v3.658h15.2V12.409Zm6.849,3.868c0-.075.019-.144.022-.219h2.117a3.585,3.585,0,0,1,3.585,3.585v2.47a5.81,5.81,0,0,1-5.723-5.836ZM7.078,22.119c-.026,0-.051-.007-.077-.008V19.643a3.585,3.585,0,0,1,3.585-3.585h2.253c0,.074.022.143.022.219a5.813,5.813,0,0,1-5.782,5.842Zm5.78,26.187H10.585A3.585,3.585,0,0,1,7,44.721V42.493c.026,0,.051-.008.077-.008a5.811,5.811,0,0,1,5.781,5.821Z" transform="translate(-7 -8.016)" fill="#fff" fill-rule="evenodd"/>
</svg>
