<?xml version="1.0" encoding="utf-8"?>
<!-- Generator: Adobe Illustrator 26.3.1, SVG Export Plug-In . SVG Version: 6.00 Build 0)  -->
<svg version="1.1" id="Layer_1" xmlns="http://www.w3.org/2000/svg" xmlns:xlink="http://www.w3.org/1999/xlink" x="0px" y="0px"
	 viewBox="0 0 25 24.6" style="enable-background:new 0 0 25 24.6;" xml:space="preserve">
<style type="text/css">
	.st0{fill:#232222;}
</style>
<g id="appointments" transform="translate(0 -4.289)">
	<g id="_x31_5_38_" transform="translate(0 4.289)">
		<g id="Group_409" transform="translate(0 0)">
			<path id="Path_108" class="st0" d="M6.1,5.7h0.4c0.5,0,1-0.4,1-1v0V1c0-0.5-0.4-1-1-1l0,0H6.1c-0.5,0-1,0.4-1,1c0,0,0,0,0,0v3.7
				C5.1,5.3,5.6,5.7,6.1,5.7L6.1,5.7z"/>
			<path id="Path_109" class="st0" d="M18.7,5.7h0.4c0.5,0,1-0.4,1-1c0,0,0,0,0,0V1c0-0.5-0.4-1-1-1l0,0h-0.4c-0.5,0-1,0.4-1,1
				c0,0,0,0,0,0v3.7C17.7,5.3,18.2,5.7,18.7,5.7C18.7,5.7,18.7,5.7,18.7,5.7z"/>
			<path id="Path_110" class="st0" d="M23.4,2h-2.5V5c0,0.9-0.8,1.6-1.6,1.5c-0.1,0-0.1,0-0.2,0h-0.4c-1,0-1.8-0.8-1.8-1.8V2H8.2
				v2.7c0,1-0.8,1.8-1.8,1.8H6.1c-1,0-1.8-0.8-1.8-1.8V2H1.6C0.7,2,0,2.7,0,3.6V23c0,0.9,0.7,1.6,1.6,1.6h21.8
				c0.9,0,1.6-0.7,1.6-1.6V3.6C25,2.7,24.3,2,23.4,2L23.4,2z M23.4,23H1.6V8.4h21.8V23z"/>
			<path id="Path_111" class="st0" d="M13.3,13.3h2.9c0.1,0,0.2-0.1,0.2-0.2v-2.5c0-0.1-0.1-0.2-0.2-0.2h-2.9
				c-0.1,0-0.2,0.1-0.2,0.2V13C13.1,13.2,13.2,13.3,13.3,13.3z"/>
			<path id="Path_112" class="st0" d="M18,13.3h2.9c0.1,0,0.2-0.1,0.2-0.2v-2.5c0-0.1-0.1-0.2-0.2-0.2H18c-0.1,0-0.2,0.1-0.2,0.2V13
				C17.8,13.2,17.9,13.3,18,13.3z"/>
			<path id="Path_113" class="st0" d="M3.9,17.3h2.9c0.1,0,0.2-0.1,0.2-0.2v-2.5c0-0.1-0.1-0.2-0.2-0.2H3.9c-0.1,0-0.2,0.1-0.2,0.2
				v2.5C3.7,17.2,3.8,17.3,3.9,17.3C3.9,17.3,3.9,17.3,3.9,17.3z"/>
			<path id="Path_114" class="st0" d="M8.6,17.3h2.9c0.1,0,0.2-0.1,0.2-0.2v-2.5c0-0.1-0.1-0.2-0.2-0.2H8.6c-0.1,0-0.2,0.1-0.2,0.2
				v2.5C8.4,17.2,8.5,17.3,8.6,17.3C8.6,17.3,8.6,17.3,8.6,17.3z"/>
			<path id="Path_115" class="st0" d="M13.3,17.3h2.9c0.1,0,0.2-0.1,0.2-0.2v-2.5c0-0.1-0.1-0.2-0.2-0.2h-2.9
				c-0.1,0-0.2,0.1-0.2,0.2v2.5C13.1,17.2,13.2,17.3,13.3,17.3C13.3,17.3,13.3,17.3,13.3,17.3z"/>
			<path id="Path_116" class="st0" d="M18,17.3h2.9c0.1,0,0.2-0.1,0.2-0.2v-2.5c0-0.1-0.1-0.2-0.2-0.2H18c-0.1,0-0.2,0.1-0.2,0.2
				v2.5C17.8,17.2,17.9,17.3,18,17.3C18,17.3,18,17.3,18,17.3z"/>
			<path id="Path_117" class="st0" d="M6.8,18.5H3.9c-0.1,0-0.2,0.1-0.2,0.2v2.5c0,0.1,0.1,0.2,0.2,0.2h2.9c0.1,0,0.2-0.1,0.2-0.2
				v-2.5C7,18.6,6.9,18.5,6.8,18.5z"/>
			<path id="Path_118" class="st0" d="M11.5,18.5H8.6c-0.1,0-0.2,0.1-0.2,0.2v2.5c0,0.1,0.1,0.2,0.2,0.2h2.9c0.1,0,0.2-0.1,0.2-0.2
				v-2.5C11.7,18.6,11.6,18.5,11.5,18.5z"/>
			<path id="Path_119" class="st0" d="M16.2,18.5h-2.9c-0.1,0-0.2,0.1-0.2,0.2v2.5c0,0.1,0.1,0.2,0.2,0.2h2.9c0.1,0,0.2-0.1,0.2-0.2
				v-2.5C16.4,18.6,16.3,18.5,16.2,18.5z"/>
			<path id="Path_120" class="st0" d="M20.9,18.5H18c-0.1,0-0.2,0.1-0.2,0.2v2.5c0,0.1,0.1,0.2,0.2,0.2h2.9c0.1,0,0.2-0.1,0.2-0.2
				v-2.5C21.1,18.6,21,18.5,20.9,18.5z"/>
		</g>
	</g>
</g>
</svg>
