<svg xmlns="http://www.w3.org/2000/svg" width="30.54" height="20.364" viewBox="0 0 30.54 20.364">
  <path id="video-plus" d="M28.843,65.7a1.7,1.7,0,0,0-.965.3l-5.817,3.707V66.535A2.648,2.648,0,0,0,19.314,64H2.747A2.648,2.648,0,0,0,0,66.535V81.829a2.648,2.648,0,0,0,2.747,2.535H19.314a2.648,2.648,0,0,0,2.747-2.535V78.658l5.812,3.707A1.7,1.7,0,0,0,30.54,81V67.367a1.679,1.679,0,0,0-1.7-1.67Zm-8.48,5.091V81.829a.975.975,0,0,1-1.05.838H2.747a.975.975,0,0,1-1.05-.838V66.535a.975.975,0,0,1,1.05-.838H19.314a.975.975,0,0,1,1.05.838v4.253ZM28.849,81l-.064-.069-6.724-4.285V71.716l6.788-4.322Z" transform="translate(0 -64)" fill="#fff"/>
</svg>
