<svg xmlns="http://www.w3.org/2000/svg" width="16.291" height="13.035" viewBox="0 0 16.291 13.035">
  <path id="video-slash" d="M16.242,12.377,3.658,2.469l-.412-.323L.611.071A.2.2,0,0,0,.326.1L.071.42A.205.205,0,0,0,.1.708L11.2,9.445l.232.183,4.3,3.388a.2.2,0,0,0,.285-.031l.255-.318A.208.208,0,0,0,16.242,12.377Zm-6.13-1.762H2.159a.468.468,0,0,1-.5-.4V3.485L.843,2.846c0,.01,0,.018,0,.028v7.342a1.271,1.271,0,0,0,1.319,1.217h7.953a1.353,1.353,0,0,0,1.036-.471l-.644-.507a.553.553,0,0,1-.392.16Zm0-8.146a.468.468,0,0,1,.5.4V6.392l.815.642V5.359l3.259-2.075V9.6l.723.57a.787.787,0,0,0,.092-.356V3.271a.816.816,0,0,0-1.28-.657L11.43,4.394V2.872a1.271,1.271,0,0,0-1.319-1.217H4.6l1.034.815Z" transform="translate(-0.026 -0.026)" fill="#fff"/>
</svg>
