<?xml version="1.0" encoding="utf-8"?>
<!-- Generator: Adobe Illustrator 26.3.1, SVG Export Plug-In . SVG Version: 6.00 Build 0)  -->
<svg version="1.1" id="Layer_1" xmlns="http://www.w3.org/2000/svg" xmlns:xlink="http://www.w3.org/1999/xlink" x="0px" y="0px"
	 viewBox="0 0 26.1 26.8" style="enable-background:new 0 0 26.1 26.8;" xml:space="preserve">
<style type="text/css">
	.st0{fill:#232222;}
	.st1{fill:#FFFFFF;}
</style>
<g id="Group_973" transform="translate(-1496.782 -40.365)">
	<g id="cart" transform="translate(1496.73 40.365)">
		<g id="Path_375">
			<path class="st0" d="M1.1,0H6c0.6,0,1.1,0.5,1.1,1.1c0,0,0,0,0,0V17h18c0.6,0,1.1,0.3,1.1,0.9s-0.5,0.9-1.1,0.9H6.5
				c-0.6,0-1.1-0.5-1.1-1.1c0,0,0,0,0,0V1.7H1.1c-0.5,0.1-1-0.3-1.1-0.8c0,0,0-0.1,0-0.1C0,0.2,0.5,0,1.1,0z"/>
		</g>
		<g id="Ellipse_105" transform="translate(7.27 19.795)">
			<g>
				<circle class="st1" cx="3.5" cy="3.5" r="3.5"/>
			</g>
			<g>
				<path class="st0" d="M3.5,7C1.6,7,0,5.4,0,3.5S1.6,0,3.5,0S7,1.6,7,3.5S5.4,7,3.5,7z M3.5,1.5c-1.1,0-2,0.9-2,2s0.9,2,2,2
					s2-0.9,2-2S4.6,1.5,3.5,1.5z"/>
			</g>
		</g>
		<g id="Ellipse_106" transform="translate(17.27 19.795)">
			<g>
				<circle class="st1" cx="3.5" cy="3.5" r="3.5"/>
			</g>
			<g>
				<path class="st0" d="M3.5,7C1.6,7,0,5.4,0,3.5S1.6,0,3.5,0S7,1.6,7,3.5S5.4,7,3.5,7z M3.5,1.5c-1.1,0-2,0.9-2,2s0.9,2,2,2
					s2-0.9,2-2S4.6,1.5,3.5,1.5z"/>
			</g>
		</g>
		<g id="Path_374">
			<path class="st0" d="M19.9,9.3h-2.8v2.8c0,0.5-0.4,0.9-0.9,0.9s-0.9-0.4-0.9-0.9c0,0,0,0,0,0V9.3h-2.8c-0.5,0-0.9-0.4-0.9-0.9
				c0-0.5,0.4-0.9,0.9-0.9h2.8V4.7c0-0.5,0.4-0.9,0.9-0.9c0.5,0,0.9,0.4,0.9,0.9c0,0,0,0,0,0v2.8h2.8c0.5,0,0.9,0.4,0.9,0.9
				S20.4,9.3,19.9,9.3L19.9,9.3z"/>
		</g>
	</g>
</g>
</svg>
