<?xml version="1.0" encoding="utf-8"?>
<!-- Generator: Adobe Illustrator 26.3.1, SVG Export Plug-In . SVG Version: 6.00 Build 0)  -->
<svg version="1.1" id="Layer_1" xmlns="http://www.w3.org/2000/svg" xmlns:xlink="http://www.w3.org/1999/xlink" x="0px" y="0px"
	 viewBox="0 0 28.5 24" style="enable-background:new 0 0 28.5 24;" xml:space="preserve">
<style type="text/css">
	.st0{fill:#97A0BD;}
</style>
<g id="messages" transform="translate(-1492 -33)">
	<g id="chat" transform="translate(1492 18.736)">
		<path id="Path_307" class="st0" d="M19.7,29.4c1.7,0,3-1.4,3-3v-9.1c0-1.7-1.4-3-3-3H3c-1.7,0-3,1.4-3,3v9.1c0,1.7,1.4,3,3,3h2.2
			v3.2c0,0.5,0.4,1,0.9,1c0.3,0,0.5-0.1,0.7-0.3l3.8-3.8L19.7,29.4L19.7,29.4z"/>
		<path id="Path_308" class="st0" d="M25.8,22.2h-1.5v4.3c0,2.5-2,4.5-4.5,4.5h-8.4l-1.8,1.8c0.2,1.3,1.3,2.2,2.6,2.2h7.4l3.1,3.1
			c0.4,0.4,1,0.4,1.3,0c0.2-0.2,0.3-0.4,0.3-0.7v-2.4h1.6c1.5,0,2.6-1.2,2.6-2.6v-7.5C28.5,23.3,27.3,22.2,25.8,22.2z"/>
	</g>
</g>
</svg>
