<svg xmlns="http://www.w3.org/2000/svg" width="130.576" height="104.837" viewBox="0 0 130.576 104.837">
  <g id="Group_631" data-name="Group 631" transform="translate(-4277.128 -542.423)">
    <path id="Path_349" data-name="Path 349" d="M428.515,90.513a52.392,52.392,0,1,1-13.131-34.569c.578.651,1.135,1.316,1.68,1.993a.426.426,0,0,1-.079.606l-8.574,6.443a.435.435,0,0,1-.6-.075c-.134-.169-.332-.408-.6-.729a41.023,41.023,0,1,0-31.451,67.212c22.478,0,40.792-17.191,41.128-39.433a1.063,1.063,0,0,1,.4-.817c1.715-1.377,8.561-6.886,10.25-8.244a.28.28,0,0,1,.451.175A52.36,52.36,0,0,1,428.515,90.513Z" transform="translate(3954.128 504.329)" fill="#6ebb40"/>
    <path id="Path_350" data-name="Path 350" d="M442.919,59a133.169,133.169,0,0,0-25.133,14.891c-3.458,2.528-6.83,5.166-10.07,7.83A316.751,316.751,0,0,0,374,114.18a6.821,6.821,0,0,1-5.146,2.343c-.216,0-.431-.01-.646-.029a6.8,6.8,0,0,1-5.248-3.361A142.337,142.337,0,0,0,345.981,90.4a6.719,6.719,0,0,1,.317-9.541,6.824,6.824,0,0,1,9.6.318A160.47,160.47,0,0,1,369.833,98.66,319.389,319.389,0,0,1,402.8,68.272c3.017-2.382,6.132-4.728,9.319-6.984a142.259,142.259,0,0,1,25.385-14.671,6.809,6.809,0,0,1,8.936,3.51A6.727,6.727,0,0,1,442.919,59Z" transform="translate(3960.695 506.802)" fill="#6ebb40"/>
  </g>
</svg>
