<?xml version="1.0" encoding="utf-8"?>
<!-- Generator: Adobe Illustrator 26.3.1, SVG Export Plug-In . SVG Version: 6.00 Build 0)  -->
<svg version="1.1" id="Layer_1" xmlns="http://www.w3.org/2000/svg" xmlns:xlink="http://www.w3.org/1999/xlink" x="0px" y="0px"
	 viewBox="0 0 13.8 18.1" style="enable-background:new 0 0 13.8 18.1;" xml:space="preserve">
<style type="text/css">
	.st0{fill:#309799;}
	.st1{fill:#FFFFFF;}
</style>
<g id="Group_670" transform="translate(2.194 2.375)">
	<g id="Path_363">
		<path class="st0" d="M4.7-2.4c-3.8,0-6.9,3.1-6.9,6.9c0,3.7,6.4,10.7,6.6,11c0.1,0.2,0.4,0.2,0.5,0c0,0,0,0,0,0
			c0.3-0.3,6.6-7.3,6.6-11C11.6,0.7,8.5-2.4,4.7-2.4z"/>
	</g>
	<g id="Path_364">
		<path class="st1" d="M4.7-0.6C2.1-0.6,0,1.6,0,4.2s2.1,4.7,4.7,4.7c2.6,0,4.7-2.1,4.7-4.7l0,0C9.5,1.6,7.3-0.6,4.7-0.6z"/>
	</g>
	<g id="Line_382">
		<path class="st0" d="M4.7,7c-0.6,0-1-0.4-1-1V2.3c0-0.6,0.4-1,1-1s1,0.4,1,1V6C5.7,6.6,5.3,7,4.7,7z"/>
	</g>
	<g id="Line_383">
		<path class="st0" d="M6.7,5.2h-4c-0.6,0-1-0.4-1-1s0.4-1,1-1h4c0.6,0,1,0.4,1,1S7.3,5.2,6.7,5.2z"/>
	</g>
</g>
</svg>
