<svg xmlns="http://www.w3.org/2000/svg" width="20.966" height="26.183" viewBox="0 0 20.966 26.183">
  <g id="Group_815" data-name="Group 815" transform="translate(-4426 -588)">
    <g id="copy" transform="translate(4377.35 588)">
      <g id="Group_636" data-name="Group 636" transform="translate(48.65)">
        <path id="Path_351" data-name="Path 351" d="M62.892,85.4H50.72a2.071,2.071,0,0,0-2.07,2.07v17.465A2.071,2.071,0,0,0,50.72,107H62.892a2.071,2.071,0,0,0,2.07-2.07V87.47A2.078,2.078,0,0,0,62.892,85.4Zm.617,19.529a.622.622,0,0,1-.622.622H50.714a.622.622,0,0,1-.622-.622V87.47a.622.622,0,0,1,.622-.622H62.887a.622.622,0,0,1,.622.622Z" transform="translate(-48.65 -80.821)" fill="#fff"/>
        <path id="Path_352" data-name="Path 352" d="M149.692,0H137.52a2.071,2.071,0,0,0-2.07,2.07.724.724,0,0,0,1.448,0,.622.622,0,0,1,.622-.622h12.172a.622.622,0,0,1,.622.622V19.534a.622.622,0,0,1-.622.622.724.724,0,1,0,0,1.448,2.071,2.071,0,0,0,2.07-2.07V2.07A2.071,2.071,0,0,0,149.692,0Z" transform="translate(-130.796)" fill="#fff"/>
      </g>
    </g>
  </g>
</svg>
