<?xml version="1.0" encoding="utf-8"?>
<!-- Generator: Adobe Illustrator 26.3.1, SVG Export Plug-In . SVG Version: 6.00 Build 0)  -->
<svg version="1.1" id="Layer_1" xmlns="http://www.w3.org/2000/svg" xmlns:xlink="http://www.w3.org/1999/xlink" x="0px" y="0px"
	 viewBox="0 0 25 25" style="enable-background:new 0 0 25 25;" xml:space="preserve">
<style type="text/css">
	.st0{fill:#552AF3;}
</style>
<g id="dashboard_active" transform="translate(-0.044)">
	<path id="Rectangle_9" class="st0" d="M2,0h8c1.1,0,2,0.9,2,2v8c0,1.1-0.9,2-2,2H2c-1.1,0-2-0.9-2-2V2C0,0.9,0.9,0,2,0z"/>
	<path id="Rectangle_12" class="st0" d="M2,13h8c1.1,0,2,0.9,2,2v8c0,1.1-0.9,2-2,2H2c-1.1,0-2-0.9-2-2v-8C0,13.9,0.9,13,2,13z"/>
	<path id="Rectangle_10" class="st0" d="M15,0h8c1.1,0,2,0.9,2,2v8c0,1.1-0.9,2-2,2h-8c-1.1,0-2-0.9-2-2V2C13,0.9,13.9,0,15,0z"/>
	<path id="Rectangle_11" class="st0" d="M15,13h8c1.1,0,2,0.9,2,2v8c0,1.1-0.9,2-2,2h-8c-1.1,0-2-0.9-2-2v-8C13,13.9,13.9,13,15,13z
		"/>
</g>
</svg>
