<svg xmlns="http://www.w3.org/2000/svg" width="50.595" height="50.982" viewBox="0 0 50.595 50.982">
  <path id="spends" d="M52.953,35.839l-.939.838a5.258,5.258,0,0,0-1.756,3.832l-.058,3.28a6.459,6.459,0,0,1-5.828,6.317l-3.818.374a5.257,5.257,0,0,0-3.015,1.335L35.02,54.1a7.152,7.152,0,0,1-9.138.383L22.4,51.822a5.258,5.258,0,0,0-2.946-1.072L17,50.636a7.152,7.152,0,0,1-6.79-6.486l-.333-3.6a5.258,5.258,0,0,0-1.419-3.132L6.7,35.568A7.152,7.152,0,0,1,6.5,25.955l2.113-2.429A5.257,5.257,0,0,0,9.9,20.121l.023-2.65a7.152,7.152,0,0,1,6.468-7.058l3.65-.351a5.258,5.258,0,0,0,3.168-1.47L24.847,7a7.152,7.152,0,0,1,9.585-.365l2.4,2.011A5.257,5.257,0,0,0,40,9.866l3.116.12a7.152,7.152,0,0,1,6.835,6.388l.607,5.688,3.19,3.946a7.152,7.152,0,0,1-.8,9.831ZM30.022,14.153A16.054,16.054,0,1,0,46.076,30.207,16.054,16.054,0,0,0,30.022,14.153Zm0,29.85a13.8,13.8,0,1,1,13.8-13.8A13.8,13.8,0,0,1,30.022,44ZM32.6,26.757h2.939c-.041-2.38-1.739-4.072-4.9-4.33V20.875h-1.3v1.552c-3.1.248-4.916,1.912-4.916,4.449,0,2.152,1.333,3.59,3.823,4.169l1.093.286v4a2.337,2.337,0,0,1-2.286-2.042H24.112c.01,2.535,1.981,4.207,5.225,4.394v1.488h1.306v-1.5c3.44-.222,5.225-1.919,5.225-4.547,0-2.247-1.322-3.617-3.967-4.2l-1.258-.3V24.878A1.892,1.892,0,0,1,32.6,26.757Zm-5.2-.142a1.828,1.828,0,0,1,1.93-1.737v3.513c-1.254-.27-1.923-.865-1.923-1.776Zm5.538,6.85c0,1.1-.744,1.807-2.3,1.87V31.577c1.562.208,2.307.884,2.307,1.888Z" transform="translate(-4.744 -4.967)" fill="#18ce0f" fill-rule="evenodd"/>
</svg>
