<svg xmlns="http://www.w3.org/2000/svg" width="40.372" height="40.372" viewBox="0 0 40.372 40.372">
  <path id="earnings" d="M34.154,14.153A20.186,20.186,0,1,0,54.34,34.339,20.186,20.186,0,0,0,34.154,14.153Zm0,37.532A17.352,17.352,0,1,1,51.505,34.334,17.352,17.352,0,0,1,34.154,51.685ZM37.4,30h3.7c-.052-2.993-2.187-5.12-6.161-5.444V22.605H33.293v1.951c-3.9.312-6.181,2.4-6.181,5.594,0,2.706,1.676,4.514,4.807,5.242l1.374.36v5.029a2.938,2.938,0,0,1-2.874-2.568h-3.7c.013,3.187,2.491,5.29,6.57,5.525V45.61h1.642V43.724c4.325-.279,6.57-2.413,6.57-5.717,0-2.825-1.662-4.548-4.988-5.281l-1.582-.377v-4.71A2.379,2.379,0,0,1,37.4,30Zm-6.538-.179a2.3,2.3,0,0,1,2.427-2.184v4.417c-1.577-.339-2.418-1.088-2.418-2.233Zm6.963,8.613c0,1.383-.935,2.272-2.892,2.351V36.061c1.964.262,2.9,1.112,2.9,2.374Z" transform="translate(-13.968 -14.153)" fill="#fff" fill-rule="evenodd"/>
</svg>
