<svg xmlns="http://www.w3.org/2000/svg" width="44.423" height="39.055" viewBox="0 0 44.423 39.055">
  <path id="Path_278" data-name="Path 278" d="M40.835,32.127a12.3,12.3,0,0,0-17.394.009l-1.215,1.215-1.234-1.234A12.289,12.289,0,0,0,3.6,32.1a12.289,12.289,0,0,0,.019,17.394L21.3,67.179a1.262,1.262,0,0,0,1.789.009L40.816,49.53a12.323,12.323,0,0,0,.019-17.4Zm-1.808,15.6L22.2,64.495,5.406,47.7A9.749,9.749,0,1,1,19.193,33.916l2.128,2.128a1.268,1.268,0,0,0,1.8,0l2.11-2.11a9.756,9.756,0,0,1,13.8,13.8Z" transform="translate(0 -28.501)" fill="#552af3"/>
</svg>
