<?xml version="1.0" encoding="utf-8"?>
<!-- Generator: Adobe Illustrator 26.3.1, SVG Export Plug-In . SVG Version: 6.00 Build 0)  -->
<svg version="1.1" id="Layer_1" xmlns="http://www.w3.org/2000/svg" xmlns:xlink="http://www.w3.org/1999/xlink" x="0px" y="0px"
	 viewBox="0 0 19 20" style="enable-background:new 0 0 19 20;" xml:space="preserve">
<style type="text/css">
	.st0{fill:none;}
	.st1{fill:#FFFFFF;}
</style>
<g id="notificatio_lock" transform="translate(-1558 -175)">
	<g id="Rectangle_475" transform="translate(1558 183)">
		<g>
			<path class="st0" d="M3,0h13c1.7,0,3,1.3,3,3v6c0,1.7-1.3,3-3,3H3c-1.7,0-3-1.3-3-3V3C0,1.3,1.3,0,3,0z"/>
		</g>
		<g>
			<path class="st1" d="M16,12H3c-1.7,0-3-1.3-3-3V3c0-1.7,1.3-3,3-3h13c1.7,0,3,1.3,3,3v6C19,10.7,17.7,12,16,12z M3,1.5
				C2.2,1.5,1.5,2.2,1.5,3v6c0,0.8,0.7,1.5,1.5,1.5h13c0.8,0,1.5-0.7,1.5-1.5V3c0-0.8-0.7-1.5-1.5-1.5H3z"/>
		</g>
	</g>
	<g id="Rectangle_476" transform="translate(1562 175)">
		<g>
			<path class="st0" d="M5.5,0L5.5,0c3,0,5.5,2.5,5.5,5.5V9l0,0H0l0,0V5.5C0,2.5,2.5,0,5.5,0z"/>
		</g>
		<g>
			<path class="st1" d="M11,9H0V5.5C0,2.5,2.5,0,5.5,0c3,0,5.5,2.5,5.5,5.5V9z M1.5,7.5h8v-2c0-2.2-1.8-4-4-4c-2.2,0-4,1.8-4,4V7.5z
				"/>
		</g>
	</g>
</g>
</svg>
