<svg xmlns="http://www.w3.org/2000/svg" width="42.304" height="40.465" viewBox="0 0 42.304 40.465">
  <path id="Path_766" data-name="Path 766" d="M692.679,72.357v25.75a3.678,3.678,0,0,0,3.679,3.679h14.715a3.678,3.678,0,0,0,3.679-3.679V90.75h3.679v7.357a7.357,7.357,0,0,1-7.357,7.357H696.357A7.357,7.357,0,0,1,689,98.108V72.357A7.357,7.357,0,0,1,696.357,65h14.715a7.357,7.357,0,0,1,7.357,7.357v7.357H714.75V72.357a3.678,3.678,0,0,0-3.679-3.679H696.357A3.678,3.678,0,0,0,692.679,72.357ZM728.7,82.631l-5.2-5.2-2.6,2.6,3.364,3.363H703.714v3.679h20.549L720.9,90.435l2.6,2.6,5.2-5.2.761-.762,1.839-1.839-1.839-1.839Z" transform="translate(-689 -65)" fill="#fff" fill-rule="evenodd"/>
</svg>
