<svg xmlns="http://www.w3.org/2000/svg" width="21.575" height="24.688" viewBox="0 0 21.575 24.688">
  <g id="logout" transform="translate(-41.9 -11)">
    <g id="Group_433" data-name="Group 433" transform="translate(41.9 11)">
      <g id="Group_431" data-name="Group 431" transform="translate(0 3.118)">
        <path id="Path_283" data-name="Path 283" d="M52.687,117.075c-5.95,0-10.787-5.107-10.787-11.389a11.468,11.468,0,0,1,5.724-10.054,1,1,0,0,1,1.391.447,1.117,1.117,0,0,1-.423,1.468,9.29,9.29,0,0,0-4.635,8.139,8.744,8.744,0,1,0,17.463,0,9.292,9.292,0,0,0-4.635-8.139,1.119,1.119,0,0,1-.423-1.468,1,1,0,0,1,1.391-.447,11.474,11.474,0,0,1,5.724,10.054C63.475,111.968,58.638,117.075,52.687,117.075Z" transform="translate(-41.9 -95.505)" fill="#232222"/>
      </g>
      <g id="Group_432" data-name="Group 432" transform="translate(10.035 0)">
        <path id="Path_284" data-name="Path 284" d="M236.353,18.184a.751.751,0,0,1-.753-.753V11.753a.753.753,0,0,1,1.506,0v5.675A.754.754,0,0,1,236.353,18.184Z" transform="translate(-235.6 -11)" fill="#232222"/>
      </g>
    </g>
  </g>
</svg>
