<?xml version="1.0" encoding="utf-8"?>
<!-- Generator: Adobe Illustrator 26.3.1, SVG Export Plug-In . SVG Version: 6.00 Build 0)  -->
<svg version="1.1" id="Layer_1" xmlns="http://www.w3.org/2000/svg" xmlns:xlink="http://www.w3.org/1999/xlink" x="0px" y="0px"
	 viewBox="0 0 29 24.5" style="enable-background:new 0 0 29 24.5;" xml:space="preserve">
<style type="text/css">
	.st0{fill:#232222;}
</style>
<g id="messages" transform="translate(0.75 -22.325)">
	<g id="Path_307">
		<path class="st0" d="M6.2,43.1c-0.9,0-1.7-0.8-1.7-1.7V39H3c-2.1,0-3.8-1.7-3.8-3.8v-9.1c0-2.1,1.7-3.8,3.8-3.8h16.7
			c2.1,0,3.8,1.7,3.8,3.8v9.1c0,1.7-1.2,3.2-2.8,3.6l0,0.1H11l-3.6,3.6C7,42.9,6.6,43.1,6.2,43.1z M3,23.8c-1.2,0-2.3,1-2.3,2.3v9.1
			c0,1.2,1,2.3,2.3,2.3H6v3.9c0,0.2,0.2,0.3,0.3,0.1l4.1-4.1l9.4,0c1.3,0,2.3-1,2.3-2.3v-9.1c0-1.2-1-2.3-2.3-2.3H3z"/>
	</g>
	<g id="Path_308">
		<path class="st0" d="M22.2,46.9C22.2,46.9,22.2,46.9,22.2,46.9c-0.5,0-0.9-0.2-1.2-0.5l-2.9-2.9h-7c-1.7,0-3.1-1.2-3.3-2.8
			l-0.1-0.4L10,38h8.8c2.1,0,3.8-1.7,3.8-3.8v-5h2.3c1.9,0,3.4,1.5,3.4,3.4v7.5c0,1.9-1.5,3.4-3.4,3.4h-0.9v1.7
			c0,0.4-0.2,0.9-0.5,1.2C23.1,46.7,22.7,46.9,22.2,46.9z M9.4,40.8c0.3,0.7,1,1.2,1.8,1.2h7.7l3.3,3.3c0.1,0.1,0.2,0.1,0.3,0
			c0,0,0.1-0.1,0.1-0.1V42h2.4c1,0,1.9-0.9,1.9-1.9v-7.5c0-1-0.9-1.9-1.9-1.9H24v3.5c0,2.9-2.4,5.3-5.3,5.3h-8.1L9.4,40.8z"/>
	</g>
</g>
</svg>
