<svg xmlns="http://www.w3.org/2000/svg" width="28.922" height="23.138" viewBox="0 0 28.922 23.138">
  <path id="microphone-slash" d="M11.594,4.333a2.892,2.892,0,0,1,5.785,0V11.08l1.387,1.089a4.433,4.433,0,0,0,.059-.606V4.333a4.338,4.338,0,0,0-8.677,0V5.386l1.446,1.139Zm10.123,7.231V9.033a.363.363,0,0,0-.362-.362h-.723a.363.363,0,0,0-.362.362v2.531a5.662,5.662,0,0,1-.253,1.6l1.22.963A7.069,7.069,0,0,0,21.717,11.564ZM18.463,21.687H15.209V18.749a7.175,7.175,0,0,0,3.326-1.234l-1.193-.94a5.73,5.73,0,0,1-3.249.759A5.92,5.92,0,0,1,8.7,11.361V9.77L7.414,8.753a.346.346,0,0,0-.158.276V11.3a7.4,7.4,0,0,0,6.508,7.43v2.956H10.51a.363.363,0,0,0-.362.362v.723a.363.363,0,0,0,.362.362h7.954a.363.363,0,0,0,.362-.362v-.723A.363.363,0,0,0,18.463,21.687ZM14.486,15.9a4.3,4.3,0,0,0,1.6-.316l-1.455-1.148c-.05,0-.095.014-.149.014a2.891,2.891,0,0,1-2.838-2.368l-1.5-1.175v.655A4.34,4.34,0,0,0,14.486,15.9Zm14.326,6.02L1.064.076A.355.355,0,0,0,.558.13L.106.7A.359.359,0,0,0,.161,1.2l27.748,21.85A.359.359,0,0,0,28.415,23l.452-.565A.361.361,0,0,0,28.812,21.922Z" transform="translate(-0.026 0.005)"/>
</svg>
