<svg xmlns="http://www.w3.org/2000/svg" width="14.461" height="23.138" viewBox="0 0 14.461 23.138">
  <path id="microphone" d="M7.231,15.907a4.338,4.338,0,0,0,4.338-4.338V4.338a4.338,4.338,0,0,0-8.677,0v7.231A4.338,4.338,0,0,0,7.231,15.907ZM4.338,4.338a2.892,2.892,0,0,1,5.785,0v7.231a2.892,2.892,0,0,1-5.785,0ZM14.1,8.677h-.723a.361.361,0,0,0-.362.362v2.531A5.791,5.791,0,0,1,6.836,17.34a5.921,5.921,0,0,1-5.39-5.975V9.038a.361.361,0,0,0-.362-.362H.362A.361.361,0,0,0,0,9.038v2.275a7.4,7.4,0,0,0,6.508,7.431v2.948H3.254a.361.361,0,0,0-.362.362v.723a.361.361,0,0,0,.362.362h7.954a.361.361,0,0,0,.362-.362v-.723a.361.361,0,0,0-.362-.362H7.954V18.754a7.235,7.235,0,0,0,6.508-7.185V9.038A.361.361,0,0,0,14.1,8.677Z" fill="#fff"/>
</svg>
