<svg xmlns="http://www.w3.org/2000/svg" width="37.471" height="38.39" viewBox="0 0 37.471 38.39">
  <path id="this_month" d="M19.4,28.576c-2.143.989-2.632,4.5-1.09,7.835s4.527,5.242,6.67,4.255,2.632-4.5,1.09-7.835S21.548,27.588,19.4,28.576ZM30.03,16.314c-2.908,0-5.265,3.673-5.265,8.2s2.357,8.2,5.265,8.2,5.265-3.673,5.265-8.2S32.938,16.314,30.03,16.314ZM31.7,37.822a41.507,41.507,0,0,0-5.692,7.447c-1.613,2.539-2.376,3.883-2.376,5.3,0,2.781,2.066,4.127,4.847,4.127a6.881,6.881,0,0,0,3.988-1.029,6.23,6.23,0,0,1,4.357-1.077,6.225,6.225,0,0,1,4.331,1.063A6.991,6.991,0,0,0,45.173,54.7c2.781,0,4.845-1.344,4.845-4.127,0-1.407-.76-2.757-2.375-5.3a50.482,50.482,0,0,0-5.691-7.445,7.577,7.577,0,0,0-4.7-1.718H36.4A7.787,7.787,0,0,0,31.7,37.822ZM42.27,16.314c-2.908,0-5.265,3.673-5.265,8.2s2.357,8.2,5.265,8.2,5.265-3.673,5.265-8.2S45.173,16.314,42.27,16.314ZM52.9,28.575c-2.143-.989-5.129.916-6.67,4.255s-1.046,6.847,1.092,7.837,5.129-.917,6.67-4.255,1.051-6.847-1.092-7.835Z" transform="translate(-17.415 -16.314)" fill="#0464ce" fill-rule="evenodd"/>
</svg>
