<svg xmlns="http://www.w3.org/2000/svg" width="39.987" height="47.003" viewBox="0 0 39.987 47.003">
  <path id="clinic_visit" d="M46,53.99H14.013a4,4,0,0,1-4-4V22.084a4,4,0,0,1,4-4H46a4,4,0,0,1,4,4V49.99A4,4,0,0,1,46,53.99ZM41.9,34.207a3.4,3.4,0,0,0-6.777,0v.117H24.747v-.117a3.4,3.4,0,0,0-6.777,0,3.075,3.075,0,0,0,1.1,2.34,3.075,3.075,0,0,0-1.1,2.34,3.4,3.4,0,0,0,6.777,0q0-.058,0-.117h10.38v.117a3.4,3.4,0,0,0,6.777,0,3.076,3.076,0,0,0-1.1-2.34,3.074,3.074,0,0,0,1.1-2.34ZM15.008,6.987H45V16.02H15.008ZM38.995,14h3.011V9H38.995Zm-5,0h3.011V9H33.995Zm-5,0h2.011V9H29v5Zm-6,0h3.011V9H23v5Zm-4.989,0h3.011V9H18.006v5Z" transform="translate(-10.013 -6.987)" fill="#4073e9" fill-rule="evenodd"/>
</svg>
