<?xml version="1.0" encoding="utf-8"?>
<!-- Generator: Adobe Illustrator 26.3.1, SVG Export Plug-In . SVG Version: 6.00 Build 0)  -->
<svg version="1.1" id="Layer_1" xmlns="http://www.w3.org/2000/svg" xmlns:xlink="http://www.w3.org/1999/xlink" x="0px" y="0px"
	 viewBox="0 0 24.1 24.6" style="enable-background:new 0 0 24.1 24.6;" xml:space="preserve">
<style type="text/css">
	.st0{fill:#232222;}
</style>
<g id="patient" transform="translate(0.175 0.75)">
	<g id="Path_84">
		<path class="st0" d="M7.5,23.9c-0.1,0-0.2,0-0.3,0c0,0,0,0,0,0c-2.2,0-3.6-1.3-3.6-3.2c0-1.1,0.6-2.1,1.5-3.6
			c1-1.7,2.2-3.2,3.5-4.6c1-0.8,2.2-1.2,3.4-1.3h0.5c1.2,0,2.4,0.4,3.3,1.2l0.1,0.1c0.3,0.3,0.6,0.7,0.9,1c-0.2-0.9-0.2-2.1,0.2-3.2
			c-0.4,0.3-0.9,0.4-1.5,0.4c-1.7,0-3.1-1.5-3.7-3.7c-0.5,2.2-2,3.7-3.7,3.7c-0.5,0-1-0.1-1.5-0.4c0.8,2.2,0.3,4.4-1.3,5.1h0
			c-0.9,0.4-1.9,0.3-2.9-0.4c-0.9-0.6-1.6-1.5-2.2-2.6c-0.7-1.4-0.8-3-0.4-4.1C0.4,7.5,0.8,7,1.5,6.7c1-0.4,2.1-0.2,3.1,0.5
			C4.4,6.5,4.3,5.8,4.3,4.9c0-3.2,1.7-5.7,3.9-5.7c1.7,0,3.1,1.5,3.7,3.7c0.5-2.2,2-3.7,3.7-3.7c2.2,0,3.9,2.5,3.9,5.7
			c0,0.8-0.1,1.6-0.3,2.3c0.3-0.2,0.7-0.4,1-0.6c0.7-0.3,1.5-0.3,2.1,0c0.9,0.4,1.4,1.3,1.6,2.4c0.1,1-0.1,2.2-0.6,3.3
			c-0.5,1.1-1.3,2-2.2,2.6c-1,0.6-2,0.7-2.9,0.4c0.4,0.6,0.8,1.1,1.1,1.7c1,1.5,1.5,2.5,1.5,3.6c0,2-1.4,3.2-3.7,3.2
			c-1,0-2-0.2-2.8-0.7c-0.6-0.4-1.4-0.6-2.1-0.5l-0.1,0l-0.1,0c-0.7-0.1-1.5,0.1-2.1,0.5C9.3,23.6,8.4,23.9,7.5,23.9z M12.5,12.7
			l-0.5,0c-0.8,0-1.7,0.3-2.4,0.9c-1.2,1.3-2.3,2.7-3.3,4.3c-0.9,1.4-1.3,2.2-1.3,2.8c0,1.5,1.4,1.7,2.2,1.7c0.7,0,1.4-0.1,2-0.5
			c0.9-0.6,1.9-0.9,3-0.8c1.1-0.1,2.1,0.2,3,0.8c0.6,0.4,1.2,0.5,2,0.5c0.8,0,2.2-0.2,2.2-1.7c0-0.7-0.4-1.4-1.3-2.8l0,0
			c-1-1.5-2.1-3-3.3-4.3C14.2,13,13.4,12.7,12.5,12.7z M2.5,8C2.4,8,2.2,8,2.1,8.1C1.8,8.2,1.6,8.4,1.5,8.8c-0.3,0.8-0.2,1.9,0.3,3
			c0.4,0.8,1,1.5,1.6,1.9c0.3,0.2,0.9,0.5,1.4,0.3l0,0c0.8-0.4,1.1-2,0.3-3.7C4.4,8.8,3.3,8,2.5,8z M21.2,8c-0.2,0-0.3,0-0.5,0.1
			c-0.8,0.3-1.6,1.1-2.1,2.2c-0.8,1.7-0.5,3.4,0.3,3.7c0.5,0.2,1.1-0.1,1.4-0.3c0.6-0.4,1.2-1.1,1.6-1.9c0.4-0.8,0.5-1.7,0.4-2.5
			c-0.1-0.4-0.2-1-0.7-1.3l0,0C21.5,8,21.4,8,21.2,8z M15.6,0.8c-1.3,0-2.4,1.9-2.4,4.2s1.1,4.2,2.4,4.2h0c1.3,0,2.4-1.9,2.4-4.2
			S16.9,0.8,15.6,0.8z M8.2,0.8c-1.3,0-2.4,1.9-2.4,4.2s1.1,4.2,2.4,4.2s2.4-1.9,2.4-4.2S9.5,0.8,8.2,0.8z"/>
	</g>
</g>
</svg>
