<svg xmlns="http://www.w3.org/2000/svg" width="104.087" height="96.39" viewBox="0 0 104.087 96.39">
  <path id="new_patients_bg" d="M87.631,27.833a25.482,25.482,0,0,1,5.294,26.608c0,.011,30.244,21.5,19.886,43.044a28.292,28.292,0,0,1-22.372,15.484c-22.947,1.49-38.642-.813-40.7-8.374-3.944-14.49,12.838-17.37,14.034-9.771,0,.015-11.588-1.726-9.824,4.187,2.4,8.036,14,1.677,15.437-1.4,2.625-5.615-2.092-15.68,1.4-27.915a59.1,59.1,0,0,0,1.4-9.771C56.7,50,58.143,41.787,58.158,41.785a16.787,16.787,0,0,1,14.034,4.187c-.032-9.153,11.233-6.963,11.227-6.98C81.756,33.519,87.221,28.606,87.631,27.833Zm-1.4-2.791c.038-.087-7.491,2.165-21.05-6.978-5.068-3.417-18.368,2.129-21.05,6.978-4.615,8.336.832,10.748-1.4,15.354-5.869,12.091-51,39.47-22.457,67,7.32,7.061,32.307,5.6,32.279,5.583-6.686-5.06-10.522-24.918,5.613-25.118,9.255-.119,7.337,6.991,5.613,8.374-1.916,1.533-7.005-.068-7.025,0-.583,3.776,10.022,3.7,9.824,0C65.417,74.651,68.714,70,69.38,61.337c.189-2.476-9.347-8.066-11.227-11.167C49.562,36,61.172,37.791,69.38,40.4c2.469.783,2.767-2.929,7.025-4.187C84.381,33.847,84.421,29.072,86.229,25.043Z" transform="translate(-10.885 -17.008)" fill="#fff" fill-rule="evenodd" opacity="0.1"/>
</svg>
