<svg id="phone" xmlns="http://www.w3.org/2000/svg" width="22.434" height="22.434" viewBox="0 0 22.434 22.434">
  <path id="Path_365" data-name="Path 365" d="M0,0H22.434V22.434H0Z" fill="none"/>
  <path id="Path_366" data-name="Path 366" d="M29.017,25.247l-2.374-.271a1.861,1.861,0,0,0-1.533.533l-1.72,1.72a14.064,14.064,0,0,1-6.16-6.16l1.729-1.729a1.861,1.861,0,0,0,.533-1.533l-.271-2.356a1.871,1.871,0,0,0-1.86-1.655H15.744a1.855,1.855,0,0,0-1.87,1.935A15.883,15.883,0,0,0,28.727,30.584a1.855,1.855,0,0,0,1.935-1.87V27.1A1.853,1.853,0,0,0,29.017,25.247Z" transform="translate(-11.042 -10.982)" fill="#552af3"/>
</svg>
