<svg xmlns="http://www.w3.org/2000/svg" width="59.729" height="59.729" viewBox="0 0 59.729 59.729">
  <g id="Group_902" data-name="Group 902" transform="translate(-14.674 -18.574)">
    <path id="phone" d="M40.232,1.982,31.917.06a2.585,2.585,0,0,0-2.953,1.493L25.128,10.5a2.587,2.587,0,0,0,.734,3.011l4.446,3.638A28.87,28.87,0,0,1,17.144,30.317l-3.638-4.446a2.587,2.587,0,0,0-3.011-.734L1.553,28.972A2.574,2.574,0,0,0,.06,31.917l1.914,8.307a2.576,2.576,0,0,0,2.516,2A37.73,37.73,0,0,0,42.228,4.49,2.561,2.561,0,0,0,40.232,1.982ZM4.539,39.589l-1.9-8.216L11.5,27.578l4.908,6.005c8.546-4.009,13.173-8.653,17.166-17.166L27.57,11.51,31.365,2.65l8.216,1.9A35.079,35.079,0,0,1,4.539,39.589Z" transform="translate(44.538 78.294) rotate(-135)" fill="#fff"/>
  </g>
</svg>
