<svg xmlns="http://www.w3.org/2000/svg" width="22.746" height="22.747" viewBox="0 0 22.746 22.747">
  <path id="Path_81" data-name="Path 81" d="M180.877,551.592a9.115,9.115,0,1,1,1.584-1.6c.068.071.139.148.212.221q2.913,2.911,5.827,5.821a1.183,1.183,0,0,1,.392,1.177,1.136,1.136,0,0,1-1.862.574c-.073-.065-.141-.135-.21-.2q-2.875-2.875-5.748-5.749C181,551.763,180.949,551.68,180.877,551.592Zm-5.616-.349a6.819,6.819,0,1,0-6.817-6.835A6.791,6.791,0,0,0,175.262,551.244Z" transform="translate(-166.181 -535.329)" fill="#a0a7af"/>
</svg>
