<?xml version="1.0" encoding="utf-8"?>
<!-- Generator: Adobe Illustrator 26.3.1, SVG Export Plug-In . SVG Version: 6.00 Build 0)  -->
<svg version="1.1" id="Layer_1" xmlns="http://www.w3.org/2000/svg" xmlns:xlink="http://www.w3.org/1999/xlink" x="0px" y="0px"
	 viewBox="0 0 25.5 25.5" style="enable-background:new 0 0 25.5 25.5;" xml:space="preserve">
<style type="text/css">
	.st0{fill:#232222;}
</style>
<g id="settings" transform="translate(0.25 0.249)">
	<g id="Group_430" transform="translate(0 0.001)">
		<g id="Path_281">
			<path class="st0" d="M23.7,9.9L22,9.6c-0.2-0.6-0.4-1.2-0.7-1.7l1-1.4c0.4-0.6,0.4-1.5-0.2-2l-1.6-1.6c-0.3-0.3-0.7-0.5-1.1-0.5
				c-0.3,0-0.6,0.1-0.9,0.3l-1.5,1C16.6,3.5,16,3.2,15.4,3l-0.3-1.7C15,0.5,14.3,0,13.6,0h-2.2C10.6,0,10,0.5,9.8,1.3L9.5,3.1
				C8.9,3.3,8.4,3.5,7.8,3.8l-1.4-1c-0.6-0.4-1.5-0.4-2,0.2L2.8,4.5C2.3,5,2.2,5.8,2.7,6.5l1,1.5C3.4,8.5,3.2,9.1,3,9.6L1.3,9.9
				C0.5,10.1,0,10.7,0,11.5v2.2c0,0.8,0.5,1.4,1.3,1.5l1.8,0.3c0.2,0.6,0.4,1.2,0.7,1.7l-1,1.4c-0.4,0.6-0.4,1.5,0.2,2l1.6,1.6
				c0.3,0.3,0.7,0.5,1.1,0.5c0.3,0,0.6-0.1,0.9-0.3l1.5-1C8.5,21.6,9,21.8,9.6,22l0.3,1.8c0.1,0.7,0.8,1.3,1.5,1.3h2.2
				c0.8,0,1.4-0.5,1.5-1.3l0.3-1.8c0.6-0.2,1.2-0.4,1.7-0.7l1.5,1c0.3,0.2,0.6,0.3,0.9,0.3l0,0c0.4,0,0.8-0.2,1.1-0.5l1.6-1.6
				c0.5-0.5,0.6-1.4,0.2-2l-1-1.5c0.3-0.5,0.5-1.1,0.7-1.7l1.8-0.3c0.7-0.1,1.3-0.8,1.3-1.5v-2.2C25,10.7,24.5,10,23.7,9.9z
				 M23.6,13.6c0,0.1,0,0.1-0.1,0.1l-2.2,0.4c-0.3,0-0.5,0.2-0.6,0.5c-0.2,0.8-0.5,1.5-0.9,2.2c-0.1,0.2-0.1,0.5,0,0.8l1.3,1.8
				c0,0.1,0,0.1,0,0.2l-1.6,1.6c0,0-0.1,0-0.1,0c0,0-0.1,0-0.1,0l-1.8-1.3c-0.2-0.2-0.5-0.2-0.8,0c-0.7,0.4-1.4,0.7-2.2,0.9
				c-0.3,0.1-0.5,0.3-0.5,0.6l-0.4,2.2c0,0.1-0.1,0.1-0.1,0.1h-2.2c-0.1,0-0.1,0-0.1-0.1l-0.4-2.2c0-0.3-0.2-0.5-0.5-0.6
				c-0.8-0.2-1.5-0.5-2.1-0.9c-0.1-0.1-0.2-0.1-0.4-0.1c-0.1,0-0.3,0-0.4,0.1l-1.8,1.3c0,0-0.1,0-0.1,0c0,0-0.1,0-0.1,0l-1.6-1.6
				c0,0-0.1-0.1,0-0.2l1.3-1.8c0.2-0.2,0.2-0.5,0-0.8c-0.4-0.7-0.7-1.4-0.9-2.2c-0.1-0.3-0.3-0.5-0.6-0.5l-2.2-0.4
				c-0.1,0-0.1-0.1-0.1-0.1v-2.2c0-0.1,0-0.1,0.1-0.1L3.7,11c0.3,0,0.5-0.3,0.6-0.5c0.2-0.8,0.5-1.5,0.9-2.2c0.1-0.2,0.1-0.5,0-0.8
				L3.8,5.6c0-0.1,0-0.1,0-0.2l1.6-1.6c0,0,0.1,0,0.1,0c0,0,0.1,0,0.1,0l1.8,1.3c0.2,0.2,0.5,0.2,0.8,0c0.7-0.4,1.4-0.7,2.2-0.9
				c0.3-0.1,0.5-0.3,0.5-0.6l0.4-2.2c0-0.1,0.1-0.1,0.1-0.1h2.2c0.1,0,0.1,0,0.1,0.1l0.4,2.2c0,0.3,0.3,0.5,0.5,0.6
				c0.8,0.2,1.5,0.5,2.2,0.9c0.2,0.1,0.5,0.1,0.8,0l1.8-1.3c0,0,0.1,0,0.1,0c0,0,0.1,0,0.1,0l1.6,1.6c0,0,0.1,0.1,0,0.2l-1.3,1.8
				c-0.2,0.2-0.2,0.5,0,0.8c0.4,0.7,0.7,1.4,0.9,2.2c0.1,0.3,0.3,0.5,0.6,0.5l2.2,0.4c0.1,0,0.1,0.1,0.1,0.1L23.6,13.6L23.6,13.6z"
				/>
			<path class="st0" d="M13.6,25.3C13.6,25.3,13.6,25.3,13.6,25.3h-2.2c0,0,0,0,0,0c-0.9,0-1.6-0.6-1.8-1.5l-0.3-1.6
				c-0.5-0.2-1-0.4-1.4-0.6l-1.3,1c-0.3,0.2-0.7,0.3-1,0.3c0,0,0,0,0,0c-0.5,0-0.9-0.2-1.3-0.5l-1.6-1.6c-0.6-0.6-0.7-1.6-0.2-2.3
				l0.9-1.3c-0.2-0.5-0.4-1-0.6-1.5l-1.6-0.3c-0.9-0.1-1.5-0.9-1.5-1.8v-2.2c0-0.9,0.6-1.6,1.5-1.8l1.6-0.3C3,8.9,3.2,8.4,3.4,8
				l-1-1.3C2,5.9,2,4.9,2.7,4.3l1.6-1.6C4.9,2.1,5.8,2,6.5,2.5l1.3,0.9c0.5-0.2,1-0.4,1.5-0.6l0.3-1.6c0.1-0.9,0.9-1.5,1.8-1.5
				c0,0,0,0,0,0h2.2c0,0,0,0,0,0c0.9,0,1.6,0.6,1.8,1.5l0.3,1.6c0.5,0.2,1,0.4,1.5,0.6l1.3-0.9c0.3-0.2,0.7-0.3,1-0.3c0,0,0,0,0,0
				c0.5,0,0.9,0.2,1.3,0.5l1.6,1.6c0.6,0.6,0.7,1.6,0.2,2.3l-0.9,1.3c0.2,0.5,0.4,1,0.6,1.5l1.6,0.3c0.9,0.1,1.5,0.9,1.5,1.8v2.2
				c0,0.9-0.6,1.6-1.5,1.8l-1.6,0.3c-0.2,0.5-0.4,1-0.6,1.5l0.9,1.3c0.5,0.7,0.4,1.7-0.2,2.3l-1.6,1.6c-0.3,0.3-0.8,0.5-1.3,0.5
				c0,0,0,0,0,0c-0.4,0-0.7-0.1-1-0.3l-1.3-0.9c-0.5,0.2-1,0.4-1.5,0.6l-0.3,1.6C15.2,24.6,14.5,25.3,13.6,25.3z M11.4,24.8h2.2
				c0,0,0,0,0,0c0.6,0,1.2-0.5,1.3-1.1l0.3-1.9l0.1,0c0.6-0.2,1.1-0.4,1.7-0.7l0.1-0.1l1.6,1.1c0.2,0.2,0.5,0.2,0.8,0.2c0,0,0,0,0,0
				c0.3,0,0.7-0.1,0.9-0.4l1.6-1.6c0.5-0.5,0.5-1.2,0.1-1.7L21,17.1L21,17c0.3-0.5,0.5-1.1,0.7-1.7l0-0.1l1.9-0.3
				c0.6-0.1,1.1-0.6,1.1-1.3v-2.2c0-0.6-0.5-1.2-1.1-1.3h0l-1.9-0.3l0-0.1c-0.2-0.6-0.4-1.1-0.7-1.7L21,7.9l1.1-1.6
				c0.4-0.5,0.3-1.2-0.1-1.7l-1.6-1.6c-0.2-0.2-0.6-0.4-0.9-0.4c0,0,0,0,0,0c-0.3,0-0.5,0.1-0.7,0.2L17.2,4L17,4
				c-0.5-0.3-1.1-0.5-1.7-0.7l-0.1,0l-0.3-1.9c-0.1-0.6-0.6-1.1-1.3-1.1c0,0,0,0,0,0h-2.2c0,0,0,0,0,0c-0.6,0-1.2,0.5-1.3,1.1
				L9.8,3.3l-0.1,0C9,3.5,8.5,3.7,8,4L7.8,4.1L6.3,3C5.7,2.6,5,2.6,4.6,3.1L3,4.7C2.6,5.1,2.5,5.8,2.9,6.3L4,7.9L3.9,8
				C3.7,8.6,3.4,9.1,3.3,9.7l0,0.1l-1.9,0.3c-0.6,0.1-1.1,0.6-1.1,1.3v2.2c0,0.6,0.5,1.2,1.1,1.3l1.9,0.3l0,0.1
				C3.5,16,3.7,16.5,4,17.1l0.1,0.1L3,18.8c-0.4,0.5-0.3,1.2,0.1,1.7L4.7,22c0.2,0.2,0.6,0.4,0.9,0.4c0,0,0,0,0,0
				c0.3,0,0.5-0.1,0.7-0.2L7.9,21L8,21.1c0.5,0.3,1.1,0.5,1.6,0.7l0.1,0l0.3,1.9C10.2,24.3,10.8,24.8,11.4,24.8
				C11.4,24.8,11.4,24.8,11.4,24.8z M11.4,23.9c-0.2,0-0.3-0.1-0.4-0.3l-0.4-2.2c0-0.2-0.2-0.3-0.3-0.4c-0.8-0.2-1.5-0.5-2.2-0.9
				C8,20,7.8,20,7.6,20.1l-1.8,1.3c-0.1,0-0.1,0.1-0.2,0.1h0c-0.1,0-0.2,0-0.3-0.1l-1.6-1.6c-0.1-0.1-0.1-0.3,0-0.5L5,17.5
				c0.1-0.1,0.1-0.3,0-0.5c-0.4-0.7-0.7-1.5-0.9-2.3c0-0.2-0.2-0.3-0.4-0.3L1.5,14c-0.2,0-0.3-0.2-0.3-0.4v-2.2
				c0-0.2,0.1-0.4,0.3-0.4l2.2-0.4c0.2,0,0.3-0.2,0.4-0.3C4.2,9.6,4.5,8.8,5,8.1C5,8,5,7.8,4.9,7.6L3.6,5.8c-0.1-0.2-0.1-0.4,0-0.5
				l1.6-1.6c0.1-0.1,0.2-0.1,0.3-0.1c0,0,0,0,0,0c0.1,0,0.2,0,0.2,0.1L7.5,5C7.7,5.1,7.9,5.1,8,5c0.7-0.4,1.5-0.7,2.2-0.9
				c0.2,0,0.3-0.2,0.3-0.4L11,1.5c0-0.2,0.2-0.3,0.4-0.3h2.2c0.2,0,0.4,0.1,0.4,0.3l0.4,2.2c0,0.2,0.2,0.3,0.3,0.4
				C15.5,4.2,16.2,4.5,17,5c0.2,0.1,0.4,0.1,0.5,0l1.8-1.3c0.1,0,0.1-0.1,0.2-0.1h0c0.1,0,0.2,0,0.3,0.1l1.6,1.6
				c0.1,0.1,0.2,0.3,0,0.5l-1.3,1.8c-0.1,0.1-0.1,0.3,0,0.5c0.4,0.7,0.7,1.5,0.9,2.3c0,0.2,0.2,0.3,0.4,0.3l2.2,0.4
				c0.2,0,0.3,0.2,0.3,0.4v2.4h-0.1c-0.1,0.1-0.1,0.1-0.2,0.1l-2.2,0.4c-0.2,0-0.3,0.2-0.4,0.3c-0.2,0.8-0.5,1.6-0.9,2.3
				c-0.1,0.2-0.1,0.3,0,0.5l1.3,1.8c0.1,0.2,0.1,0.4,0,0.5l-1.6,1.6c-0.1,0.1-0.1,0.1-0.3,0.1l0,0c-0.1,0-0.2,0-0.2-0.1l-1.8-1.3
				C17.3,20,17.1,20,17,20c-0.7,0.4-1.5,0.7-2.3,0.9c-0.2,0-0.3,0.2-0.3,0.4L14,23.5c0,0.2-0.2,0.3-0.4,0.3c0,0,0,0,0,0H11.4
				C11.4,23.9,11.4,23.9,11.4,23.9z M13.5,23.5C13.5,23.5,13.5,23.5,13.5,23.5L13.5,23.5z M11.5,23.5L11.5,23.5
				C11.5,23.5,11.5,23.5,11.5,23.5z M11.4,23.4C11.4,23.4,11.4,23.4,11.4,23.4L11.4,23.4C11.4,23.4,11.4,23.4,11.4,23.4z M7.9,19.5
				c0.2,0,0.3,0,0.5,0.1c0.7,0.4,1.4,0.7,2.1,0.9c0.4,0.1,0.6,0.4,0.7,0.8l0.4,2.1h2l0.4-2.1c0.1-0.4,0.3-0.7,0.7-0.8
				c0.7-0.2,1.5-0.5,2.1-0.9c0.3-0.2,0.7-0.2,1,0l1.7,1.2l1.4-1.4l-1.2-1.7c-0.2-0.3-0.2-0.7,0-1c0.4-0.7,0.7-1.4,0.9-2.1
				c0.1-0.4,0.4-0.6,0.8-0.7l2.1-0.4l0-0.2h0v-1.9l-2.1-0.4c-0.4-0.1-0.7-0.3-0.8-0.7C20.3,9.7,20,9,19.6,8.3c-0.2-0.3-0.2-0.7,0-1
				l1.2-1.7l-1.4-1.4l-1.7,1.2c-0.3,0.2-0.7,0.2-1,0C16,5,15.3,4.7,14.5,4.5c-0.4-0.1-0.6-0.4-0.7-0.8l-0.4-2.1h-2l-0.4,2.1
				c-0.1,0.4-0.3,0.7-0.7,0.8C9.7,4.7,8.9,5,8.3,5.4c-0.3,0.2-0.7,0.2-1,0L5.5,4.2L4.1,5.6l1.2,1.8c0.2,0.3,0.2,0.7,0,1
				C5,9,4.7,9.8,4.5,10.5c-0.1,0.4-0.4,0.6-0.8,0.7l-2.1,0.4v2l2.1,0.4c0.4,0.1,0.7,0.3,0.8,0.7c0.2,0.7,0.5,1.5,0.9,2.1
				c0.2,0.3,0.2,0.7,0,1l-1.2,1.7l1.4,1.4l1.8-1.2C7.5,19.6,7.7,19.5,7.9,19.5z M13.6,23.4C13.6,23.4,13.6,23.4,13.6,23.4L13.6,23.4
				C13.6,23.4,13.6,23.4,13.6,23.4z M5.7,21L5.7,21C5.7,21,5.7,21,5.7,21z M19.4,21C19.4,21,19.4,21,19.4,21L19.4,21z M19.5,20.9
				L19.5,20.9C19.5,20.9,19.5,20.9,19.5,20.9z M1.7,13.7L1.7,13.7C1.7,13.7,1.7,13.7,1.7,13.7z M1.6,13.6L1.6,13.6
				C1.6,13.6,1.6,13.6,1.6,13.6z M1.6,11.6L1.6,11.6C1.6,11.6,1.6,11.6,1.6,11.6z M23.5,11.5C23.5,11.5,23.5,11.5,23.5,11.5
				L23.5,11.5z M1.7,11.5L1.7,11.5C1.7,11.5,1.7,11.5,1.7,11.5z M23.4,11.4C23.4,11.4,23.4,11.4,23.4,11.4L23.4,11.4z M5.4,4.1
				C5.4,4.1,5.4,4.1,5.4,4.1L5.4,4.1z M5.6,4.1L5.6,4.1C5.6,4.1,5.6,4.1,5.6,4.1z M19.4,4.1C19.4,4.1,19.4,4.1,19.4,4.1L19.4,4.1z
				 M11.4,1.7L11.4,1.7C11.4,1.7,11.4,1.7,11.4,1.7z M13.6,1.7C13.6,1.7,13.6,1.7,13.6,1.7L13.6,1.7z M13.5,1.6
				C13.5,1.6,13.5,1.6,13.5,1.6L13.5,1.6z M11.5,1.6L11.5,1.6C11.5,1.6,11.5,1.6,11.5,1.6z"/>
		</g>
		<g id="Path_282">
			<path class="st0" d="M12.5,7.1c-3,0-5.4,2.4-5.4,5.4s2.4,5.4,5.4,5.4c3,0,5.4-2.4,5.4-5.4v0C17.9,9.5,15.5,7.1,12.5,7.1z
				 M12.5,16.5c-2.2,0-4-1.8-4-4s1.8-4,4-4s4,1.8,4,4l0,0C16.5,14.7,14.7,16.5,12.5,16.5L12.5,16.5z"/>
			<path class="st0" d="M12.5,18.2c-3.1,0-5.7-2.5-5.7-5.7s2.5-5.6,5.7-5.6s5.6,2.5,5.6,5.6S15.6,18.2,12.5,18.2z M12.5,7.4
				c-2.8,0-5.2,2.3-5.2,5.1s2.3,5.2,5.2,5.2c2.8,0,5.1-2.3,5.1-5.2S15.4,7.4,12.5,7.4z M12.5,16.7L12.5,16.7c-2.3,0-4.2-1.9-4.2-4.2
				c0-2.3,1.9-4.2,4.2-4.2s4.2,1.9,4.2,4.2C16.7,14.8,14.8,16.7,12.5,16.7z M12.5,8.8c-2.1,0-3.7,1.7-3.7,3.7s1.7,3.7,3.7,3.7
				c2.1,0,3.7-1.7,3.7-3.7C16.2,10.4,14.6,8.8,12.5,8.8z"/>
		</g>
	</g>
</g>
</svg>
