<svg id="Group_423" data-name="Group 423" xmlns="http://www.w3.org/2000/svg" width="22.002" height="22.002" viewBox="0 0 22.002 22.002">
  <path id="Path_275" data-name="Path 275" d="M20.7,2.567l-.3-.3a6.008,6.008,0,0,0-8.5,0L2.261,11.9a6.008,6.008,0,0,0,0,8.5l.3.3a6.008,6.008,0,0,0,8.5,0L20.7,11.069a6.008,6.008,0,0,0,0-8.5ZM9.956,19.6a4.441,4.441,0,0,1-6.28,0l-.3-.3a4.441,4.441,0,0,1,0-6.28L7.635,8.748l6.585,6.585Zm9.637-9.637L15.33,14.222,8.746,7.637l4.263-4.263a4.441,4.441,0,0,1,6.28,0l.3.3A4.441,4.441,0,0,1,19.594,9.958Z" transform="translate(-0.482 -0.484)" fill="#552af3"/>
  <path id="Path_276" data-name="Path 276" d="M6.335,22a6.016,6.016,0,0,1-4.264-1.766l-.3-.3a6.026,6.026,0,0,1,0-8.528L11.4,1.768a6.026,6.026,0,0,1,8.528,0l.3.3a6.026,6.026,0,0,1,0,8.528L10.6,20.238A6.016,6.016,0,0,1,6.335,22ZM15.667.039a5.979,5.979,0,0,0-4.238,1.755L1.792,11.431a5.99,5.99,0,0,0,0,8.476l.3.3a5.99,5.99,0,0,0,8.476,0l9.637-9.637a5.989,5.989,0,0,0,0-8.476l-.3-.3A5.98,5.98,0,0,0,15.667.039ZM6.335,20.433a4.43,4.43,0,0,1-3.153-1.306l-.3-.3a4.464,4.464,0,0,1,0-6.306L7.153,8.24l6.611,6.611L9.488,19.127A4.43,4.43,0,0,1,6.335,20.433ZM7.153,8.292,2.9,12.542a4.428,4.428,0,0,0,0,6.254l.3.3a4.423,4.423,0,0,0,6.254,0l4.25-4.25Zm7.7,5.474L8.238,7.155l4.276-4.276a4.459,4.459,0,0,1,6.306,0l.3.3a4.459,4.459,0,0,1,0,6.306ZM8.29,7.155l6.559,6.559,4.25-4.25a4.423,4.423,0,0,0,0-6.254l-.3-.3a4.422,4.422,0,0,0-6.254,0Z" transform="translate(0 -0.002)" fill="#552af3"/>
</svg>
