<?xml version="1.0" encoding="utf-8"?>
<!-- Generator: Adobe Illustrator 26.3.1, SVG Export Plug-In . SVG Version: 6.00 Build 0)  -->
<svg version="1.1" id="Layer_1" xmlns="http://www.w3.org/2000/svg" xmlns:xlink="http://www.w3.org/1999/xlink" x="0px" y="0px"
	 viewBox="0 0 19 25.1" style="enable-background:new 0 0 19 25.1;" xml:space="preserve">
<style type="text/css">
	.st0{fill:#232222;}
	.st1{fill:#FFFFFF;}
</style>
<g id="telehealth" transform="translate(-125 -111.444)">
	<g id="webcam">
		<path class="st0" d="M130.7,132.1v2.5H125v1.9h18.9v-1.9h-5.7v-2.6L130.7,132.1z"/>
	</g>
	<g id="Ellipse_93" transform="translate(125 111.444)">
		<g>
			<circle class="st1" cx="9.5" cy="9.5" r="9.5"/>
		</g>
		<g>
			<path class="st0" d="M9.5,19C4.3,19,0,14.7,0,9.5S4.3,0,9.5,0S19,4.3,19,9.5S14.7,19,9.5,19z M9.5,1.5c-4.4,0-8,3.6-8,8
				s3.6,8,8,8s8-3.6,8-8S13.9,1.5,9.5,1.5z"/>
		</g>
	</g>
	<g id="Ellipse_94" transform="translate(130 116.444)">
		<g>
			<circle class="st1" cx="4.5" cy="4.5" r="4.5"/>
		</g>
		<g>
			<path class="st0" d="M4.5,9C2,9,0,7,0,4.5S2,0,4.5,0S9,2,9,4.5S7,9,4.5,9z M4.5,1.5c-1.7,0-3,1.3-3,3s1.3,3,3,3s3-1.3,3-3
				S6.2,1.5,4.5,1.5z"/>
		</g>
	</g>
</g>
</svg>
