<svg xmlns="http://www.w3.org/2000/svg" width="64.143" height="41.673" viewBox="0 0 64.143 41.673">
  <g id="Group_651" data-name="Group 651" transform="translate(-1278.319 -233.067)">
    <path id="upload" d="M-1952.168-349.646c.145-.668.241-1.349.44-2a12.312,12.312,0,0,1,9.235-8.873.7.7,0,0,0,.614-.638,20.781,20.781,0,0,1,17.292-16.2,20.748,20.748,0,0,1,21.171,10.316.815.815,0,0,0,.772.48A15.306,15.306,0,0,1-1888.11-353a15.292,15.292,0,0,1-12.641,16.836,17.824,17.824,0,0,1-3.12.223c-11.777.016-23.554-.043-35.332.032a12.61,12.61,0,0,1-12.381-8.747c-.247-.813-.391-1.655-.585-2.484Z" transform="translate(3230.487 610.648)" fill="#552af3"/>
    <path id="Path_306" data-name="Path 306" d="M-1918.175-335.945c.118.016-4.048.021-3.83.011l.006-15.694c-.212.2-.362.327-.5.469-1.153,1.148-2.29,2.315-3.462,3.447a1.856,1.856,0,0,1-2.65-.019,1.867,1.867,0,0,1-.011-2.6q3.612-3.657,7.268-7.266a1.788,1.788,0,0,1,2.551,0q3.657,3.609,7.266,7.269a1.865,1.865,0,0,1-.013,2.6,1.861,1.861,0,0,1-2.65.016c-1.169-1.135-2.306-2.3-3.463-3.452-.139-.139-.292-.271-.5-.464Z" transform="translate(3230.487 610.648)" fill="#fff"/>
  </g>
</svg>
