<svg xmlns="http://www.w3.org/2000/svg" width="609.5" height="251" viewBox="0 0 609.5 251">
  <g id="Group_393" data-name="Group 393" transform="translate(-338 -429)">
    <g id="Group_1" data-name="Group 1" transform="translate(-49 -22)">
      <line id="Line_9" data-name="Line 9" x2="569" transform="translate(427.5 625.5)" fill="none" stroke="#e8e8e8" stroke-width="1.5" stroke-dasharray="6" opacity="0.6"/>
      <line id="Line_10" data-name="Line 10" x2="569" transform="translate(427.5 591.5)" fill="none" stroke="#e8e8e8" stroke-width="1.5" stroke-dasharray="6" opacity="0.6"/>
      <line id="Line_11" data-name="Line 11" x2="569" transform="translate(427.5 558.5)" fill="none" stroke="#e8e8e8" stroke-width="1.5" stroke-dasharray="6" opacity="0.6"/>
      <line id="Line_12" data-name="Line 12" x2="569" transform="translate(427.5 525.5)" fill="none" stroke="#e8e8e8" stroke-width="1.5" stroke-dasharray="6" opacity="0.6"/>
      <line id="Line_13" data-name="Line 13" x2="569" transform="translate(427.5 491.5)" fill="none" stroke="#e8e8e8" stroke-width="1.5" stroke-dasharray="6" opacity="0.6"/>
      <g id="Group_392" data-name="Group 392" transform="translate(-73 49)">
        <path id="Path_103" data-name="Path 103" d="M10,0H61A10,10,0,0,1,71,10V30A10,10,0,0,1,61,40H43.964l-8.542,6.793L26.734,40H10A10,10,0,0,1,0,30V10A10,10,0,0,1,10,0Z" transform="translate(778 402)" fill="#0469db"/>
        <text id="_1_200" data-name="1,200" transform="translate(833 427)" fill="#fff" font-size="16" font-family="Raleway-Medium, Raleway" font-weight="500"><tspan x="-38.784" y="0">1,200</tspan></text>
      </g>
      <text id="_10_8_6_4_2_0_" data-name="10
8
6
4
2
0
" transform="translate(409 499)" fill="#757575" font-size="20" font-family="Raleway-Medium, Raleway" font-weight="500"><tspan x="-21.28" y="0">10</tspan><tspan x="-11.96" y="33">8</tspan><tspan x="-12.12" y="66">6</tspan><tspan x="-11.16" y="99">4</tspan><tspan x="-10.7" y="132">2</tspan><tspan x="-12.28" y="165">0</tspan><tspan x="0" y="198"></tspan></text>
      <text id="Jan" transform="translate(460 687)" fill="#757575" font-size="16" font-family="Raleway-Medium, Raleway" font-weight="500"><tspan x="-25.92" y="0">Jan</tspan></text>
      <text id="Feb" transform="translate(523 687)" fill="#757575" font-size="16" font-family="Raleway-Medium, Raleway" font-weight="500"><tspan x="-28.24" y="0">Feb</tspan></text>
      <text id="Mar" transform="translate(566 687)" fill="#757575" font-size="16" font-family="Raleway-Medium, Raleway" font-weight="500"><tspan x="-14.288" y="0">Mar</tspan></text>
      <text id="Apr" transform="translate(625 687)" fill="#757575" font-size="16" font-family="Raleway-Medium, Raleway" font-weight="500"><tspan x="-13.304" y="0">Apr</tspan></text>
      <text id="May" transform="translate(684 687)" fill="#757575" font-size="16" font-family="Raleway-Medium, Raleway" font-weight="500"><tspan x="-15.608" y="0">May</tspan></text>
      <text id="Jun" transform="translate(740 687)" fill="#757575" font-size="16" font-family="Raleway-Medium, Raleway" font-weight="500"><tspan x="-13.352" y="0">Jun</tspan></text>
      <text id="Jul" transform="translate(800 687)" fill="#757575" font-size="16" font-family="Raleway-Medium, Raleway" font-weight="500"><tspan x="-10.92" y="0">Jul</tspan></text>
      <text id="Aug" transform="translate(859 687)" fill="#757575" font-size="16" font-family="Raleway-Medium, Raleway" font-weight="500"><tspan x="-15.128" y="0">Aug</tspan></text>
      <text id="Sep" transform="translate(918 687)" fill="#757575" font-size="16" font-family="Raleway-Medium, Raleway" font-weight="500"><tspan x="-14.584" y="0">Sep</tspan></text>
      <text id="oct" transform="translate(976 687)" fill="#757575" font-size="16" font-family="Raleway-Medium, Raleway" font-weight="500"><tspan x="-12.04" y="0">oct</tspan></text>
      <line id="Line_8" data-name="Line 8" x2="569" transform="translate(427.5 660.5)" fill="none" stroke="#e8e8ea" stroke-width="1"/>
      <path id="Rectangle_157" data-name="Rectangle 157" d="M10,0H29A10,10,0,0,1,39,10V93a0,0,0,0,1,0,0H0a0,0,0,0,1,0,0V10A10,10,0,0,1,10,0Z" transform="translate(427 567)" fill="#0469db" opacity="0.5"/>
      <path id="Rectangle_158" data-name="Rectangle 158" d="M10,0H29A10,10,0,0,1,39,10v99a0,0,0,0,1,0,0H0a0,0,0,0,1,0,0V10A10,10,0,0,1,10,0Z" transform="translate(488 551)" fill="#0469db" opacity="0.5"/>
      <path id="Rectangle_159" data-name="Rectangle 159" d="M10,0H29A10,10,0,0,1,39,10V70a0,0,0,0,1,0,0H0a0,0,0,0,1,0,0V10A10,10,0,0,1,10,0Z" transform="translate(546 590)" fill="#0469db" opacity="0.5"/>
      <path id="Rectangle_160" data-name="Rectangle 160" d="M10,0H29A10,10,0,0,1,39,10V54a0,0,0,0,1,0,0H0a0,0,0,0,1,0,0V10A10,10,0,0,1,10,0Z" transform="translate(604 606)" fill="#0469db" opacity="0.5"/>
      <path id="Rectangle_161" data-name="Rectangle 161" d="M10,0H29A10,10,0,0,1,39,10v92a0,0,0,0,1,0,0H0a0,0,0,0,1,0,0V10A10,10,0,0,1,10,0Z" transform="translate(664 558)" fill="#0469db" opacity="0.5"/>
      <path id="Rectangle_162" data-name="Rectangle 162" d="M10,0H29A10,10,0,0,1,39,10V155a0,0,0,0,1,0,0H0a0,0,0,0,1,0,0V10A10,10,0,0,1,10,0Z" transform="translate(722 505)" fill="#0469db" opacity="0.5"/>
      <path id="Rectangle_163" data-name="Rectangle 163" d="M10,0H29A10,10,0,0,1,39,10V51a0,0,0,0,1,0,0H0a0,0,0,0,1,0,0V10A10,10,0,0,1,10,0Z" transform="translate(780 609)" fill="#0469db" opacity="0.5"/>
      <path id="Rectangle_164" data-name="Rectangle 164" d="M10,0H29A10,10,0,0,1,39,10V92a0,0,0,0,1,0,0H0a0,0,0,0,1,0,0V10A10,10,0,0,1,10,0Z" transform="translate(839 568)" fill="#0469db" opacity="0.5"/>
      <path id="Rectangle_165" data-name="Rectangle 165" d="M10,0H29A10,10,0,0,1,39,10V56a0,0,0,0,1,0,0H0a0,0,0,0,1,0,0V10A10,10,0,0,1,10,0Z" transform="translate(898 604)" fill="#0469db" opacity="0.5"/>
      <path id="Rectangle_166" data-name="Rectangle 166" d="M10,0H29A10,10,0,0,1,39,10V91a0,0,0,0,1,0,0H0a0,0,0,0,1,0,0V10A10,10,0,0,1,10,0Z" transform="translate(957 569)" fill="#0469db" opacity="0.5"/>
    </g>
  </g>
</svg>
