<svg xmlns="http://www.w3.org/2000/svg" width="21.929" height="21.463" viewBox="0 0 21.929 21.463">
  <g id="clinics" transform="translate(-4.037 -7.308)">
    <path id="Path_373" data-name="Path 373" d="M10.179,2.2a.7.7,0,0,0-.985,0L-1.073,8.467a.7.7,0,0,0-.151.759.7.7,0,0,0,.643.43h.7V22.065a1.394,1.394,0,0,0,1.393,1.393H17.865a1.394,1.394,0,0,0,1.393-1.393V9.656h.7a.7.7,0,0,0,.492-1.189L10.179,2.2Zm7.687,19.866H1.508L1.5,8.985,9.687,3.977l8.179,4.855V22.065Z" transform="translate(5.314 5.314)" fill="#232222"/>
    <path id="Path_374" data-name="Path 374" d="M13,10H11v3H8v2h3v3h2V15h3V13H13Z" transform="translate(3.001 5.262)" fill="#232222"/>
  </g>
</svg>
