<svg xmlns="http://www.w3.org/2000/svg" width="50" height="50" viewBox="0 0 50 50">
  <path id="patients_register" data-name="patients register" d="M30,55A25,25,0,1,1,55,30,25,25,0,0,1,30,55ZM18.747,24.524c-1.435.662-1.762,3.011-.73,5.246s3.031,3.51,4.466,2.849,1.762-3.011.73-5.246S20.182,23.862,18.747,24.524Zm7.114-8.21c-1.947,0-3.525,2.459-3.525,5.493S23.914,27.3,25.861,27.3s3.525-2.459,3.525-5.493S27.808,16.314,25.861,16.314Zm1.119,14.4A27.79,27.79,0,0,0,23.169,35.7c-1.08,1.7-1.591,2.6-1.591,3.547,0,1.862,1.383,2.763,3.245,2.763a4.607,4.607,0,0,0,2.67-.689A4.171,4.171,0,0,1,30.41,40.6a4.168,4.168,0,0,1,2.9.712,4.681,4.681,0,0,0,2.69.7c1.862,0,3.244-.9,3.244-2.763,0-.942-.509-1.846-1.59-3.547a33.8,33.8,0,0,0-3.81-4.985,5.073,5.073,0,0,0-3.144-1.15h-.577a5.214,5.214,0,0,0-3.143,1.147Zm7.076-14.4c-1.947,0-3.525,2.459-3.525,5.493S32.109,27.3,34.056,27.3s3.525-2.459,3.525-5.493S36,16.314,34.056,16.314Zm7.114,8.209c-1.435-.662-3.434.613-4.466,2.849s-.7,4.584.731,5.247,3.434-.614,4.466-2.849.7-4.584-.731-5.246Z" transform="translate(-5 -5)" fill="#ffc107" fill-rule="evenodd"/>
</svg>
