<svg xmlns="http://www.w3.org/2000/svg" width="35.186" height="35.186" viewBox="0 0 35.186 35.186">
  <path id="Path_2658" data-name="Path 2658" d="M86.553,29.151V24.835H75.172a3.107,3.107,0,0,1-3.107-3.106V3.62h31.046V21.73A3.109,3.109,0,0,1,100,24.835H88.622v4.316a3.1,3.1,0,1,1-2.07,0Zm1.035,3.963a1.035,1.035,0,1,0-1.035-1.035A1.035,1.035,0,0,0,87.588,33.114ZM79.308,13.969A8.279,8.279,0,1,0,87.588,5.69a8.279,8.279,0,0,0-8.279,8.279Zm-8.8-11.9a.517.517,0,0,1-.517-.517V.516A.517.517,0,0,1,70.512,0h34.151a.517.517,0,0,1,.517.517V1.551a.517.517,0,0,1-.517.517ZM85.4,8.157a6.252,6.252,0,0,1,3.424-.275l-1.425,3.7Zm5.356.468a6.214,6.214,0,0,1,2.959,4.309H89.094ZM83.608,9.2l3.081,5.282a1.028,1.028,0,0,0,.223.27,1.052,1.052,0,0,0,.361.2,1.036,1.036,0,0,0,.339.049h6.1a6.21,6.21,0,1,1-10.1-5.8Z" transform="translate(-69.995 0.002)" fill="#fff" fill-rule="evenodd"/>
</svg>
