<?xml version="1.0" encoding="utf-8"?>
<!-- Generator: Adobe Illustrator 26.3.1, SVG Export Plug-In . SVG Version: 6.00 Build 0)  -->
<svg version="1.1" id="Layer_1" xmlns="http://www.w3.org/2000/svg" xmlns:xlink="http://www.w3.org/1999/xlink" x="0px" y="0px"
	 viewBox="0 0 37.2 37.7" style="enable-background:new 0 0 37.2 37.7;" xml:space="preserve">
<style type="text/css">
	.st0{fill:#FFFFFF;}
</style>
<g id="Group_996" transform="translate(-1331 -460.641)">
	<g id="Path_2542">
		<path d="M1365.6,469.6l-7.5,4.3v-1.4c0-2.5-2-4.5-4.5-4.5l0,0h-18.2c-2.5,0-4.5,2-4.5,4.5c0,0,0,0,0,0v13.9c0,2.5,2,4.5,4.5,4.5
			h18.2c2.5,0,4.5-2,4.5-4.5l0,0V485l7.5,4.3c1.4,0.8,2.6,0.1,2.6-1.5V471C1368.2,469.4,1367.1,468.7,1365.6,469.6z"/>
	</g>
	<g id="Rectangle_1943">
		<path d="M1357.3,462.4L1357.3,462.4c0.9,0.6,1.3,1.8,0.7,2.7l-18.5,30.9c-0.6,0.9-1.8,1.3-2.7,0.7l0,0c-0.9-0.6-1.3-1.8-0.7-2.7
			l18.5-30.9C1355.1,462.1,1356.4,461.8,1357.3,462.4z"/>
		<path class="st0" d="M1337.7,497.4c-0.4,0-0.9-0.1-1.3-0.4c-1.2-0.7-1.6-2.2-0.9-3.4l18.5-30.9c0.7-1.2,2.3-1.6,3.4-0.9l0,0
			c0.6,0.3,1,0.9,1.1,1.5c0.2,0.6,0.1,1.3-0.3,1.9l-18.5,30.9C1339.4,497,1338.6,497.4,1337.7,497.4z M1356.3,462.6
			c-0.5,0-1,0.3-1.3,0.7l-18.5,30.9c-0.4,0.7-0.2,1.6,0.5,2.1c0.7,0.4,1.6,0.2,2.1-0.5l18.5-30.9c0.2-0.3,0.3-0.7,0.2-1.1
			c-0.1-0.4-0.3-0.7-0.7-0.9l0,0C1356.8,462.6,1356.5,462.6,1356.3,462.6z"/>
	</g>
</g>
</svg>
