<svg xmlns="http://www.w3.org/2000/svg" width="38.705" height="35.353" viewBox="0 0 38.705 35.353">
  <path id="Path_2551" data-name="Path 2551" d="M147.563,64.4H118.5a4.82,4.82,0,0,0-4.821,4.821V88.87a4.82,4.82,0,0,0,4.821,4.821h6.106l4.591,5.372a1.674,1.674,0,0,0,1.331.689,1.556,1.556,0,0,0,1.331-.689l4.591-5.372h11.111a4.82,4.82,0,0,0,4.821-4.821V69.219A4.82,4.82,0,0,0,147.563,64.4ZM122.908,82.625A3.627,3.627,0,1,1,126.535,79,3.635,3.635,0,0,1,122.908,82.625Zm9.963,0A3.627,3.627,0,1,1,136.5,79,3.665,3.665,0,0,1,132.871,82.625Zm10.009,0A3.627,3.627,0,1,1,146.507,79,3.635,3.635,0,0,1,142.88,82.625Z" transform="translate(-113.679 -64.398)" fill="#fff"/>
</svg>
