<svg xmlns="http://www.w3.org/2000/svg" width="42.947" height="42.947" viewBox="0 0 42.947 42.947">
  <g id="Group_6457" data-name="Group 6457" transform="translate(-44.165 -34.576)">
    <path id="noun-image-4971587" d="M105,39.6a4.6,4.6,0,0,1,4.6-4.6h33.744a4.6,4.6,0,0,1,4.6,4.6V73.345a4.6,4.6,0,0,1-4.6,4.6H109.6a4.6,4.6,0,0,1-4.6-4.6Zm7.669,9.2a3.068,3.068,0,1,1,3.068,3.068A3.068,3.068,0,0,1,112.669,48.8ZM130.8,50.992a1.534,1.534,0,0,0-2.513,0l-6.7,9.57L120,58.583a1.534,1.534,0,0,0-2.4,0l-6.135,7.669a1.534,1.534,0,0,0,1.2,2.492h27.609a1.534,1.534,0,0,0,1.256-2.413Z" transform="translate(-60.835 -0.424)" fill="rgba(0,0,0,0.47)" fill-rule="evenodd"/>
  </g>
</svg>
