<svg xmlns="http://www.w3.org/2000/svg" width="23.641" height="39.641" viewBox="0 0 23.641 39.641">
  <path id="Union_1" data-name="Union 1" d="M-4380.82-807.677a1.294,1.294,0,0,1-1.3-1.33,1.294,1.294,0,0,1,1.3-1.33h3.868v-5.321a12.006,12.006,0,0,1-10.517-12.016v-5.01a1.293,1.293,0,0,1,1.3-1.33,1.294,1.294,0,0,1,1.3,1.33v5.01a9.313,9.313,0,0,0,9.213,9.4,9.312,9.312,0,0,0,9.213-9.4v-5.01a1.294,1.294,0,0,1,1.3-1.33,1.321,1.321,0,0,1,1.3,1.33v5.01a11.975,11.975,0,0,1-10.517,12.016v5.321h3.868a1.293,1.293,0,0,1,1.3,1.33,1.293,1.293,0,0,1-1.3,1.33Zm-1.869-19.865v-.709h4.649a1.087,1.087,0,0,0,1.087-1.109,1.087,1.087,0,0,0-1.087-1.109h-4.433c-.087-.044-.13,0-.217,0v-2.261h4.649a1.087,1.087,0,0,0,1.087-1.109,1.087,1.087,0,0,0-1.087-1.109h-4.433c-.087-.044-.13,0-.217,0v-2.261h4.651a1.087,1.087,0,0,0,1.086-1.109,1.087,1.087,0,0,0-1.086-1.109h-4.433c-.088-.044-.131,0-.218,0v-.709a7.139,7.139,0,0,1,7.04-7.183,7.111,7.111,0,0,1,7.04,7.183v.665h-4.65a1.087,1.087,0,0,0-1.087,1.108,1.087,1.087,0,0,0,1.087,1.109h4.65v2.217h-4.65a1.087,1.087,0,0,0-1.087,1.109,1.087,1.087,0,0,0,1.087,1.109h4.65v2.217h-4.65a1.087,1.087,0,0,0-1.087,1.109,1.087,1.087,0,0,0,1.087,1.109h4.65v.709a7.111,7.111,0,0,1-7.04,7.183A7.054,7.054,0,0,1-4382.689-827.541Zm17.557-6.474Z" transform="translate(4387.469 847.317)" fill="#fff"/>
</svg>
