<?xml version="1.0" encoding="utf-8"?>
<!-- Generator: Adobe Illustrator 26.3.1, SVG Export Plug-In . SVG Version: 6.00 Build 0)  -->
<svg version="1.1" id="Layer_1" xmlns="http://www.w3.org/2000/svg" xmlns:xlink="http://www.w3.org/1999/xlink" x="0px" y="0px"
	 viewBox="0 0 25.7 39.6" style="enable-background:new 0 0 25.7 39.6;" xml:space="preserve">
<style type="text/css">
	.st0{fill:#FFFFFF;}
</style>
<g id="Group_997" transform="translate(-1459.001 -563)">
	<g id="Exclusion_1">
		<path d="M1476,602.6h-10.3c-0.7,0-1.3-0.6-1.3-1.3c0,0,0,0,0-0.1c0-0.7,0.5-1.3,1.2-1.3c0,0,0,0,0.1,0h3.9v-5.3
			c-0.7-0.1-1.5-0.2-2.2-0.5l1.4-2.4c-1.3-0.3-2.6-0.9-3.6-1.8l1.1-1.9c1,0.9,2.3,1.5,3.7,1.6l4.7-7.8h3.2v0.7c0,3.9-3.1,7.1-7,7.2
			c-0.3,0-0.6,0-0.9-0.1l-1.2,2c0.7,0.2,1.4,0.2,2.1,0.2c5.1-0.1,9.3-4.3,9.2-9.4v-5c0-0.7,0.5-1.3,1.2-1.3c0,0,0,0,0.1,0
			c0.7,0,1.3,0.6,1.3,1.3v5c0.1,6.1-4.5,11.3-10.5,12v5.3h3.9c0.7,0,1.3,0.6,1.3,1.3c0,0,0,0,0,0.1
			C1477.3,602,1476.8,602.6,1476,602.6C1476,602.6,1476,602.6,1476,602.6z M1462.7,599.9c-0.4,0-0.7-0.1-1-0.3
			c-0.9-0.6-1.3-1.8-0.7-2.7c0,0,0,0,0,0l2.7-4.6c1.1,0.8,2.3,1.4,3.6,1.9l-2.9,4.8C1464.1,599.6,1463.4,599.9,1462.7,599.9z
			 M1463.8,592.3L1463.8,592.3c-1.5-1.1-2.6-2.6-3.5-4.2c-0.9-1.7-1.3-3.6-1.3-5.5v-5c0-0.7,0.5-1.3,1.2-1.3c0,0,0,0,0.1,0
			c0.7,0,1.3,0.6,1.3,1.3c0,0,0,0,0,0.1v5c0,2.9,1.3,5.6,3.5,7.4L1463.8,592.3L1463.8,592.3z M1466.3,588.2L1466.3,588.2
			c-1.6-1.3-2.5-3.3-2.5-5.4v-0.7h4.6c0.6,0,1.1-0.5,1.1-1.1c0,0,0,0,0,0c0-0.6-0.5-1.1-1.1-1.1c0,0,0,0,0,0h-4.4c0,0,0,0-0.1,0
			c0,0,0,0-0.1,0c0,0-0.1,0-0.1,0v-2.3h4.6c0.6,0,1.1-0.5,1.1-1.1c0,0,0,0,0,0c0-0.6-0.5-1.1-1.1-1.1c0,0,0,0,0,0h-4.4
			c0,0,0,0-0.1,0c0,0,0,0-0.1,0c0,0-0.1,0-0.1,0v-2.3h4.7c0.6,0,1.1-0.5,1.1-1.1c0,0,0,0,0,0c0-0.6-0.5-1.1-1.1-1.1c0,0,0,0,0,0
			h-4.4c0,0,0,0-0.1,0c0,0,0,0-0.1,0c0,0-0.1,0-0.1,0v-0.7c0-1.9,0.7-3.7,2.1-5.1c1.3-1.3,3.1-2.1,5-2.1c1.7,0,3.3,0.6,4.6,1.7
			c1.3,1.1,2.1,2.6,2.4,4.3l1.8-3c0.4-0.6,1-1,1.7-1c0.4,0,0.7,0.1,1,0.3c0.9,0.6,1.3,1.8,0.7,2.7c0,0,0,0,0,0l-5.6,9.4h0.5v2.2
			h-1.9l1.3-2.2h-4.1c-0.2,0-0.3,0-0.5-0.1l1.3-2.1h3.9v-2.2h-2.5l1.3-2.2h1.2v-0.7c0-0.4,0-0.8-0.1-1.2l-1.1,1.8h-3.5
			c-0.6,0-1.1,0.5-1.1,1.1c0,0,0,0,0,0c0,0.6,0.5,1.1,1.1,1.1c0,0,0,0,0,0h2.1l-1.3,2.2h-0.8c-0.6,0-1.1,0.5-1.1,1.1c0,0,0,0,0,0
			c0,0.4,0.2,0.8,0.6,1L1466.3,588.2L1466.3,588.2z M1474.7,581.9h-1.5c-0.6,0-1.1-0.5-1.1-1.1c0,0,0,0,0,0c0-0.6,0.5-1.1,1.1-1.1
			c0,0,0,0,0,0h2.8L1474.7,581.9L1474.7,581.9z"/>
	</g>
	<g id="Rectangle_1942">
		<path d="M1482.3,565.4L1482.3,565.4c0.9,0.6,1.3,1.8,0.7,2.7l-18.5,30.9c-0.6,0.9-1.8,1.3-2.7,0.7l0,0c-0.9-0.6-1.3-1.8-0.7-2.7
			l18.5-30.9C1480.1,565.1,1481.4,564.8,1482.3,565.4z"/>
		<path class="st0" d="M1462.7,600.4c-0.4,0-0.9-0.1-1.3-0.4c-0.6-0.3-1-0.9-1.1-1.5s-0.1-1.3,0.3-1.9l18.5-30.9
			c0.7-1.2,2.2-1.6,3.4-0.9l0,0c0.6,0.3,1,0.9,1.1,1.5c0.2,0.6,0.1,1.3-0.3,1.9l-18.5,30.9c-0.3,0.6-0.9,1-1.5,1.1
			C1463.1,600.4,1462.9,600.4,1462.7,600.4z M1481.3,565.6c-0.5,0-1,0.3-1.3,0.7l-18.5,30.9c-0.2,0.3-0.3,0.7-0.2,1.1
			c0.1,0.4,0.3,0.7,0.7,0.9c0.3,0.2,0.7,0.3,1.1,0.2c0.4-0.1,0.7-0.3,0.9-0.7l18.5-30.9c0.2-0.3,0.3-0.7,0.2-1.1s-0.3-0.7-0.7-0.9
			C1481.8,565.6,1481.5,565.6,1481.3,565.6z"/>
	</g>
</g>
</svg>
