<svg id="noun-record-4985723" xmlns="http://www.w3.org/2000/svg" width="38.98" height="38.98" viewBox="0 0 38.98 38.98">
  <path id="Path_2549" data-name="Path 2549" d="M124.49,35a19.49,19.49,0,1,0,19.49,19.49A19.513,19.513,0,0,0,124.49,35Zm0,36.2A16.706,16.706,0,1,1,141.2,54.49,16.725,16.725,0,0,1,124.49,71.2Z" transform="translate(-105 -35)" fill="#fff"/>
  <path id="Path_2550" data-name="Path 2550" d="M253.353,175a8.353,8.353,0,1,0,8.353,8.353A8.362,8.362,0,0,0,253.353,175Zm0,13.922a5.569,5.569,0,1,1,5.569-5.569A5.575,5.575,0,0,1,253.353,188.922Z" transform="translate(-233.863 -163.863)" fill="#fff"/>
</svg>
