<?xml version="1.0" encoding="utf-8"?>
<!-- Generator: Adobe Illustrator 26.3.1, SVG Export Plug-In . SVG Version: 6.00 Build 0)  -->
<svg version="1.1" id="Layer_1" xmlns="http://www.w3.org/2000/svg" xmlns:xlink="http://www.w3.org/1999/xlink" x="0px" y="0px"
	 viewBox="0 0 39.1 35.2" style="enable-background:new 0 0 39.1 35.2;" xml:space="preserve">
<style type="text/css">
	.st0{fill-rule:evenodd;clip-rule:evenodd;fill:#FFFFFF;}
</style>
<path class="st0" d="M35.7,12.7h-5.4V3.4c0-1.9-1.5-3.4-3.4-3.4H3.4C1.5,0,0,1.5,0,3.4v15.6c0,1.9,1.5,3.4,3.4,3.4h5.4v9.3
	c0,1.9,1.5,3.4,3.4,3.4h23.5c1.9,0,3.4-1.5,3.4-3.4V16.1C39.1,14.2,37.6,12.7,35.7,12.7z M8.8,16.1v3.4H3.4c-0.3,0-0.5-0.2-0.5-0.5
	V3.4c0-0.3,0.2-0.5,0.5-0.5h23.5c0.3,0,0.5,0.2,0.5,0.5v9.3H12.2C10.3,12.7,8.8,14.2,8.8,16.1z"/>
</svg>
