<svg xmlns="http://www.w3.org/2000/svg" width="36.254" height="42.574" viewBox="0 0 36.254 42.574">
  <path id="Union_4" data-name="Union 4" d="M-8219.2-2885.67c-.079-.036-.163-.072-.238-.112a5.424,5.424,0,0,1-2.45-2.447h0a5.409,5.409,0,0,1-.581-2.447,3.914,3.914,0,0,1,.035-.614,3.292,3.292,0,0,1,0-.919,4.625,4.625,0,0,1,1.128-2.487,16.525,16.525,0,0,1,3.751-3.165,48.349,48.349,0,0,1,5.731-2.877c2.394-1.071,2.839-2.864,1.217-4.931a15.991,15.991,0,0,1-3.536-13.039,8.746,8.746,0,0,1,8.473-7.284c5.73-.233,9.606,3.927,9.584,9.655a16.4,16.4,0,0,1-3.61,10.31,4.244,4.244,0,0,0-1.089,3.227,2.052,2.052,0,0,0,.381,1.094,1.989,1.989,0,0,0,.91.7c1.248.561,2.5,1.117,3.739,1.695a8.839,8.839,0,0,0-4.849,3.86,9.088,9.088,0,0,0-1.181,6.145,9,9,0,0,0,3.063,5.432,50.719,50.719,0,0,1-6.671.448C-8211.166-2883.429-8216.248-2884.326-8219.2-2885.67Zm22.258.731a7.005,7.005,0,0,1-1.856-1.892c-.123-.184-.237-.376-.344-.574a6.925,6.925,0,0,1-.521-1.255,7.01,7.01,0,0,1-.309-2.08,7.044,7.044,0,0,1,2.393-5.307,6.8,6.8,0,0,1,5.519-1.611,6.874,6.874,0,0,1,4.8,3.208,7.093,7.093,0,0,1,.731,5.791,7.246,7.246,0,0,1-.52,1.255h0c-.106.2-.225.39-.348.574a6.741,6.741,0,0,1-.838,1.036,6.812,6.812,0,0,1-4.2,2.021q-.331.033-.661.033A6.781,6.781,0,0,1-8196.939-2884.939Zm-.257-4.98h3.294v3.344h1.617v-3.344H-8189v-1.64h-3.289v-3.344h-1.617v3.344h-3.294Z" transform="translate(8222.469 2926.003)" fill="#fff"/>
</svg>
