<svg xmlns="http://www.w3.org/2000/svg" width="45.022" height="44.957" viewBox="0 0 45.022 44.957">
  <path id="registered_doctors" d="M48.021,52.973H45.637a6.481,6.481,0,0,1,6.384-6.487v2.487A4,4,0,0,1,48.021,52.973Zm-4.173,0H15.326a8.281,8.281,0,0,0-8.239-8.3H7V25.554h.086a8.283,8.283,0,0,0,8.24-8.324c0-.082-.01-.162-.012-.244H18.07v-5.97a3,3,0,0,1,3-3H37.981a3,3,0,0,1,3,3V16.99H43.86c0,.082-.012.162-.012.244a8.281,8.281,0,0,0,8.174,8.321V44.676a8.28,8.28,0,0,0-8.173,8.3Zm-8.819-9.046a7.929,7.929,0,0,0-15.859,0ZM33.047,29.059A5.947,5.947,0,1,0,27.1,35.006a5.947,5.947,0,0,0,5.947-5.947Zm4.946-16.141a2,2,0,0,0-2-2H23.03a2,2,0,0,0-2,2V17H37.993V12.918Zm2.983,16.141H36.02v1.982h4.956Zm0,4.956H34.038V36h6.938V34.015Zm0,4.956H37.011v1.982h3.965Zm4.659-21.737c0-.084.021-.161.024-.244h2.362a4,4,0,0,1,4,4v2.756a6.483,6.483,0,0,1-6.386-6.512ZM7.087,23.753c-.029,0-.057-.008-.086-.009V20.99a4,4,0,0,1,4-4h2.514c0,.083.024.16.024.244a6.486,6.486,0,0,1-6.452,6.519Zm6.45,29.22H11a4,4,0,0,1-4-4V46.487c.029,0,.057-.009.086-.009a6.484,6.484,0,0,1,6.451,6.5Z" transform="translate(-7 -8.016)" fill="#a52ebb" fill-rule="evenodd"/>
</svg>
