<svg xmlns="http://www.w3.org/2000/svg" width="124" height="124" viewBox="0 0 124 124">
  <g id="Group_284" data-name="Group 284" transform="translate(29.593 29.693)">
    <rect id="Rectangle_1936" data-name="Rectangle 1936" width="124" height="124" rx="62" transform="translate(-29.593 -29.693)" fill="#ff6767" opacity="0.16"/>
    <rect id="Rectangle_1935" data-name="Rectangle 1935" width="94" height="94" rx="47" transform="translate(-14.593 -14.693)" fill="#ff6767" opacity="0.16"/>
    <rect id="Rectangle_91" data-name="Rectangle 91" width="76" height="76" rx="38" transform="translate(-5.593 -5.693)" fill="#ff6767"/>
    <path id="phone" d="M33.568,1.659,26.632.055A2.156,2.156,0,0,0,24.168,1.3l-3.2,7.466a2.158,2.158,0,0,0,.612,2.512l3.709,3.035A24.084,24.084,0,0,1,14.307,25.3l-3.035-3.709a2.158,2.158,0,0,0-2.512-.612l-7.46,3.2A2.148,2.148,0,0,0,.055,26.632l1.6,6.93a2.149,2.149,0,0,0,2.1,1.672A31.476,31.476,0,0,0,35.234,3.751,2.137,2.137,0,0,0,33.568,1.659ZM3.792,33.031,2.209,26.178,9.6,23.012l4.094,5.01c7.129-3.344,10.99-7.219,14.32-14.32l-5.01-4.094,3.165-7.391L33.025,3.8A29.264,29.264,0,0,1,3.792,33.031Z" transform="translate(32.294 60.444) rotate(-135)" fill="#fff"/>
  </g>
</svg>
