<svg xmlns="http://www.w3.org/2000/svg" width="19.005" height="25" viewBox="0 0 19.005 25">
  <g id="doctor" transform="translate(-61.39)">
    <g id="Group_3" data-name="Group 3" transform="translate(61.39)">
      <g id="Group_2" data-name="Group 2" transform="translate(0)">
        <path id="Path_91" data-name="Path 91" d="M191.9,95.1h1.38a.324.324,0,0,1,.324.324V96.8a.324.324,0,0,0,.324.324h1.588a.324.324,0,0,0,.324-.324V95.42a.324.324,0,0,1,.324-.324h1.38a.324.324,0,0,0,.324-.324V93.184a.324.324,0,0,0-.324-.324h-1.38a.324.324,0,0,1-.324-.324v-1.38a.324.324,0,0,0-.324-.324h-1.588a.324.324,0,0,0-.324.324v1.38a.324.324,0,0,1-.324.324H191.9a.324.324,0,0,0-.324.324v1.588A.324.324,0,0,0,191.9,95.1Z" transform="translate(-185.215 -86.397)" fill="#552af3"/>
        <path id="Path_92" data-name="Path 92" d="M80.395,2.639A2.642,2.642,0,0,0,77.756,0H64.029A2.642,2.642,0,0,0,61.39,2.639V22.361A2.642,2.642,0,0,0,64.029,25H73.7a.629.629,0,0,0,.443-.183l6.073-6.073a.632.632,0,0,0,.183-.443V2.639ZM74.322,22.63V20.313c0-.764.354-1.381,1.118-1.381h2.548C77.571,19.349,74.728,22.224,74.322,22.63ZM78.9,17.459l-3.334-.016a2.642,2.642,0,0,0-2.639,2.639L72.9,23.5H64.26a1.388,1.388,0,0,1-1.386-1.386V2.875A1.388,1.388,0,0,1,64.26,1.489L77.488,1.5a1.388,1.388,0,0,1,1.386,1.386L78.9,17.459Z" transform="translate(-61.39)" fill="#552af3"/>
        <path id="Path_93" data-name="Path 93" d="M135.142,284.224H125.1c-.211,0-.381.323-.381.722s.171.722.381.722h10.045c.211,0,.381-.323.381-.722S135.353,284.224,135.142,284.224Z" transform="translate(-120.48 -271.224)" fill="#552af3"/>
        <path id="Path_94" data-name="Path 94" d="M130.489,347.512h-5.256c-.286,0-.517.323-.517.722s.231.722.517.722h5.256c.286,0,.517-.323.517-.722S130.775,347.512,130.489,347.512Z" transform="translate(-120.48 -330.952)" fill="#552af3"/>
        <path id="Path_95" data-name="Path 95" d="M130.489,410.8h-5.256c-.286,0-.517.323-.517.722s.231.722.517.722h5.256c.286,0,.517-.323.517-.722S130.775,410.8,130.489,410.8Z" transform="translate(-120.48 -390.681)" fill="#552af3"/>
      </g>
    </g>
  </g>
</svg>
