<svg xmlns="http://www.w3.org/2000/svg" width="24.667" height="38.39" viewBox="0 0 24.667 38.39">
  <path id="client_revenue" d="M41.922,33.217h6.167C48,28.223,44.44,24.673,37.807,24.131V20.875H35.075v3.256c-6.5.52-10.315,4.012-10.315,9.335,0,4.515,2.8,7.533,8.022,8.748l2.293.6v8.393a4.9,4.9,0,0,1-4.8-4.285H24.112c.021,5.319,4.157,8.827,10.963,9.22v3.122h2.74V56.117c7.218-.466,10.963-4.027,10.963-9.541,0-4.715-2.774-7.589-8.324-8.813l-2.64-.629v-7.86a3.97,3.97,0,0,1,4.106,3.943Zm-10.911-.3a3.836,3.836,0,0,1,4.05-3.645v7.371c-2.631-.567-4.035-1.815-4.035-3.726Zm11.62,14.373c0,2.308-1.561,3.792-4.826,3.924V43.331c3.277.436,4.841,1.855,4.841,3.962Z" transform="translate(-24.112 -20.875)" fill="#0464ce" fill-rule="evenodd"/>
</svg>
