<svg xmlns="http://www.w3.org/2000/svg" width="26.464" height="22.315" viewBox="0 0 26.464 22.315">
  <g id="print_1" data-name="print 1" transform="translate(-0.746)">
    <path id="Path_135" data-name="Path 135" d="M24.277,4.578H4.429V6.34H24.277Z" transform="translate(-0.376 -0.468)" fill="#424242"/>
    <path id="Path_136" data-name="Path 136" d="M.746,13H27.209V8.889A2.518,2.518,0,0,0,24.563,6.54H3.392A2.518,2.518,0,0,0,.746,8.889Z" transform="translate(0 -0.668)" fill="#552af3"/>
    <path id="Path_137" data-name="Path 137" d="M3.392,20.128H24.563a2.518,2.518,0,0,0,2.646-2.349v-4.7H.746v4.7A2.518,2.518,0,0,0,3.392,20.128Z" transform="translate(0 -1.336)" fill="#9a7eff"/>
    <path id="Path_138" data-name="Path 138" d="M27.2,9.676a.591.591,0,1,0-.662-.587A.628.628,0,0,0,27.2,9.676Z" transform="translate(-2.634 -0.868)" fill="#ece6ff"/>
    <path id="Path_139" data-name="Path 139" d="M23.1,0H5.9V5.873H23.1Z" transform="translate(-0.527)" fill="#cbcbcb"/>
    <path id="Path_140" data-name="Path 140" d="M23.285,17.459H5.422a.966.966,0,0,1-.992-.881.966.966,0,0,1,.992-.881H23.285a.966.966,0,0,1,.992.881A.966.966,0,0,1,23.285,17.459Z" transform="translate(-0.376 -1.603)" fill="#242424"/>
    <path id="Path_141" data-name="Path 141" d="M23.1,17.659H5.9v6.46H23.1Z" transform="translate(-0.527 -1.803)" fill="#cbcbcb"/>
    <path id="Path_142" data-name="Path 142" d="M23.1,16.352H5.9v1.175H23.1Z" transform="translate(-0.527 -1.67)" fill="#552af3"/>
    <path id="Path_143" data-name="Path 143" d="M20.837,18.967H9.59v1.175H20.837Z" transform="translate(-0.903 -1.937)" fill="#4a4a4a"/>
    <path id="Path_144" data-name="Path 144" d="M18.19,21.583H9.59v1.175h8.6Z" transform="translate(-0.903 -2.204)" fill="#4a4a4a"/>
  </g>
</svg>
