<svg xmlns="http://www.w3.org/2000/svg" width="50.204" height="50.369" viewBox="0 0 50.204 50.369">
  <path id="products" d="M2.091,41.895,2.037,19a1.568,1.568,0,0,1,2.184-1.445L25.06,26.466a1.568,1.568,0,0,1,.952,1.438L26.066,50.8a1.568,1.568,0,0,1-2.184,1.445L3.043,43.332A1.568,1.568,0,0,1,2.091,41.895ZM49.838,20.081,30.607,28.409l.05,21.185,19.231-8.329Zm.778-2.762a1.569,1.569,0,0,1,1.57,1.566l.054,22.892a1.567,1.567,0,0,1-.945,1.442L30.5,52.225a1.564,1.564,0,0,1-2.191-1.435L28.255,27.9a1.567,1.567,0,0,1,.945-1.442L50,17.45A1.563,1.563,0,0,1,50.617,17.319ZM26.987,4.425,7.038,13.332l19.991,8.812,19.949-8.907ZM26.981,2a1.568,1.568,0,0,1,.636.133L49.543,11.8a1.568,1.568,0,0,1,.007,2.866L27.67,24.434a1.568,1.568,0,0,1-1.271,0L4.473,14.771a1.568,1.568,0,0,1-.007-2.866L26.346,2.136A1.568,1.568,0,0,1,26.981,2Z" transform="translate(-2.037 -2)" fill="#ff6434"/>
</svg>
