<svg xmlns="http://www.w3.org/2000/svg" width="13.806" height="14.843" viewBox="0 0 13.806 14.843">
  <g id="Group_6459" data-name="Group 6459" transform="translate(-9 -9)">
    <path id="Union_5" data-name="Union 5" d="M3507.182,1202.08a2.584,2.584,0,1,1,2.578,2.759A2.679,2.679,0,0,1,3507.182,1202.08Zm1.322-.035a.34.34,0,0,0,.326.349h.637v.681a.327.327,0,1,0,.652,0v-.681h.637a.35.35,0,0,0,0-.7h-.637v-.681a.327.327,0,1,0-.652,0v.681h-.637A.34.34,0,0,0,3508.5,1202.046Zm-9.972,1.379c0-2.061,3.542-3.807,4.766-4.086a.5.5,0,0,0,.392-.524.716.716,0,0,0-.229-.472c-.49-.349-1.681-1.449-1.681-4.557,0-1.642.93-3.79,3.362-3.79,2.383,0,3.362,2.148,3.378,3.79,0,3.125-1.175,4.208-1.681,4.557a.68.68,0,0,0-.229.472.534.534,0,0,0,.392.524,4.379,4.379,0,0,1,.6.192,3.525,3.525,0,0,0-1.06,2.55h0a3.566,3.566,0,0,0,1.224,2.707c-.849.035-1.746.052-2.644.052C3501.91,1204.839,3498.532,1204.664,3498.532,1203.425Z" transform="translate(-3489.532 -1180.996)" fill="#552af3"/>
  </g>
</svg>
