<?xml version="1.0" encoding="utf-8"?>
<!-- Generator: Adobe Illustrator 16.0.0, SVG Export Plug-In . SVG Version: 6.00 Build 0)  -->
<!DOCTYPE svg PUBLIC "-//W3C//DTD SVG 1.1//EN" "http://www.w3.org/Graphics/SVG/1.1/DTD/svg11.dtd">
<svg version="1.1" id="Component_32_1" xmlns="http://www.w3.org/2000/svg" xmlns:xlink="http://www.w3.org/1999/xlink" x="0px"
	 y="0px" width="39.798px" height="25.355px" viewBox="17.51 27.57 39.798 25.355"
	 enable-background="new 17.51 27.57 39.798 25.355" xml:space="preserve">
<g id="Component_11_1" transform="translate(62 60)">
	<path id="Subtraction_1" fill="#FFFFFF" d="M-23.362-7.575h-17.4c-0.989,0.003-1.938-0.391-2.636-1.092
		c-0.702-0.697-1.095-1.646-1.092-2.636v-17.4c-0.002-0.988,0.391-1.937,1.092-2.634c0.697-0.702,1.647-1.095,2.636-1.092h17.4
		c0.989-0.002,1.937,0.391,2.633,1.092c0.701,0.697,1.095,1.646,1.092,2.634v5.393l7.766-8.7c0.168-0.191,0.392-0.325,0.639-0.384
		c0.098-0.024,0.195-0.036,0.295-0.036c0.152,0,0.305,0.028,0.446,0.084c0.233,0.09,0.435,0.25,0.576,0.456
		c0.143,0.206,0.22,0.45,0.22,0.7v11.186c-3.613,0.09-6.647,2.749-7.211,6.32l-2.729-3.057v5.43
		c0.003,0.988-0.391,1.938-1.092,2.636C-21.422-7.971-22.372-7.574-23.362-7.575z M-37.031-21.244
		c-0.444,0.001-0.854,0.238-1.075,0.622s-0.222,0.857,0,1.242c0.221,0.385,0.631,0.622,1.075,0.622h3.729v3.728
		c0,0.444,0.237,0.854,0.622,1.076c0.189,0.108,0.403,0.166,0.621,0.166s0.432-0.058,0.621-0.166
		c0.384-0.222,0.622-0.632,0.622-1.076v-3.728h3.727c0.444,0,0.854-0.237,1.075-0.622c0.223-0.384,0.223-0.858,0-1.242
		c-0.222-0.384-0.631-0.621-1.075-0.622h-3.727v-3.727c-0.001-0.444-0.238-0.854-0.622-1.077c-0.189-0.109-0.403-0.166-0.621-0.166
		s-0.432,0.057-0.621,0.166c-0.384,0.223-0.621,0.633-0.622,1.077v3.727H-37.031z"/>
	<g id="Group_6456" transform="translate(-1)">
		<path id="Polygon_1" fill="#FFFFFF" d="M-7.624-7.593c-0.267,0.483-0.874,0.659-1.358,0.394c-0.166-0.092-0.303-0.229-0.394-0.394
			l-3.81-6.925c-0.266-0.484-0.09-1.092,0.395-1.358C-12.643-15.957-12.478-16-12.309-16h7.617c0.553,0,1,0.447,1,1
			c0,0.168-0.043,0.334-0.123,0.482L-7.624-7.593z"/>
	</g>
</g>
</svg>
