<svg xmlns="http://www.w3.org/2000/svg" width="13.285" height="19.992" viewBox="0 0 13.285 19.992">
  <g id="Group_6457" data-name="Group 6457" transform="translate(-168 -6.125)">
    <path id="Path_13114" data-name="Path 13114" d="M180.646,6.125H168.639a.641.641,0,0,0-.639.639V25.478a.641.641,0,0,0,.639.639h12.008a.641.641,0,0,0,.639-.639V6.764A.641.641,0,0,0,180.646,6.125Zm-7.473.926a.137.137,0,0,1,.128-.128h2.619a.137.137,0,0,1,.128.128V7.5a.137.137,0,0,1-.128.128H173.3a.137.137,0,0,1-.128-.128Zm1.469,18.65a.735.735,0,1,1,.735-.735A.723.723,0,0,1,174.643,25.7Zm5.589-1.884H169.054V8.424h11.177Z"/>
    <path id="Path_13115" data-name="Path 13115" d="M322.422,258.336a1.086,1.086,0,1,1-1.086-1.086A1.1,1.1,0,0,1,322.422,258.336Z" transform="translate(-146.693 -241.96)"/>
    <path id="Path_13116" data-name="Path 13116" d="M322.422,258.336a1.086,1.086,0,1,1-1.086-1.086A1.1,1.1,0,0,1,322.422,258.336Z" transform="translate(-146.693 -241.96)"/>
    <path id="Path_13117" data-name="Path 13117" d="M253.84,206.131h-1.98l-.16-.319a.367.367,0,0,0-.351-.192H249.72a.367.367,0,0,0-.351.192l-.16.319h-1.98a.479.479,0,0,0-.479.511v3.928a.479.479,0,0,0,.479.511h6.61a.479.479,0,0,0,.479-.511v-3.928a.479.479,0,0,0-.479-.511Zm-3.321,3.992a1.5,1.5,0,1,1,1.5-1.5A1.479,1.479,0,0,1,250.518,210.123Zm3.13-2.842a.069.069,0,0,1-.064.064H252.5a.069.069,0,0,1-.064-.064v-.415a.069.069,0,0,1,.064-.064h1.086a.069.069,0,0,1,.064.064Z" transform="translate(-75.876 -192.214)"/>
  </g>
</svg>
