<svg xmlns="http://www.w3.org/2000/svg" width="15.495" height="27.345" viewBox="0 0 15.495 27.345">
  <path id="Path_13112" data-name="Path 13112" d="M215.379,17.5H202.618a1.367,1.367,0,0,0-1.367,1.367v9.115a1.367,1.367,0,0,0,1.367,1.367h.456V38.79a2.333,2.333,0,0,0,1.823,2.373v.492a1.367,1.367,0,0,0,.911,1.283v.54a1.367,1.367,0,0,0,1.367,1.367h3.646a1.367,1.367,0,0,0,1.367-1.367v-.54a1.367,1.367,0,0,0,.911-1.283v-.492a2.333,2.333,0,0,0,1.823-2.373V29.35h.456a1.367,1.367,0,0,0,1.367-1.367V18.867a1.367,1.367,0,0,0-1.367-1.367Zm-1.367,2.735v6.381H203.985V20.235Zm-1.823,16.407h-6.381v-3.19a1.367,1.367,0,0,1,1.367-1.367h3.646a1.367,1.367,0,0,1,1.367,1.367Zm1.823,2.148a1.475,1.475,0,0,1-.911,1.441v-6.78a2.281,2.281,0,0,0-2.279-2.279h-3.646a2.281,2.281,0,0,0-2.279,2.279v6.78a1.475,1.475,0,0,1-.911-1.441V29.349h10.027Z" transform="translate(-201.251 -17.5)"/>
</svg>
